<svg version="1.2" xmlns="http://www.w3.org/2000/svg" viewBox="0 0 79 92" width="79" height="92">
	<style>
		.s0 { opacity: .9;fill: #f7d959 } 
		.s1 { opacity: .9;fill: #ffffff } 
		.s2 { opacity: .9;fill: #333333 } 
		.s3 { opacity: .9;fill: #43aee8 } 
		.s4 { opacity: .9;fill: #cccccc } 
		.s5 { opacity: .9;fill: #87b570 } 
	</style>
	<path id="&lt;Compound Path&gt;" fill-rule="evenodd" class="s0" d="m38.87 78.23c-21.5 0-39-17.49-39-39 0-21.51 17.5-39.02 39-39.02 21.52 0 39.02 17.51 39.02 39.02 0 21.51-17.5 39-39.02 39zm0-75.52c-20.13 0-36.5 16.38-36.5 36.52 0 20.13 16.37 36.5 36.5 36.5 20.14 0 36.52-16.37 36.52-36.5 0-20.14-16.38-36.52-36.52-36.52z"/>
	<path id="&lt;Path&gt;" class="s1" d="m71.62 39.23c0 18.07-14.66 32.74-32.75 32.74-18.08 0-32.74-14.67-32.74-32.74 0-18.09 14.66-32.75 32.74-32.75 18.09 0 32.75 14.66 32.75 32.75z"/>
	<path id="&lt;Compound Path&gt;" fill-rule="evenodd" class="s2" d="m38.87 73.22c-18.74 0-33.99-15.25-33.99-33.99 0-18.75 15.25-34 33.99-34 18.75 0 34 15.25 34 34 0 18.74-15.25 33.99-34 33.99zm0-65.49c-17.36 0-31.49 14.13-31.49 31.5 0 17.36 14.13 31.49 31.49 31.49 17.37 0 31.5-14.13 31.5-31.49 0-17.37-14.13-31.5-31.5-31.5z"/>
	<path id="&lt;Path&gt;" class="s3" d="m52.41 75.84c0 0.59-0.48 1.08-1.08 1.08h-24.91c-0.6 0-1.08-0.49-1.08-1.08v-5.03c0-0.6 0.48-1.09 1.08-1.09h24.91c0.6 0 1.08 0.49 1.08 1.09z"/>
	<path id="&lt;Compound Path&gt;" fill-rule="evenodd" class="s2" d="m51.33 78.17h-24.91c-1.29 0-2.33-1.05-2.33-2.33v-5.03c0-1.29 1.04-2.34 2.33-2.34h24.91c1.29 0 2.33 1.05 2.33 2.34v5.03c0 1.28-1.04 2.33-2.33 2.33zm-24.74-2.5h24.57v-4.7h-24.57z"/>
	<path id="&lt;Path&gt;" class="s4" d="m44.85 84.11c0 3.31-2.67 5.98-5.98 5.98-3.3 0-5.97-2.67-5.97-5.98 0-3.3 2.67-5.97 5.97-5.97 3.31 0 5.98 2.67 5.98 5.97z"/>
	<path id="&lt;Compound Path&gt;" fill-rule="evenodd" class="s2" d="m38.87 91.34c-3.98 0-7.22-3.24-7.22-7.23 0-3.98 3.24-7.22 7.22-7.22 3.99 0 7.23 3.24 7.23 7.22 0 3.99-3.24 7.23-7.23 7.23zm0-11.95c-2.6 0-4.72 2.12-4.72 4.72 0 2.61 2.12 4.73 4.72 4.73 2.61 0 4.73-2.12 4.73-4.73 0-2.6-2.12-4.72-4.73-4.72z"/>
	<path id="&lt;Path&gt;" class="s3" d="m52.41 83.03c0 0.6-0.48 1.08-1.08 1.08h-24.91c-0.6 0-1.08-0.48-1.08-1.08v-5.03c0-0.6 0.48-1.08 1.08-1.08h24.91c0.6 0 1.08 0.48 1.08 1.08z"/>
	<path id="&lt;Compound Path&gt;" fill-rule="evenodd" class="s2" d="m51.33 85.36h-24.91c-1.29 0-2.33-1.04-2.33-2.33v-5.03c0-1.28 1.04-2.33 2.33-2.33h24.91c1.29 0 2.33 1.05 2.33 2.33v5.03c0 1.29-1.04 2.33-2.33 2.33zm-24.74-2.5h24.57v-4.69h-24.57z"/>
	<path id="&lt;Path&gt;" class="s2" d="m40.12 68.42h-2.5v-15.34h2.5z"/>
	<path id="&lt;Path&gt;" class="s5" d="m38.87 53.08c0 0-1.83-10.9-16.09-10.7 0 0-1.43 12.63 16.09 10.7z"/>
	<path id="&lt;Compound Path&gt;" fill-rule="evenodd" class="s2" d="m35.42 54.53q0 0 0 0c-5.03 0-8.8-1.36-11.2-4.06-3.17-3.54-2.71-8.04-2.68-8.23 0.07-0.62 0.59-1.1 1.22-1.11h0.41c14.79 0 16.92 11.62 16.94 11.74 0.05 0.34-0.03 0.69-0.24 0.96-0.21 0.28-0.52 0.45-0.86 0.49q-1.89 0.21-3.59 0.21zm-11.4-10.89c0.09 1.28 0.49 3.43 2.08 5.19 1.91 2.12 5.05 3.2 9.32 3.2 0.6 0.05 1.2-0.02 1.84-0.06-0.94-2.58-4.02-8.01-13.24-8.33z"/>
	<path id="&lt;Path&gt;" class="s5" d="m38.87 53.08c0 0 1.84-10.9 16.1-10.7 0 0 1.43 12.63-16.1 10.7z"/>
	<path id="&lt;Compound Path&gt;" fill-rule="evenodd" class="s2" d="m42.33 54.53q-1.7 0-3.59-0.21c-0.35-0.04-0.66-0.21-0.86-0.49-0.21-0.27-0.3-0.62-0.24-0.96 0.02-0.12 2.15-11.74 16.94-11.74h0.41c0.63 0.01 1.15 0.49 1.22 1.11 0.02 0.19 0.49 4.69-2.68 8.23-2.4 2.7-6.17 4.06-11.2 4.06zm-1.83-2.56c5.23 0.34 8.97-0.72 11.15-3.14 1.59-1.76 1.99-3.9 2.07-5.19-9.14 0.32-12.26 5.76-13.22 8.33z"/>
</svg>