<svg version="1.2" xmlns="http://www.w3.org/2000/svg" viewBox="0 0 111 112" width="111" height="112">
	<style>
		.s0 { fill: #3e3a39 } 
		.s1 { fill: #ff576a } 
	</style>
	<path id="&lt;Path&gt;" class="s0" d="m11.4 59.56l-1.59-1.59c-13.25-13.25-13.25-34.81 0-48.05 6.42-6.42 14.95-9.96 24.03-9.96 9.07 0 17.61 3.54 24.02 9.96l1.6 1.59-3.19 3.18-1.59-1.59c-5.57-5.57-12.97-8.64-20.84-8.64-7.88 0-15.28 3.07-20.85 8.64-11.49 11.49-11.49 30.19 0 41.69l1.6 1.59z"/>
	<path id="&lt;Compound Path&gt;" fill-rule="evenodd" class="s1" d="m33.84 56.72c-6.09 0-11.81-2.37-16.11-6.67-4.3-4.3-6.67-10.02-6.67-16.11 0-6.08 2.37-11.8 6.67-16.1 4.3-4.31 10.02-6.68 16.11-6.68 6.08 0 11.8 2.37 16.11 6.68 4.3 4.3 6.67 10.02 6.67 16.1 0 6.09-2.37 11.81-6.67 16.11-4.31 4.3-10.03 6.67-16.11 6.67zm0-41.06c-4.88 0-9.47 1.9-12.93 5.36-3.45 3.45-5.35 8.04-5.35 12.92 0 4.88 1.9 9.47 5.35 12.93 3.46 3.45 8.05 5.35 12.93 5.35 4.88 0 9.47-1.9 12.92-5.35 3.46-3.46 5.36-8.05 5.36-12.93 0-4.88-1.9-9.47-5.36-12.92-3.45-3.46-8.04-5.36-12.92-5.36z"/>
	<path id="&lt;Compound Path&gt;" fill-rule="evenodd" class="s0" d="m33.84 45.52c-3.1 0-6-1.2-8.19-3.39-2.19-2.19-3.39-5.09-3.39-8.19 0-3.09 1.2-6 3.39-8.19 2.19-2.18 5.09-3.39 8.19-3.39 3.09 0 6 1.21 8.19 3.39 4.51 4.52 4.51 11.87 0 16.38-2.19 2.19-5.1 3.39-8.19 3.39zm0-18.66c-1.89 0-3.67 0.74-5.01 2.07-1.34 1.34-2.07 3.12-2.07 5.01 0 1.89 0.73 3.67 2.07 5.01 1.34 1.34 3.12 2.07 5.01 2.07 1.89 0 3.67-0.73 5.01-2.07 2.76-2.76 2.76-7.25 0-10.02-1.34-1.33-3.12-2.07-5.01-2.07z"/>
	<path id="&lt;Compound Path&gt;" class="s0" d="m32.96 67.98l-2.24-0.2q-1.07-0.1-2.13-0.27l-2.22-0.34 0.69-4.45 2.22 0.35q0.92 0.14 1.84 0.22l2.25 0.21zm4.07-0.14l-0.72-4.44 2.23-0.36q0.91-0.14 1.82-0.35l2.19-0.5 1 4.39-2.2 0.5q-1.04 0.23-2.1 0.41zm-14.58-1.81l-2.07-0.89q-0.99-0.42-1.94-0.91l-2.01-1.02 2.04-4.01 2.01 1.02q0.83 0.42 1.68 0.79l2.07 0.89zm24.93-0.85l-2.06-4 2-1.03q0.83-0.42 1.62-0.9l1.94-1.16 2.31 3.87-1.93 1.15q-0.92 0.55-1.88 1.04zm-34.33-4.27l-1.68-1.49q-0.8-0.7-1.56-1.46l-1.59-1.59 3.18-3.19 1.59 1.6q0.67 0.66 1.36 1.27l1.68 1.49zm43.35-1.47l-3.2-3.17 1.58-1.6q0.66-0.66 1.27-1.36l1.48-1.69 3.39 2.96-1.48 1.69q-0.7 0.8-1.46 1.57zm6.8-8.24l-4.02-2.03 1.01-2.01q0.42-0.83 0.78-1.68l0.88-2.07 4.14 1.76-0.88 2.07q-0.42 0.99-0.9 1.94zm3.9-9.95l-4.45-0.67 0.34-2.22q0.14-0.92 0.22-1.85l0.19-2.24 4.48 0.39-0.19 2.24q-0.09 1.07-0.25 2.13zm-3.82-9.93l-0.36-2.22q-0.16-0.92-0.36-1.83l-0.51-2.19 4.38-1.01 0.51 2.19q0.24 1.04 0.42 2.1l0.36 2.22zm-2.25-9l-1.04-1.99q-0.43-0.82-0.91-1.62l-1.16-1.93 3.85-2.33 1.16 1.93q0.56 0.91 1.05 1.87l1.04 1.99z"/>
	<path id="&lt;Path&gt;" class="s1" d="m57.51 70.97l-4.46-0.62 2.08-15.11 15.12-2.09 0.61 4.46-11.74 1.62z"/>
	<path id="&lt;Path&gt;" class="s1" d="m89.92 93.21l-34.88-34.88 3.18-3.18 34.89 34.88z"/>
	<path id="&lt;Compound Path&gt;" fill-rule="evenodd" class="s0" d="m57.01 110.04l-0.86-2.08c-4.05-9.77-4.05-20.53 0-30.29 6.15-14.85 20.51-24.44 36.58-24.44 5.19 0 10.28 1.02 15.12 3.02l2.08 0.86-15.5 37.42zm35.72-52.3c-14.24 0-26.97 8.5-32.42 21.66-3.3 7.96-3.56 16.66-0.8 24.74l31.48-13.04 13.04-31.48c-3.65-1.25-7.44-1.88-11.3-1.88z"/>
</svg>