<svg version="1.2" xmlns="http://www.w3.org/2000/svg" viewBox="0 0 66 98" width="66" height="98">
	<style>
		.s0 { opacity: .9;fill: #ffffff } 
		.s1 { opacity: .9;fill: #333333 } 
		.s2 { opacity: .9;fill: #43aee8 } 
		.s3 { opacity: .9;fill: #ff725d } 
		.s4 { opacity: .9;fill: #cccccc } 
		.s5 { opacity: .9;fill: #f7d959 } 
		.s6 { opacity: .9;fill: #e6e6e6 } 
	</style>
	<path id="&lt;Path&gt;" class="s0" d="m32.87 39.07c-0.38 0-0.74-0.17-0.98-0.46l-1.96-2.43c-0.43-0.54-0.35-1.32 0.19-1.76 0.54-0.43 1.32-0.35 1.76 0.19l0.83 1.03 1.97-3.31c0.35-0.59 1.12-0.79 1.71-0.43 0.6 0.35 0.79 1.12 0.44 1.71l-2.89 4.85c-0.21 0.35-0.58 0.58-0.98 0.61q-0.05 0-0.09 0z"/>
	<path id="&lt;Path&gt;" class="s0" d="m1.32 91.86c0 2.83 2.3 5.13 5.13 5.13h52.83c2.83 0 5.13-2.3 5.13-5.13v-9.99h-63.09z"/>
	<path id="&lt;Compound Path&gt;" fill-rule="evenodd" class="s1" d="m59.28 98.24h-52.83c-3.52 0-6.38-2.87-6.38-6.38v-11.24h65.59v11.24c0 3.51-2.86 6.38-6.38 6.38zm-56.71-15.12v8.74c0 2.14 1.74 3.88 3.88 3.88h52.83c2.14 0 3.88-1.74 3.88-3.88v-8.74z"/>
	<path id="&lt;Path&gt;" class="s0" d="m59.28 2.56h-52.83c-2.83 0-5.13 2.3-5.13 5.13v8.25h63.09v-8.25c0-2.83-2.3-5.13-5.13-5.13z"/>
	<path id="&lt;Compound Path&gt;" fill-rule="evenodd" class="s1" d="m65.66 17.19h-65.59v-9.5c0-3.51 2.86-6.38 6.38-6.38h52.83c3.52 0 6.38 2.87 6.38 6.38zm-63.09-2.5h60.59v-6.99c0-2.14-1.74-3.88-3.88-3.88h-52.83c-2.14 0-3.88 1.74-3.88 3.88z"/>
	<path id="&lt;Path&gt;" class="s0" d="m1.32 81.87h63.09v-65.93h-63.09z"/>
	<path id="&lt;Path&gt;" class="s2" d="m1.32 52.93h63.09v-36.99h-63.09z"/>
	<path id="&lt;Compound Path&gt;" fill-rule="evenodd" class="s1" d="m65.66 83.12h-65.59v-68.43h65.59zm-63.09-2.5h60.59v-63.43h-60.59z"/>
	<path id="&lt;Path&gt;" class="s3" d="m36.18 89.43c0 1.83-1.49 3.31-3.31 3.31-1.83 0-3.32-1.48-3.32-3.31 0-1.83 1.49-3.31 3.32-3.31 1.82 0 3.31 1.48 3.31 3.31z"/>
	<path id="&lt;Path&gt;" class="s4" d="m39.76 9.25c0 0.75-0.61 1.36-1.36 1.36h-11.07c-0.75 0-1.36-0.61-1.36-1.36 0-0.75 0.61-1.36 1.36-1.36h11.07c0.75 0 1.36 0.61 1.36 1.36z"/>
	<path id="&lt;Path&gt;" class="s0" d="m32.59 39.66c-0.38 0-0.74-0.16-0.97-0.46l-2.31-2.85c-0.43-0.54-0.35-1.32 0.19-1.76 0.53-0.43 1.32-0.35 1.75 0.19l1.18 1.45 2.48-4.15c0.35-0.6 1.12-0.79 1.71-0.44 0.59 0.35 0.79 1.12 0.44 1.72l-3.4 5.69c-0.21 0.36-0.58 0.58-0.98 0.61q-0.05 0-0.09 0z"/>
	<path id="&lt;Compound Path&gt;" fill-rule="evenodd" class="s0" d="m33.43 45.92q-0.43 0.12-0.46 0.12-0.03 0.01-0.05 0.01-0.02 0-0.05 0-0.03 0-0.06 0-0.02 0-0.04-0.01-0.03 0-0.46-0.12c-1.4-0.39-5.66-1.75-7.82-4.26q-0.1-0.13-0.11-0.3l-0.5-6.61-0.52-6.88q0-0.07 0.02-0.13 0.01-0.08 0.04-0.14 0.03-0.06 0.07-0.11 0.13-0.13 0.3-0.15 0.03-0.01 0.07-0.02c0.05 0 5.3-0.06 8.59-4.3q0.03-0.04 0.07-0.07 0.13-0.11 0.3-0.13 0.02 0 0.05 0 0.02 0 0.04 0 0.17 0.02 0.31 0.13 0.03 0.03 0.06 0.07c3.29 4.24 8.54 4.3 8.59 4.3q0.04 0.01 0.07 0.02 0.18 0.02 0.3 0.15 0.04 0.05 0.07 0.11 0.03 0.06 0.05 0.14 0.01 0.06 0.01 0.13l-0.51 6.88-0.5 6.61q-0.01 0.17-0.12 0.3c-2.15 2.51-6.42 3.87-7.81 4.26zm5.97-16.02c0 0-1.41-0.01-3.09-0.69-1.32-0.54-2.51-1.41-3.4-2.53q-0.02-0.02-0.03-0.04-0.05 0.02-0.06 0.04c-1.02 1.32-2.48 2.27-4.06 2.77-0.13 0.04-2.41 0.59-2.42 0.45l0.01 0.15 0.01 0.17 0.63 8.43c0.01 0 0.08 1.04 0.08 1.04 0.01 0.13 0.41 0.54 1.03 0.96 1.41 0.95 3.07 1.71 4.72 2.09 0.11-0.01 0.24-0.04 0.27-0.05q0.53-0.14 1.04-0.31c1.21-0.41 2.41-0.96 3.45-1.72q0.29-0.21 0.57-0.46c0.1-0.09 0.5-0.37 0.51-0.51l0.08-1.04c0 0 0.63-8.43 0.63-8.43l0.01-0.17z"/>
	<path id="&lt;Path&gt;" class="s5" d="m11.82 60.86h-3.1v-3.1h3.1z"/>
	<path id="&lt;Path&gt;" class="s5" d="m11.82 65.76h-3.1v-3.1h3.1z"/>
	<path id="&lt;Path&gt;" class="s5" d="m11.82 70.66h-3.1v-3.1h3.1z"/>
	<path id="&lt;Path&gt;" class="s5" d="m11.82 75.56h-3.1v-3.1h3.1z"/>
	<path id="&lt;Path&gt;" class="s6" d="m57.01 60.32h-43.21v-2.03h43.21z"/>
	<path id="&lt;Path&gt;" class="s6" d="m57.01 65.23h-43.21v-2.04h43.21z"/>
	<path id="&lt;Path&gt;" class="s6" d="m57.01 70.13h-43.21v-2.04h43.21z"/>
	<path id="&lt;Path&gt;" class="s6" d="m57.01 75.03h-43.21v-2.03h43.21z"/>
	<path id="&lt;Path&gt; copy" class="s0" d="m33.87 39.07c-0.38 0-0.74-0.17-0.98-0.46l-1.96-2.43c-0.43-0.54-0.35-1.32 0.19-1.76 0.54-0.43 1.32-0.35 1.76 0.19l0.83 1.03 1.97-3.31c0.35-0.59 1.12-0.79 1.71-0.43 0.6 0.35 0.79 1.12 0.44 1.71l-2.89 4.85c-0.21 0.35-0.58 0.58-0.98 0.61q-0.05 0-0.09 0z"/>
	<path id="&lt;Path&gt; copy 2" class="s0" d="m2.32 91.86c0 2.83 2.3 5.13 5.13 5.13h52.83c2.83 0 5.13-2.3 5.13-5.13v-9.99h-63.09z"/>
	<path id="&lt;Compound Path&gt; copy" fill-rule="evenodd" class="s1" d="m60.28 98.24h-52.83c-3.52 0-6.38-2.87-6.38-6.38v-11.24h65.59v11.24c0 3.51-2.86 6.38-6.38 6.38zm-56.71-15.12v8.74c0 2.14 1.74 3.88 3.88 3.88h52.83c2.14 0 3.88-1.74 3.88-3.88v-8.74z"/>
	<path id="&lt;Path&gt; copy 3" class="s0" d="m60.28 2.56h-52.83c-2.83 0-5.13 2.3-5.13 5.13v8.25h63.09v-8.25c0-2.83-2.3-5.13-5.13-5.13z"/>
	<path id="&lt;Compound Path&gt; copy 2" fill-rule="evenodd" class="s1" d="m66.66 17.19h-65.59v-9.5c0-3.51 2.86-6.38 6.38-6.38h52.83c3.52 0 6.38 2.87 6.38 6.38zm-63.09-2.5h60.59v-6.99c0-2.14-1.74-3.88-3.88-3.88h-52.83c-2.14 0-3.88 1.74-3.88 3.88z"/>
	<path id="&lt;Path&gt; copy 4" class="s0" d="m2.32 81.87h63.09v-65.93h-63.09z"/>
	<path id="&lt;Path&gt; copy 5" class="s2" d="m2.32 52.93h63.09v-36.99h-63.09z"/>
	<path id="&lt;Compound Path&gt; copy 3" fill-rule="evenodd" class="s1" d="m66.66 83.12h-65.59v-68.43h65.59zm-63.09-2.5h60.59v-63.43h-60.59z"/>
	<path id="&lt;Path&gt; copy 6" class="s3" d="m37.18 89.43c0 1.83-1.49 3.31-3.31 3.31-1.83 0-3.32-1.48-3.32-3.31 0-1.83 1.49-3.31 3.32-3.31 1.82 0 3.31 1.48 3.31 3.31z"/>
	<path id="&lt;Path&gt; copy 7" class="s4" d="m40.76 9.25c0 0.75-0.61 1.36-1.36 1.36h-11.07c-0.75 0-1.36-0.61-1.36-1.36 0-0.75 0.61-1.36 1.36-1.36h11.07c0.75 0 1.36 0.61 1.36 1.36z"/>
	<path id="&lt;Path&gt; copy 8" class="s0" d="m33.59 39.66c-0.38 0-0.74-0.16-0.97-0.46l-2.31-2.85c-0.43-0.54-0.35-1.32 0.19-1.76 0.53-0.43 1.32-0.35 1.75 0.19l1.18 1.45 2.48-4.15c0.35-0.6 1.12-0.79 1.71-0.44 0.59 0.35 0.79 1.12 0.44 1.72l-3.4 5.69c-0.21 0.36-0.58 0.58-0.98 0.61q-0.05 0-0.09 0z"/>
	<path id="&lt;Compound Path&gt; copy 4" fill-rule="evenodd" class="s0" d="m34.43 45.92q-0.43 0.12-0.46 0.12-0.03 0.01-0.05 0.01-0.02 0-0.05 0-0.03 0-0.06 0-0.02 0-0.04-0.01-0.03 0-0.46-0.12c-1.4-0.39-5.66-1.75-7.82-4.26q-0.1-0.13-0.11-0.3l-0.5-6.61-0.52-6.88q0-0.07 0.02-0.13 0.01-0.08 0.04-0.14 0.03-0.06 0.07-0.11 0.13-0.13 0.3-0.15 0.03-0.01 0.07-0.02c0.05 0 5.3-0.06 8.59-4.3q0.03-0.04 0.07-0.07 0.13-0.11 0.3-0.13 0.02 0 0.05 0 0.02 0 0.04 0 0.17 0.02 0.31 0.13 0.03 0.03 0.06 0.07c3.29 4.24 8.54 4.3 8.59 4.3q0.04 0.01 0.07 0.02 0.18 0.02 0.3 0.15 0.04 0.05 0.07 0.11 0.03 0.06 0.05 0.14 0.01 0.06 0.01 0.13l-0.51 6.88-0.5 6.61q-0.01 0.17-0.12 0.3c-2.15 2.51-6.42 3.87-7.81 4.26zm5.97-16.02c0 0-1.41-0.01-3.09-0.69-1.32-0.54-2.51-1.41-3.4-2.53q-0.02-0.02-0.03-0.04-0.05 0.02-0.06 0.04c-1.02 1.32-2.48 2.27-4.06 2.77-0.13 0.04-2.41 0.59-2.42 0.45l0.01 0.15 0.01 0.17 0.63 8.43c0.01 0 0.08 1.04 0.08 1.04 0.01 0.13 0.41 0.54 1.03 0.96 1.41 0.95 3.07 1.71 4.72 2.09 0.11-0.01 0.24-0.04 0.27-0.05q0.53-0.14 1.04-0.31c1.21-0.41 2.41-0.96 3.45-1.72q0.29-0.21 0.57-0.46c0.1-0.09 0.5-0.37 0.51-0.51l0.08-1.04c0 0 0.63-8.43 0.63-8.43l0.01-0.17z"/>
	<path id="&lt;Path&gt; copy 9" class="s5" d="m12.82 60.86h-3.1v-3.1h3.1z"/>
	<path id="&lt;Path&gt; copy 10" class="s5" d="m12.82 65.76h-3.1v-3.1h3.1z"/>
	<path id="&lt;Path&gt; copy 11" class="s5" d="m12.82 70.66h-3.1v-3.1h3.1z"/>
	<path id="&lt;Path&gt; copy 12" class="s5" d="m12.82 75.56h-3.1v-3.1h3.1z"/>
	<path id="&lt;Path&gt; copy 13" class="s6" d="m58.01 60.32h-43.21v-2.03h43.21z"/>
	<path id="&lt;Path&gt; copy 14" class="s6" d="m58.01 65.23h-43.21v-2.04h43.21z"/>
	<path id="&lt;Path&gt; copy 15" class="s6" d="m58.01 70.13h-43.21v-2.04h43.21z"/>
	<path id="&lt;Path&gt; copy 16" class="s6" d="m58.01 75.03h-43.21v-2.03h43.21z"/>
	<path id="&lt;Path&gt; copy 17" class="s0" d="m32.87 39.07c-0.38 0-0.74-0.17-0.98-0.46l-1.96-2.43c-0.43-0.54-0.35-1.32 0.19-1.76 0.54-0.43 1.32-0.35 1.76 0.19l0.83 1.03 1.97-3.31c0.35-0.59 1.12-0.79 1.71-0.43 0.6 0.35 0.79 1.12 0.44 1.71l-2.89 4.85c-0.21 0.35-0.58 0.58-0.98 0.61q-0.05 0-0.09 0z"/>
	<path id="&lt;Path&gt; copy 18" class="s0" d="m1.32 91.86c0 2.83 2.3 5.13 5.13 5.13h52.83c2.83 0 5.13-2.3 5.13-5.13v-9.99h-63.09z"/>
	<path id="&lt;Compound Path&gt; copy 5" fill-rule="evenodd" class="s1" d="m59.28 98.24h-52.83c-3.52 0-6.38-2.87-6.38-6.38v-11.24h65.59v11.24c0 3.51-2.86 6.38-6.38 6.38zm-56.71-15.12v8.74c0 2.14 1.74 3.88 3.88 3.88h52.83c2.14 0 3.88-1.74 3.88-3.88v-8.74z"/>
	<path id="&lt;Path&gt; copy 19" class="s0" d="m59.28 2.56h-52.83c-2.83 0-5.13 2.3-5.13 5.13v8.25h63.09v-8.25c0-2.83-2.3-5.13-5.13-5.13z"/>
	<path id="&lt;Compound Path&gt; copy 6" fill-rule="evenodd" class="s1" d="m65.66 17.19h-65.59v-9.5c0-3.51 2.86-6.38 6.38-6.38h52.83c3.52 0 6.38 2.87 6.38 6.38zm-63.09-2.5h60.59v-6.99c0-2.14-1.74-3.88-3.88-3.88h-52.83c-2.14 0-3.88 1.74-3.88 3.88z"/>
	<path id="&lt;Path&gt; copy 20" class="s0" d="m1.32 81.87h63.09v-65.93h-63.09z"/>
	<path id="&lt;Path&gt; copy 21" class="s2" d="m1.32 52.93h63.09v-36.99h-63.09z"/>
	<path id="&lt;Compound Path&gt; copy 7" fill-rule="evenodd" class="s1" d="m65.66 83.12h-65.59v-68.43h65.59zm-63.09-2.5h60.59v-63.43h-60.59z"/>
	<path id="&lt;Path&gt; copy 22" class="s3" d="m36.18 89.43c0 1.83-1.49 3.31-3.31 3.31-1.83 0-3.32-1.48-3.32-3.31 0-1.83 1.49-3.31 3.32-3.31 1.82 0 3.31 1.48 3.31 3.31z"/>
	<path id="&lt;Path&gt; copy 23" class="s4" d="m39.76 9.25c0 0.75-0.61 1.36-1.36 1.36h-11.07c-0.75 0-1.36-0.61-1.36-1.36 0-0.75 0.61-1.36 1.36-1.36h11.07c0.75 0 1.36 0.61 1.36 1.36z"/>
	<path id="&lt;Path&gt; copy 24" class="s0" d="m32.59 39.66c-0.38 0-0.74-0.16-0.97-0.46l-2.31-2.85c-0.43-0.54-0.35-1.32 0.19-1.76 0.53-0.43 1.32-0.35 1.75 0.19l1.18 1.45 2.48-4.15c0.35-0.6 1.12-0.79 1.71-0.44 0.59 0.35 0.79 1.12 0.44 1.72l-3.4 5.69c-0.21 0.36-0.58 0.58-0.98 0.61q-0.05 0-0.09 0z"/>
	<path id="&lt;Compound Path&gt; copy 8" fill-rule="evenodd" class="s0" d="m33.43 45.92q-0.43 0.12-0.46 0.12-0.03 0.01-0.05 0.01-0.02 0-0.05 0-0.03 0-0.06 0-0.02 0-0.04-0.01-0.03 0-0.46-0.12c-1.4-0.39-5.66-1.75-7.82-4.26q-0.1-0.13-0.11-0.3l-0.5-6.61-0.52-6.88q0-0.07 0.02-0.13 0.01-0.08 0.04-0.14 0.03-0.06 0.07-0.11 0.13-0.13 0.3-0.15 0.03-0.01 0.07-0.02c0.05 0 5.3-0.06 8.59-4.3q0.03-0.04 0.07-0.07 0.13-0.11 0.3-0.13 0.02 0 0.05 0 0.02 0 0.04 0 0.17 0.02 0.31 0.13 0.03 0.03 0.06 0.07c3.29 4.24 8.54 4.3 8.59 4.3q0.04 0.01 0.07 0.02 0.18 0.02 0.3 0.15 0.04 0.05 0.07 0.11 0.03 0.06 0.05 0.14 0.01 0.06 0.01 0.13l-0.51 6.88-0.5 6.61q-0.01 0.17-0.12 0.3c-2.15 2.51-6.42 3.87-7.81 4.26zm5.97-16.02c0 0-1.41-0.01-3.09-0.69-1.32-0.54-2.51-1.41-3.4-2.53q-0.02-0.02-0.03-0.04-0.05 0.02-0.06 0.04c-1.02 1.32-2.48 2.27-4.06 2.77-0.13 0.04-2.41 0.59-2.42 0.45l0.01 0.15 0.01 0.17 0.63 8.43c0.01 0 0.08 1.04 0.08 1.04 0.01 0.13 0.41 0.54 1.03 0.96 1.41 0.95 3.07 1.71 4.72 2.09 0.11-0.01 0.24-0.04 0.27-0.05q0.53-0.14 1.04-0.31c1.21-0.41 2.41-0.96 3.45-1.72q0.29-0.21 0.57-0.46c0.1-0.09 0.5-0.37 0.51-0.51l0.08-1.04c0 0 0.63-8.43 0.63-8.43l0.01-0.17z"/>
	<path id="&lt;Path&gt; copy 25" class="s5" d="m11.82 60.86h-3.1v-3.1h3.1z"/>
	<path id="&lt;Path&gt; copy 26" class="s5" d="m11.82 65.76h-3.1v-3.1h3.1z"/>
	<path id="&lt;Path&gt; copy 27" class="s5" d="m11.82 70.66h-3.1v-3.1h3.1z"/>
	<path id="&lt;Path&gt; copy 28" class="s5" d="m11.82 75.56h-3.1v-3.1h3.1z"/>
	<path id="&lt;Path&gt; copy 29" class="s6" d="m57.01 60.32h-43.21v-2.03h43.21z"/>
	<path id="&lt;Path&gt; copy 30" class="s6" d="m57.01 65.23h-43.21v-2.04h43.21z"/>
	<path id="&lt;Path&gt; copy 31" class="s6" d="m57.01 70.13h-43.21v-2.04h43.21z"/>
	<path id="&lt;Path&gt; copy 32" class="s6" d="m57.01 75.03h-43.21v-2.03h43.21z"/>
	<path id="&lt;Path&gt; copy 33" class="s0" d="m32.87 38.07c-0.38 0-0.74-0.17-0.98-0.46l-1.96-2.43c-0.43-0.54-0.35-1.32 0.19-1.76 0.54-0.43 1.32-0.35 1.76 0.19l0.83 1.03 1.97-3.31c0.35-0.59 1.12-0.79 1.71-0.43 0.6 0.35 0.79 1.12 0.44 1.71l-2.89 4.85c-0.21 0.35-0.58 0.58-0.98 0.61q-0.05 0-0.09 0z"/>
	<path id="&lt;Path&gt; copy 34" class="s0" d="m1.32 90.86c0 2.83 2.3 5.13 5.13 5.13h52.83c2.83 0 5.13-2.3 5.13-5.13v-9.99h-63.09z"/>
	<path id="&lt;Compound Path&gt; copy 9" fill-rule="evenodd" class="s1" d="m59.28 97.24h-52.83c-3.52 0-6.38-2.87-6.38-6.38v-11.24h65.59v11.24c0 3.51-2.86 6.38-6.38 6.38zm-56.71-15.12v8.74c0 2.14 1.74 3.88 3.88 3.88h52.83c2.14 0 3.88-1.74 3.88-3.88v-8.74z"/>
	<path id="&lt;Path&gt; copy 35" class="s0" d="m59.28 1.56h-52.83c-2.83 0-5.13 2.3-5.13 5.13v8.25h63.09v-8.25c0-2.83-2.3-5.13-5.13-5.13z"/>
	<path id="&lt;Compound Path&gt; copy 10" fill-rule="evenodd" class="s1" d="m65.66 16.19h-65.59v-9.5c0-3.51 2.86-6.38 6.38-6.38h52.83c3.52 0 6.38 2.87 6.38 6.38zm-63.09-2.5h60.59v-6.99c0-2.14-1.74-3.88-3.88-3.88h-52.83c-2.14 0-3.88 1.74-3.88 3.88z"/>
	<path id="&lt;Path&gt; copy 36" class="s0" d="m1.32 80.87h63.09v-65.93h-63.09z"/>
	<path id="&lt;Path&gt; copy 37" class="s2" d="m1.32 51.93h63.09v-36.99h-63.09z"/>
	<path id="&lt;Compound Path&gt; copy 11" fill-rule="evenodd" class="s1" d="m65.66 82.12h-65.59v-68.43h65.59zm-63.09-2.5h60.59v-63.43h-60.59z"/>
	<path id="&lt;Path&gt; copy 38" class="s3" d="m36.18 88.43c0 1.83-1.49 3.31-3.31 3.31-1.83 0-3.32-1.48-3.32-3.31 0-1.83 1.49-3.31 3.32-3.31 1.82 0 3.31 1.48 3.31 3.31z"/>
	<path id="&lt;Path&gt; copy 39" class="s4" d="m39.76 8.25c0 0.75-0.61 1.36-1.36 1.36h-11.07c-0.75 0-1.36-0.61-1.36-1.36 0-0.75 0.61-1.36 1.36-1.36h11.07c0.75 0 1.36 0.61 1.36 1.36z"/>
	<path id="&lt;Path&gt; copy 40" class="s0" d="m32.59 38.66c-0.38 0-0.74-0.16-0.97-0.46l-2.31-2.85c-0.43-0.54-0.35-1.32 0.19-1.76 0.53-0.43 1.32-0.35 1.75 0.19l1.18 1.45 2.48-4.15c0.35-0.6 1.12-0.79 1.71-0.44 0.59 0.35 0.79 1.12 0.44 1.72l-3.4 5.69c-0.21 0.36-0.58 0.58-0.98 0.61q-0.05 0-0.09 0z"/>
	<path id="&lt;Compound Path&gt; copy 12" fill-rule="evenodd" class="s0" d="m33.43 44.92q-0.43 0.12-0.46 0.12-0.03 0.01-0.05 0.01-0.02 0-0.05 0-0.03 0-0.06 0-0.02 0-0.04-0.01-0.03 0-0.46-0.12c-1.4-0.39-5.66-1.75-7.82-4.26q-0.1-0.13-0.11-0.3l-0.5-6.61-0.52-6.88q0-0.07 0.02-0.13 0.01-0.08 0.04-0.14 0.03-0.06 0.07-0.11 0.13-0.13 0.3-0.15 0.03-0.01 0.07-0.02c0.05 0 5.3-0.06 8.59-4.3q0.03-0.04 0.07-0.07 0.13-0.11 0.3-0.13 0.02 0 0.05 0 0.02 0 0.04 0 0.17 0.02 0.31 0.13 0.03 0.03 0.06 0.07c3.29 4.24 8.54 4.3 8.59 4.3q0.04 0.01 0.07 0.02 0.18 0.02 0.3 0.15 0.04 0.05 0.07 0.11 0.03 0.06 0.05 0.14 0.01 0.06 0.01 0.13l-0.51 6.88-0.5 6.61q-0.01 0.17-0.12 0.3c-2.15 2.51-6.42 3.87-7.81 4.26zm5.97-16.02c0 0-1.41-0.01-3.09-0.69-1.32-0.54-2.51-1.41-3.4-2.53q-0.02-0.02-0.03-0.04-0.05 0.02-0.06 0.04c-1.02 1.32-2.48 2.27-4.06 2.77-0.13 0.04-2.41 0.59-2.42 0.45l0.01 0.15 0.01 0.17 0.63 8.43c0.01 0 0.08 1.04 0.08 1.04 0.01 0.13 0.41 0.54 1.03 0.96 1.41 0.95 3.07 1.71 4.72 2.09 0.11-0.01 0.24-0.04 0.27-0.05q0.53-0.14 1.04-0.31c1.21-0.41 2.41-0.96 3.45-1.72q0.29-0.21 0.57-0.46c0.1-0.09 0.5-0.37 0.51-0.51l0.08-1.04c0 0 0.63-8.43 0.63-8.43l0.01-0.17z"/>
	<path id="&lt;Path&gt; copy 41" class="s5" d="m11.82 59.86h-3.1v-3.1h3.1z"/>
	<path id="&lt;Path&gt; copy 42" class="s5" d="m11.82 64.76h-3.1v-3.1h3.1z"/>
	<path id="&lt;Path&gt; copy 43" class="s5" d="m11.82 69.66h-3.1v-3.1h3.1z"/>
	<path id="&lt;Path&gt; copy 44" class="s5" d="m11.82 74.56h-3.1v-3.1h3.1z"/>
	<path id="&lt;Path&gt; copy 45" class="s6" d="m57.01 59.32h-43.21v-2.03h43.21z"/>
	<path id="&lt;Path&gt; copy 46" class="s6" d="m57.01 64.23h-43.21v-2.04h43.21z"/>
	<path id="&lt;Path&gt; copy 47" class="s6" d="m57.01 69.13h-43.21v-2.04h43.21z"/>
	<path id="&lt;Path&gt; copy 48" class="s6" d="m57.01 74.03h-43.21v-2.03h43.21z"/>
</svg>