<svg version="1.2" xmlns="http://www.w3.org/2000/svg" viewBox="0 0 112 107" width="112" height="107">
	<style>
		.s0 { fill: #3e3a39 } 
		.s1 { fill: #ff576a } 
	</style>
	<path id="&lt;Path&gt;" class="s0" d="m367.42 473.8h-36.72c-9.83 0-17.84-8-17.84-17.84 0-9.84 8.01-17.84 17.84-17.84h58.09v4.5h-58.09c-7.35 0-13.34 5.98-13.34 13.34 0 7.36 5.99 13.34 13.34 13.34h36.72z"/>
	<path id="&lt;Path&gt;" class="s0" d="m403.04 504.99h-58.09v-4.5h58.09c7.36 0 13.34-5.99 13.34-13.34 0-7.36-5.98-13.35-13.34-13.35h-26.45v-4.5h26.45c9.84 0 17.84 8.01 17.84 17.85 0 9.83-8 17.84-17.84 17.84z"/>
	<path id="&lt;Path&gt;" class="s0" d="m404.67 450.6h-8.16c-5.14 0-9.32-4.19-9.32-9.32 0-4.37 3.02-8.04 7.07-9.05v-27.29h4.5v31.51h-2.25c-2.65 0-4.82 2.17-4.82 4.83 0 2.65 2.17 4.82 4.82 4.82h8.16c2.66 0 4.82-2.17 4.82-4.82 0-2.66-2.16-4.83-4.82-4.83h-2.25v-4.5h2.25c5.14 0 9.32 4.19 9.32 9.33 0 5.13-4.18 9.32-9.32 9.32z"/>
	<path id="&lt;Path&gt;" class="s1" d="m423.36 425.21h-21.04v-4.5h14.31l-2.34-5.63 2.34-5.64h-14.31v-4.5h21.04l-4.2 10.14z"/>
	<path id="&lt;Compound Path&gt;" fill-rule="evenodd" class="s0" d="m340.84 510.63c-4.36 0-7.91-3.55-7.91-7.92 0-4.36 3.55-7.91 7.91-7.91 4.37 0 7.92 3.55 7.92 7.91 0 4.37-3.55 7.92-7.92 7.92zm0-11.33c-1.88 0-3.41 1.53-3.41 3.41 0 1.89 1.53 3.42 3.41 3.42 1.89 0 3.42-1.53 3.42-3.42 0-1.88-1.53-3.41-3.42-3.41z"/>
	<path id="&lt;Compound Path&gt;" fill-rule="evenodd" class="s0" d="m371.84 478.96c-4.18 0-7.58-3.4-7.58-7.58 0-4.18 3.4-7.58 7.58-7.58 4.18 0 7.58 3.4 7.58 7.58 0 4.18-3.4 7.58-7.58 7.58zm0-10.66c-1.7 0-3.08 1.38-3.08 3.08 0 1.7 1.38 3.08 3.08 3.08 1.7 0 3.08-1.38 3.08-3.08 0-1.7-1.38-3.08-3.08-3.08z"/>
	<path id="&lt;Path&gt;" class="s0" d="m54.42 69.8h-36.72c-9.83 0-17.84-8-17.84-17.84 0-9.84 8.01-17.84 17.84-17.84h58.09v4.5h-58.09c-7.35 0-13.34 5.98-13.34 13.34 0 7.36 5.99 13.34 13.34 13.34h36.72z"/>
	<path id="&lt;Path&gt;" class="s0" d="m90.04 100.99h-58.09v-4.5h58.09c7.36 0 13.34-5.99 13.34-13.34 0-7.36-5.98-13.35-13.34-13.35h-26.45v-4.5h26.45c9.84 0 17.84 8.01 17.84 17.85 0 9.83-8 17.84-17.84 17.84z"/>
	<path id="&lt;Path&gt;" class="s0" d="m91.67 46.6h-8.16c-5.14 0-9.32-4.18-9.32-9.32 0-4.37 3.02-8.04 7.07-9.05v-27.29h4.5v31.51h-2.25c-2.65 0-4.82 2.17-4.82 4.83 0 2.65 2.17 4.82 4.82 4.82h8.16c2.66 0 4.82-2.17 4.82-4.82 0-2.66-2.16-4.83-4.82-4.83h-2.25v-4.5h2.25c5.14 0 9.32 4.19 9.32 9.33 0 5.14-4.18 9.32-9.32 9.32z"/>
	<path id="&lt;Path&gt;" class="s1" d="m110.36 21.21h-21.04v-4.5h14.31l-2.34-5.63 2.34-5.64h-14.31v-4.5h21.04l-4.2 10.14z"/>
	<path id="&lt;Compound Path&gt;" fill-rule="evenodd" class="s0" d="m27.84 106.63c-4.36 0-7.91-3.55-7.91-7.92 0-4.36 3.55-7.91 7.91-7.91 4.37 0 7.92 3.55 7.92 7.91 0 4.37-3.55 7.92-7.92 7.92zm0-11.33c-1.88 0-3.41 1.53-3.41 3.41 0 1.89 1.53 3.42 3.41 3.42 1.89 0 3.42-1.53 3.42-3.42 0-1.88-1.53-3.41-3.42-3.41z"/>
	<path id="&lt;Compound Path&gt;" fill-rule="evenodd" class="s0" d="m58.84 74.96c-4.18 0-7.58-3.4-7.58-7.58 0-4.18 3.4-7.58 7.58-7.58 4.18 0 7.58 3.4 7.58 7.58 0 4.18-3.4 7.58-7.58 7.58zm0-10.66c-1.7 0-3.08 1.38-3.08 3.08 0 1.7 1.38 3.08 3.08 3.08 1.7 0 3.08-1.38 3.08-3.08 0-1.7-1.38-3.08-3.08-3.08z"/>
</svg>