<svg version="1.2" xmlns="http://www.w3.org/2000/svg" viewBox="0 0 89 93" width="89" height="93">
	<style>
		.s0 { opacity: .9;fill: #ffffff } 
		.s1 { opacity: .9;fill: #ff725d } 
		.s2 { opacity: .9;fill: #333333 } 
		.s3 { opacity: .9;fill: #f7d959 } 
		.s4 { opacity: .9;fill: #87b570 } 
	</style>
	<path id="&lt;Path&gt;" class="s0" d="m79.64 68.66c0.76 1.44 2.98 2.88 4.62 2.76 0.88-0.07 1.57-0.52 2.19-1.11-1.11 5.49-3.71 8.36-6.74 8.36-2.6 0-4.88-2.12-6.18-6.19 2.75 0.35 4.83-1.4 6.11-3.82z"/>
	<path id="&lt;Path&gt;" class="s1" d="m79.71 46.66c4.04 0 7.31 7.77 7.31 17.35q-0.01 3.58-0.57 6.3c-0.62 0.59-1.31 1.04-2.19 1.11-1.64 0.12-3.86-1.32-4.62-2.76-1.28 2.42-3.36 4.17-6.11 3.82-0.71-2.24-1.13-5.06-1.13-8.47 0-9.58 3.27-17.35 7.31-17.35z"/>
	<path id="&lt;Path&gt;" class="s0" d="m16.91 68.66c-0.77 1.44-2.99 2.88-4.63 2.76-0.88-0.07-1.57-0.52-2.19-1.11 1.11 5.49 3.71 8.36 6.74 8.36 2.61 0 4.88-2.12 6.18-6.19-2.75 0.35-4.82-1.4-6.1-3.82z"/>
	<path id="&lt;Path&gt;" class="s1" d="m16.83 46.66c-4.04 0-7.31 7.77-7.31 17.35q0.01 3.58 0.57 6.3c0.62 0.59 1.31 1.04 2.19 1.11 1.64 0.12 3.86-1.32 4.63-2.76 1.28 2.42 3.35 4.17 6.1 3.82 0.71-2.24 1.13-5.06 1.13-8.47 0-9.58-3.27-17.35-7.31-17.35z"/>
	<path id="&lt;Compound Path&gt;" fill-rule="evenodd" class="s2" d="m79.71 79.92c-5.2 0-8.56-6.25-8.56-15.91 0-10.6 3.68-18.6 8.56-18.6 4.88 0 8.56 8 8.56 18.6 0 9.66-3.36 15.91-8.56 15.91zm0-32.01c-2.87 0-6.06 6.61-6.06 16.1 0 9.26 3.04 13.41 6.06 13.41 3.02 0 6.06-4.15 6.06-13.41 0-9.49-3.19-16.1-6.06-16.1z"/>
	<path id="&lt;Compound Path&gt;" fill-rule="evenodd" class="s2" d="m16.83 79.92c-5.2 0-8.56-6.25-8.56-15.91 0-10.6 3.68-18.6 8.56-18.6 4.88 0 8.56 8 8.56 18.6 0 9.66-3.36 15.91-8.56 15.91zm0-32.01c-2.86 0-6.06 6.61-6.06 16.1 0 9.26 3.05 13.41 6.06 13.41 3.02 0 6.06-4.15 6.06-13.41 0-9.49-3.19-16.1-6.06-16.1z"/>
	<path id="&lt;Path&gt;" class="s1" d="m79.54 49.66c0 0-0.12-26.37-0.12-26.55-0.01-1.72-0.98-2.9-2.73-2.6-8.22 1.4-16.44 2.8-24.68 4.12q-1.84-0.2-3.74-0.2-1.9 0-3.74 0.2c-8.24-1.32-16.45-2.72-24.67-4.12-1.76-0.3-2.73 0.88-2.74 2.6 0 0.18-0.12 26.55-0.12 26.55q0 0.59 0.13 1.05-0.12 1.36-0.13 2.76v6.44c0 23.38 14 24.38 31.27 24.38 17.27 0 31.27 0 31.27-24.38v-6.44q0-1.4-0.13-2.76 0.13-0.46 0.13-1.05z"/>
	<path id="&lt;Compound Path&gt;" fill-rule="evenodd" class="s2" d="m48.27 85.54c-15.24 0-32.52 0-32.52-25.63v-6.44q0-1.28 0.12-2.66-0.12-0.55-0.12-1.16c0 0 0.12-26.28 0.12-26.54 0.01-2.33 1.4-3.9 3.46-3.9q0.35 0 0.74 0.07c8.01 1.36 16.3 2.78 24.5 4.09 2.49-0.25 4.9-0.25 7.41 0 8.21-1.32 16.49-2.73 24.5-4.09 2.49-0.43 4.18 1.23 4.19 3.82 0 0.27 0.12 26.55 0.12 26.55q0 0.61-0.12 1.16 0.12 1.35 0.12 2.66v6.44c0 25.63-15.07 25.63-32.52 25.63zm-28.94-63.83q-0.95 0.01-0.96 1.4c0 0.18-0.12 26.55-0.12 26.55q0 0.4 0.09 0.73l0.06 0.21-0.02 0.22q-0.13 1.39-0.13 2.65v6.44c0 21.52 11.89 23.13 30.02 23.13 17.43 0 30.02 0 30.02-23.13v-6.44q0-1.29-0.13-2.64l-0.02-0.23 0.06-0.22q0.09-0.32 0.09-0.72c0 0-0.12-26.37-0.12-26.55-0.01-1.07-0.47-1.5-1.27-1.37-8.07 1.38-16.42 2.8-24.69 4.12l-0.16 0.03-0.16-0.02c-2.45-0.25-4.8-0.25-7.23 0l-0.16 0.02-0.17-0.03c-8.26-1.32-16.61-2.74-24.68-4.12q-0.17-0.03-0.32-0.03z"/>
	<path id="&lt;Path&gt;" class="s0" d="m38.68 48.54q-0.05 0.49-0.05 1c0 5.32 4.32 9.64 9.64 9.64 5.33 0 9.64-4.32 9.64-9.64q0-0.51-0.05-1z"/>
	<path id="&lt;Path&gt;" class="s0" d="m47.89 41.51c0 6.82-5.53 12.35-12.35 12.35-6.82 0-12.35-5.53-12.35-12.35 0-6.82 5.53-12.35 12.35-12.35 6.82 0 12.35 5.53 12.35 12.35z"/>
	<path id="&lt;Path&gt;" class="s0" d="m73.35 41.51c0 6.82-5.53 12.35-12.35 12.35-6.82 0-12.35-5.53-12.35-12.35 0-6.82 5.53-12.35 12.35-12.35 6.82 0 12.35 5.53 12.35 12.35z"/>
	<path id="&lt;Path&gt;" class="s2" d="m39.94 41.51c0 2.43-1.97 4.4-4.4 4.4-2.43 0-4.4-1.97-4.4-4.4 0-2.43 1.97-4.4 4.4-4.4 2.43 0 4.4 1.97 4.4 4.4z"/>
	<path id="&lt;Path&gt;" class="s2" d="m65.68 41.51c0 2.43-1.97 4.4-4.4 4.4-2.43 0-4.4-1.97-4.4-4.4 0-2.43 1.97-4.4 4.4-4.4 2.43 0 4.4 1.97 4.4 4.4z"/>
	<path id="&lt;Path&gt;" class="s1" d="m50.18 39.46c-1.05-0.73-2.77-0.73-3.82 0l-5.07 3.55c-1.05 0.73-1.05 1.93 0 2.66l5.07 3.54c1.05 0.74 2.77 0.74 3.82 0l5.07-3.54c1.05-0.73 1.05-1.93 0-2.66z"/>
	<path id="&lt;Path&gt;" class="s3" d="m41.24 85.74c0 3.2-2.59 5.79-5.78 5.79h-5.32c-3.19 0-5.78-2.59-5.78-5.79 0-3.19 2.59-5.78 5.78-5.78h5.32c3.19 0 5.78 2.59 5.78 5.78z"/>
	<path id="&lt;Compound Path&gt;" fill-rule="evenodd" class="s2" d="m35.46 92.78h-5.32c-3.88 0-7.03-3.16-7.03-7.04 0-3.88 3.15-7.03 7.03-7.03h5.32c3.88 0 7.03 3.15 7.03 7.03 0 3.88-3.15 7.04-7.03 7.04zm-5.32-11.57c-2.5 0-4.53 2.03-4.53 4.53 0 2.5 2.03 4.54 4.53 4.54h5.32c2.5 0 4.53-2.04 4.53-4.54 0-2.5-2.03-4.53-4.53-4.53z"/>
	<path id="&lt;Path&gt;" class="s3" d="m72.18 85.74c0 3.2-2.59 5.79-5.78 5.79h-5.31c-3.2 0-5.79-2.59-5.79-5.79 0-3.19 2.59-5.78 5.79-5.78h5.31c3.19 0 5.78 2.59 5.78 5.78z"/>
	<path id="&lt;Compound Path&gt;" fill-rule="evenodd" class="s2" d="m66.4 92.78h-5.31c-3.88 0-7.04-3.16-7.04-7.04 0-3.88 3.16-7.03 7.04-7.03h5.31c3.88 0 7.03 3.15 7.03 7.03 0 3.88-3.15 7.04-7.03 7.04zm-5.31-11.57c-2.5 0-4.54 2.03-4.54 4.53 0 2.5 2.04 4.54 4.54 4.54h5.31c2.5 0 4.53-2.04 4.53-4.54 0-2.5-2.03-4.53-4.53-4.53z"/>
	<path id="&lt;Path&gt;" class="s3" d="m61.15 87.13v4.4"/>
	<path id="&lt;Path&gt;" class="s2" d="m61.15 92.78c-0.69 0-1.25-0.56-1.25-1.25v-4.4c0-0.69 0.56-1.25 1.25-1.25 0.69 0 1.25 0.56 1.25 1.25v4.4c0 0.69-0.56 1.25-1.25 1.25z"/>
	<path id="&lt;Path&gt;" class="s3" d="m66.15 87.13v4.4"/>
	<path id="&lt;Path&gt;" class="s2" d="m66.15 92.78c-0.69 0-1.25-0.56-1.25-1.25v-4.4c0-0.69 0.56-1.25 1.25-1.25 0.69 0 1.25 0.56 1.25 1.25v4.4c0 0.69-0.56 1.25-1.25 1.25z"/>
	<path id="&lt;Path&gt;" class="s3" d="m30.19 87.13v4.4"/>
	<path id="&lt;Path&gt;" class="s2" d="m30.19 92.78c-0.69 0-1.25-0.56-1.25-1.25v-4.4c0-0.69 0.56-1.25 1.25-1.25 0.69 0 1.25 0.56 1.25 1.25v4.4c0 0.69-0.56 1.25-1.25 1.25z"/>
	<path id="&lt;Path&gt;" class="s3" d="m35.19 87.13v4.4"/>
	<path id="&lt;Path&gt;" class="s2" d="m35.19 92.78c-0.69 0-1.25-0.56-1.25-1.25v-4.4c0-0.69 0.56-1.25 1.25-1.25 0.69 0 1.25 0.56 1.25 1.25v4.4c0 0.69-0.56 1.25-1.25 1.25z"/>
	<path id="&lt;Path&gt;" class="s4" d="m32.69 12.29v5.62 5.25c0 2.03 7.24 3.68 16.18 3.68 8.94 0 16.18-1.65 16.18-3.68v-5.25-5.62z"/>
	<path id="&lt;Compound Path&gt;" fill-rule="evenodd" class="s2" d="m48.87 28.09c-1.78 0-17.43-0.14-17.43-4.93v-10.87c0-0.69 0.56-1.25 1.25-1.25h32.36c0.69 0 1.25 0.56 1.25 1.25v10.87c0 4.79-15.65 4.93-17.43 4.93zm-14.93-5.03c0.67 0.93 6.09 2.53 14.93 2.53 8.84 0 14.26-1.6 14.93-2.53v-9.52h-29.86z"/>
	<path id="&lt;Path&gt;" class="s0" d="m71.17 17.67v-6.25"/>
	<path id="&lt;Path&gt;" class="s2" d="m71.17 18.92c-0.69 0-1.25-0.56-1.25-1.25v-6.25c0-0.69 0.56-1.25 1.25-1.25 0.69 0 1.25 0.56 1.25 1.25v6.25c0 0.69-0.56 1.25-1.25 1.25z"/>
	<path id="&lt;Path&gt;" class="s4" d="m73.86 10.53l-24.99 8.26-24.99-8.26 24.99-8.92z"/>
	<path id="&lt;Compound Path&gt;" fill-rule="evenodd" class="s2" d="m48.87 20.04q-0.2-0.01-0.39-0.07l-25-8.25c-0.5-0.17-0.85-0.64-0.85-1.17-0.01-0.54 0.32-1.01 0.83-1.19l24.99-8.92q0.42-0.15 0.84 0l24.99 8.92c0.51 0.18 0.84 0.65 0.83 1.19 0 0.53-0.35 1-0.85 1.17l-25 8.25q-0.19 0.06-0.39 0.07zm-21.15-9.55l21.15 6.98 21.15-6.98-21.15-7.55z"/>
	<path id="&lt;Path&gt;" class="s3" d="m71.17 17.67c-1.19 0-2.15 0.96-2.15 2.15v3.45h4.31v-3.45c0-1.19-0.97-2.15-2.16-2.15z"/>
	<path id="&lt;Compound Path&gt;" fill-rule="evenodd" class="s2" d="m73.33 24.52h-4.31c-0.69 0-1.25-0.56-1.25-1.25v-3.45c0-1.88 1.53-3.4 3.4-3.4 1.88 0 3.41 1.52 3.41 3.4v3.45c0 0.69-0.56 1.25-1.25 1.25zm-3.06-2.5h1.81v-2.2c0-0.5-0.41-0.9-0.91-0.9-0.5 0-0.9 0.4-0.9 0.9z"/>
	<path id="&lt;Path&gt;" class="s3" d="m15.9 72.52l-14.26-28.18"/>
	<path id="&lt;Path&gt;" class="s2" d="m15.9 73.77c-0.46 0-0.9-0.25-1.12-0.68l-14.26-28.19c-0.31-0.61-0.06-1.36 0.56-1.68 0.61-0.31 1.36-0.06 1.67 0.55l14.26 28.19c0.32 0.62 0.07 1.37-0.55 1.68q-0.27 0.14-0.56 0.13z"/>
</svg>