<svg version="1.2" xmlns="http://www.w3.org/2000/svg" viewBox="0 0 92 96" width="92" height="96">
	<style>
		.s0 { fill: #ffffff } 
		.s1 { fill: #333333 } 
		.s2 { fill: #ff725d } 
	</style>
	<path id="&lt;Path&gt;" class="s0" d="m83.37 44.24c-2.44-18.46-18.17-32.89-37.04-32.74-15.42 0.12-32.04 7.51-35.4 27.15-0.7 4.11-0.03 8.57-1.23 12.58-1.19 3.96-6.54 4.87-8.02 8.52-1.19 3.34 2.07 6.07 4.45 8.81 2.42 2.79 3.7 7.93 5.35 11.26 1.93 3.92 4.06 8.13 7.54 10.85 7.64 5.99 19.48 2.21 27.79-0.16 4.62-1.31 9.33-2.84 13.69-4.93 15.15-7.6 25.25-23.4 22.87-41.34z"/>
	<path id="&lt;Compound Path&gt;" fill-rule="evenodd" class="s1" d="m29.61 95.13q0 0 0 0c-4.66 0-8.37-1.13-11.36-3.47-3.79-2.97-6.06-7.58-7.89-11.29-0.59-1.18-1.11-2.54-1.66-3.98-1.01-2.62-2.06-5.34-3.51-7.01q-0.53-0.61-1.1-1.22c-2.27-2.47-4.85-5.28-3.59-8.83 0.87-2.14 2.64-3.38 4.35-4.59 1.62-1.14 3.15-2.22 3.65-3.87 0.65-2.15 0.71-4.47 0.78-6.91 0.05-1.82 0.11-3.7 0.42-5.52 3.53-20.6 21.23-28.07 36.62-28.19h0.31c19.1 0 35.43 14.54 37.98 33.83 2.33 17.55-6.92 34.28-23.55 42.62-4.82 2.31-9.96 3.89-13.9 5.02l-1.13 0.32c-4.81 1.38-10.79 3.09-16.42 3.09zm17.02-82.38h-0.29c-6.98 0.05-30.07 2.1-34.18 26.11-0.28 1.65-0.33 3.36-0.38 5.17-0.07 2.5-0.14 5.09-0.89 7.56-0.74 2.48-2.79 3.92-4.6 5.2-1.48 1.04-2.89 2.03-3.46 3.43-0.68 1.93 0.79 3.73 3.1 6.25q0.59 0.64 1.15 1.27c1.73 2 2.86 4.93 3.95 7.76 0.53 1.38 1.03 2.68 1.57 3.77 1.72 3.48 3.85 7.8 7.19 10.42 2.53 1.98 5.74 2.94 9.82 2.94q0 0 0 0c5.28 0 11.07-1.66 15.73-2.99l1.13-0.33c3.85-1.09 8.86-2.64 13.49-4.85 15.64-7.85 24.36-23.58 22.17-40.05-2.39-18.05-17.65-31.66-35.5-31.66z"/>
	<path id="&lt;Path&gt;" class="s2" d="m72.21 35.05c-0.81-1.09-2.88-2.16-3.77-1.37 2.23-1.97-0.03-5.35-1.69-6.75-2.04-1.71-5.36-1.16-7.27-0.37-0.09-4.24-2.77-6.11-6.7-5.65-1.32 0.16-2.35 0.75-3.31 1.68-0.71 0.68-0.67 0.68-1.34-0.07-0.88-1-1.71-1.77-3.03-1.97-1.3-0.2-2.77 0.24-3.59 1.39-0.21 0.3-0.44 1.39-0.79 1.46-0.22 0.05-0.99-0.64-1.25-0.74-0.84-0.35-1.87-0.4-2.73-0.09-0.43 0.16-0.85 0.4-1.14 0.77-0.24 0.31-0.38 1.21-0.71 1.29-0.31 0.08-1.33-0.79-1.69-0.92-1.38-0.48-3.15-0.45-4.4 0.39-1.73 1.16-1.87 2.98-1.97 4.97-0.05-0.16-2.36 0.36-2.52 0.4-0.95 0.25-1.75 0.61-2.41 1.4-1.23 1.47-1.47 3.86-0.46 5.51 1.06 1.74 3.2 2.06 5.01 2.05-1.55 4.69 3.94 6.2 6.95 3.58-0.02 3.08 1.5 6.28 4.43 7.07 3.32 0.89 5.32-0.79 7.97-2.18-0.16 0.08 1.25 1.71 1.38 1.82 0.66 0.58 1.44 1 2.28 1.18 1.32 0.28 2.51-0.2 3.65-0.87 0.68-0.4 2.05-1.96 2.91-1.6 0.58 0.25 1.08 1.18 1.54 1.63 0.48 0.45 0.93 0.77 1.52 1.03 1.62 0.74 3.45 0.62 5.07-0.1 2.5-1.12 4.01-3.43 3.88-6.28 2-0.32 3.11-1.22 4.32-2.91 1.19-1.67 1.05-4.13-0.14-5.75z"/>
	<path id="&lt;Compound Path&gt;" fill-rule="evenodd" class="s1" d="m61.43 51.84q-0.01 0-0.01 0-1.51 0-2.86-0.61c-0.7-0.32-1.28-0.71-1.86-1.27q-0.34-0.35-0.64-0.75c-0.12-0.15-0.3-0.39-0.43-0.53-0.26 0.15-0.76 0.55-1.01 0.77q-0.47 0.4-0.88 0.66c-0.89 0.52-2.1 1.12-3.51 1.12q-0.52 0-1.04-0.11c-1.01-0.21-1.99-0.72-2.83-1.46-0.01 0-0.52-0.48-1-1.09q-0.1 0.06-0.2 0.11c-1.65 0.93-3.35 1.9-5.53 1.9q-1.04-0.01-2.13-0.29c-2.94-0.8-4.6-3.48-5.15-6.21q-1.14 0.45-2.4 0.46c-1.77 0-3.31-0.72-4.21-1.96-0.46-0.64-0.9-1.62-0.8-2.98q-3.23-0.38-4.57-2.57c-1.26-2.07-1.01-5.06 0.57-6.96 0.96-1.15 2.13-1.57 3.05-1.81 0.01 0 0.87-0.2 1.65-0.34 0.15-1.72 0.57-3.59 2.46-4.86 0.89-0.6 2-0.91 3.22-0.91 0.78 0 1.57 0.13 2.29 0.38 0.24 0.09 0.46 0.22 0.77 0.43q0.09-0.2 0.24-0.39 0.6-0.77 1.69-1.17c1.12-0.41 2.49-0.37 3.64 0.1q0.15 0.07 0.3 0.16 0.1-0.24 0.24-0.44c0.87-1.23 2.37-1.97 3.99-1.97q0.41 0.01 0.81 0.07c1.65 0.25 2.71 1.2 3.57 2.13 1.19-1.06 2.39-1.62 3.77-1.78 4.28-0.5 7.23 1.49 7.94 5.23 0.88-0.22 1.79-0.34 2.64-0.34 1.73 0 3.24 0.49 4.34 1.42 1.13 0.94 3.04 3.19 3.07 5.6q0.01 0.42-0.07 0.82c1.08 0.38 2.1 1.15 2.66 1.91 1.56 2.12 1.63 5.16 0.16 7.22-1.08 1.5-2.22 2.63-4.11 3.19-0.22 2.84-1.88 5.2-4.6 6.41q-1.59 0.71-3.23 0.71zm-5.69-5.71q0.4 0 0.76 0.15c0.68 0.29 1.14 0.88 1.55 1.41q0.2 0.27 0.38 0.47c0.38 0.36 0.72 0.59 1.16 0.79q0.86 0.39 1.83 0.39h0.01c0.72 0 1.49-0.17 2.21-0.49 2.1-0.94 3.25-2.79 3.14-5.08-0.03-0.63 0.42-1.19 1.05-1.29 1.53-0.25 2.38-0.83 3.5-2.4 0.84-1.17 0.78-3.05-0.13-4.29-0.42-0.56-1.4-1.13-1.94-1.13-0.52 0.45-1.31 0.38-1.76-0.13-0.46-0.52-0.4-1.33 0.11-1.79h0.01c0.35-0.31 0.51-0.66 0.5-1.13-0.01-1.2-1.12-2.83-2.18-3.72q-0.99-0.83-2.73-0.83c-1.04 0-2.25 0.24-3.25 0.66-0.38 0.15-0.81 0.12-1.16-0.11-0.35-0.23-0.56-0.61-0.57-1.02q-0.1-4.49-4.33-4.5-0.47 0-0.98 0.06c-0.95 0.11-1.73 0.51-2.59 1.34-0.48 0.46-0.88 0.85-1.53 0.85-0.72 0-1.14-0.47-1.55-0.93-0.87-0.99-1.45-1.49-2.34-1.62-0.94-0.14-1.9 0.2-2.38 0.87 0 0.02-0.04 0.14-0.08 0.26-0.25 0.64-0.57 1.51-1.46 1.7q-0.15 0.03-0.29 0.04c-0.56 0-0.99-0.32-1.49-0.68q-0.17-0.13-0.29-0.2c-0.44-0.17-1.22-0.23-1.75-0.04q-0.42 0.16-0.58 0.37c0 0.01-0.03 0.11-0.07 0.22-0.19 0.52-0.49 1.31-1.33 1.52-0.1 0.02-0.24 0.04-0.34 0.04-0.59 0-1.11-0.35-1.71-0.75q-0.24-0.18-0.41-0.27c-0.4-0.14-0.91-0.22-1.41-0.22-0.71 0-1.35 0.17-1.82 0.48-1.18 0.8-1.33 2.04-1.43 4-0.03 0.62-0.51 1.13-1.13 1.19q-0.18 0.01-0.36-0.02c-0.44 0.05-1.64 0.3-1.96 0.38-0.86 0.23-1.35 0.5-1.76 0.99-0.9 1.08-1.06 2.9-0.36 4.06 0.6 0.97 1.85 1.45 3.84 1.45q0.01 0 0.01 0c0.4 0 0.83 0.19 1.06 0.51 0.24 0.33 0.36 0.75 0.23 1.13-0.22 0.66-0.37 1.6 0.13 2.3 0.42 0.57 1.23 0.92 2.18 0.92 0.96 0 1.92-0.36 2.63-0.98 0.37-0.32 0.89-0.4 1.34-0.19 0.44 0.21 0.73 0.65 0.73 1.15-0.02 2.36 1.07 5.2 3.5 5.85 2.17 0.58 3.82-0.26 5.78-1.36q0.62-0.36 1.29-0.71 0 0 0-0.01c0.61-0.31 1.37-0.08 1.68 0.53q0.06 0.12 0.1 0.23c0.24 0.35 0.88 1.11 1.04 1.27 0.49 0.42 1.08 0.73 1.68 0.86 0.8 0.17 1.56-0.03 2.76-0.73 0.1-0.06 0.34-0.26 0.54-0.43 0.75-0.62 1.69-1.39 2.72-1.39z"/>
	<path id="&lt;Path&gt;" class="s1" d="m26.23 58.47c-3.12 0-5.96-1.43-7.4-3.88-0.35-0.6-0.15-1.37 0.45-1.71 0.59-0.35 1.36-0.15 1.71 0.44 1.44 2.45 4.77 3.05 7.33 2.37 0.66-0.18 1.35 0.22 1.52 0.89 0.18 0.66-0.22 1.35-0.88 1.53q-1.38 0.36-2.73 0.36z"/>
	<path id="&lt;Path&gt;" class="s1" d="m12.17 80.01q-0.47 0-0.91-0.04c-0.69-0.07-1.19-0.69-1.12-1.38 0.07-0.68 0.68-1.19 1.37-1.11 2.84 0.29 7.83-1.41 8.61-4.28 0.19-0.66 0.87-1.06 1.54-0.87 0.66 0.18 1.06 0.87 0.87 1.53-1.09 3.98-6.53 6.15-10.36 6.15z"/>
	<path id="&lt;Path&gt;" class="s1" d="m50.97 73.76c-0.48 0-0.94-0.28-1.14-0.75-0.28-0.63 0.01-1.37 0.64-1.64 3.39-1.48 6.08-4.55 6.86-7.84 0.64-2.73-0.46-6.12-3.12-6.79-1.99-0.5-4.18 0.99-5.46 3.72-0.29 0.63-1.04 0.89-1.66 0.6-0.63-0.29-0.9-1.03-0.6-1.66 1.8-3.85 5.15-5.9 8.33-5.09 4.23 1.08 5.86 5.92 4.94 9.79-0.95 4.03-4.2 7.78-8.29 9.56q-0.24 0.11-0.5 0.1z"/>
	<path id="&lt;Path&gt;" class="s1" d="m74.67 15.78c-0.32 0-0.63-0.12-0.87-0.35-0.5-0.48-0.51-1.27-0.03-1.77l6.52-6.78c0.48-0.5 1.27-0.52 1.76-0.04 0.5 0.48 0.52 1.27 0.04 1.77l-6.52 6.78c-0.25 0.26-0.58 0.39-0.9 0.39z"/>
	<path id="&lt;Path&gt;" class="s1" d="m82.74 24.17c-0.43 0-0.85-0.22-1.08-0.62-0.35-0.59-0.15-1.36 0.45-1.71l7.31-4.26c0.59-0.35 1.36-0.15 1.71 0.45 0.35 0.59 0.14 1.36-0.45 1.71l-7.31 4.26q-0.3 0.18-0.63 0.17z"/>
	<path id="&lt;Path&gt;" class="s1" d="m65.71 9.72q-0.19 0-0.37-0.06c-0.66-0.2-1.03-0.91-0.82-1.57l2.12-6.75c0.2-0.65 0.91-1.02 1.57-0.81 0.65 0.2 1.02 0.91 0.81 1.56l-2.12 6.75c-0.17 0.54-0.66 0.88-1.19 0.88z"/>
</svg>