<svg version="1.2" xmlns="http://www.w3.org/2000/svg" viewBox="0 0 110 110" width="110" height="110">
	<style>
		.s0 { fill: #3e3a39 } 
		.s1 { fill: #ff576a } 
	</style>
	<path id="&lt;Path&gt;" class="s0" d="m96.13 23.9h-82.03v-4.5h82.03z"/>
	<path id="&lt;Path&gt;" class="s0" d="m96.13 90.17h-82.03v-4.5h82.03z"/>
	<path id="&lt;Path&gt;" class="s0" d="m21.2 57.03h-19.17v-4.5h19.17z"/>
	<path id="&lt;Path&gt;" class="s0" d="m108.2 57.03h-19.17v-4.5h19.17z"/>
	<path id="&lt;Compound Path&gt;" fill-rule="evenodd" class="s0" d="m55.12 109.48c-30.16 0-54.7-24.54-54.7-54.69 0-30.16 24.54-54.7 54.7-54.7 30.15 0 54.69 24.54 54.69 54.7 0 30.15-24.54 54.69-54.69 54.69zm0-104.89c-27.68 0-50.2 22.52-50.2 50.2 0 27.67 22.52 50.19 50.2 50.19 27.67 0 50.19-22.52 50.19-50.19 0-27.68-22.52-50.2-50.19-50.2z"/>
	<path id="&lt;Compound Path&gt;" fill-rule="evenodd" class="s0" d="m55.12 109.48c-19.44 0-35.26-24.54-35.26-54.69 0-30.16 15.82-54.7 35.26-54.7 19.43 0 35.25 24.54 35.25 54.7 0 30.15-15.82 54.69-35.25 54.69zm0-104.89c-16.96 0-30.76 22.52-30.76 50.2 0 27.67 13.8 50.19 30.76 50.19 16.95 0 30.75-22.52 30.75-50.19 0-27.68-13.8-50.2-30.75-50.2z"/>
	<path id="&lt;Compound Path&gt;" fill-rule="evenodd" class="s1" d="m55.12 90.04c-19.44 0-35.26-15.82-35.26-35.25 0-19.44 15.82-35.26 35.26-35.26 19.43 0 35.25 15.82 35.25 35.26 0 19.43-15.82 35.25-35.25 35.25zm0-66.01c-16.96 0-30.76 13.8-30.76 30.76 0 16.95 13.8 30.75 30.76 30.75 16.95 0 30.75-13.8 30.75-30.75 0-16.96-13.8-30.76-30.75-30.76z"/>
	<path id="&lt;Path&gt;" class="s1" d="m55.12 81.04c-14.48 0-26.26-11.78-26.26-26.25v-2.25h4.5v2.25c0 11.99 9.76 21.75 21.76 21.75 11.99 0 21.75-9.76 21.75-21.75 0-12-9.76-21.76-21.75-21.76h-2.25v-4.5h2.25c14.47 0 26.25 11.78 26.25 26.26 0 14.47-11.78 26.25-26.25 26.25z"/>
	<path id="&lt;Path&gt;" class="s1" d="m53.88 69.33l-13.85-13.85 3.19-3.18 10.66 10.67 20.67-20.67 3.18 3.18z"/>
	<path id="&lt;Compound Path&gt;" class="s1" d="m33.44 51.84l-4.37-1.05 0.53-2.19q0.25-1.06 0.6-2.11l0.71-2.13 4.27 1.42-0.71 2.14q-0.29 0.86-0.5 1.73zm3.04-8.51l-3.56-2.74 1.37-1.78q0.66-0.87 1.4-1.68l1.51-1.66 3.33 3.02-1.51 1.67q-0.61 0.67-1.17 1.39zm6.23-6.56l-2.16-3.95 1.98-1.08q0.96-0.53 1.96-0.97l2.06-0.91 1.82 4.11-2.06 0.92q-0.82 0.36-1.62 0.8zm8.34-3.48l-0.37-4.48 2.25-0.19q1.09-0.09 2.18-0.09h2.25v4.5h-2.25q-0.91 0-1.81 0.08z"/>
</svg>