<svg version="1.2" xmlns="http://www.w3.org/2000/svg" viewBox="0 0 118 112" width="118" height="112">
	<defs>
		<linearGradient id="g1" x2="1" gradientUnits="userSpaceOnUse" gradientTransform="matrix(15.746,0,0,40.793,50.946,47.854)">
			<stop offset="0" stop-color="#f25838"/>
			<stop offset="1" stop-color="#cd0000"/>
		</linearGradient>
	</defs>
	<style>
		.s0 { fill: #515151 } 
		.s1 { fill: url(#g1) } 
	</style>
	<path id="&lt;Compound Path&gt;" fill-rule="evenodd" class="s0" d="m109.65 111.76h-18.3c-2.21 0-4-1.79-4-4v-28.55c0-9.07-4.38-17.67-11.71-23.03-1.14-0.84-1.75-2.21-1.62-3.62 0.91-9.44 8.75-16.56 18.24-16.56 10.11 0 18.33 8.23 18.33 18.33 0 4.94-1.96 9.51-5.25 12.85 7.21 4.47 11.93 12.48 11.93 21.3v15.66c0 4.7-2.92 7.62-7.62 7.62zm-14.3-8h13.92v-15.28c0-7.96-5.64-14.95-13.41-16.62q-0.77-0.17-1.4-0.6 0.88 3.89 0.89 7.95zm-12.97-52.46c4.81 4.07 8.45 9.29 10.63 15.1 0.44-1.05 1.32-1.89 2.45-2.26 4.27-1.39 7.13-5.33 7.13-9.81 0-5.7-4.63-10.33-10.33-10.33-4.64 0-8.59 3.02-9.88 7.3z"/>
	<path id="&lt;Compound Path&gt;" fill-rule="evenodd" class="s0" d="m26.29 111.76h-17.76c-4.7 0-7.62-2.92-7.62-7.62v-15.66c0-8.82 4.71-16.83 11.92-21.3-3.29-3.34-5.25-7.91-5.25-12.85 0-10.1 8.22-18.33 18.33-18.33 9.26 0 17.08 6.93 18.18 16.12 0.18 1.46-0.46 2.9-1.67 3.75-7.59 5.35-12.13 14.07-12.13 23.34v28.55c0 2.21-1.79 4-4 4zm-17.38-8h13.38v-24.55q0-3.88 0.8-7.61-0.37 0.17-0.78 0.26c-7.77 1.67-13.4 8.66-13.4 16.62zm17-59.76c-5.69 0-10.33 4.64-10.33 10.33 0 4.48 2.87 8.43 7.13 9.81 0.91 0.3 1.65 0.9 2.14 1.66 2.26-5.73 5.97-10.86 10.82-14.84-1.4-4.08-5.28-6.96-9.76-6.96z"/>
	<path id="&lt;Path&gt;" class="s1" d="m62.87 52.1l1.32-4.25q-2.59 0.65-5.37 0.66-2.78-0.01-5.37-0.66l1.31 4.25h0.43l-4.24 27.5 7.87 9.05 7.87-9.05-4.24-27.5z"/>
	<path id="&lt;Compound Path&gt;" fill-rule="evenodd" class="s0" d="m91.35 111.76h-65.06c-2.21 0-4-1.79-4-4v-28.55c0-13.91 8.02-26.44 19.99-32.56-5.99-4.87-9.65-12.26-9.65-20.33 0-14.44 11.75-26.18 26.19-26.18 14.44 0 26.19 11.74 26.19 26.18 0 8.07-3.66 15.46-9.66 20.33 11.98 6.12 20 18.65 20 32.56v28.55c0 2.21-1.8 4-4 4zm-61.06-8h57.06v-24.55c0-13.35-9.46-25.07-22.48-27.88-1.77-0.38-3.06-1.9-3.16-3.71-0.09-1.8 1.04-3.44 2.76-4 7.5-2.45 12.54-9.4 12.54-17.3 0-10.02-8.16-18.18-18.19-18.18-10.03 0-18.19 8.16-18.19 18.18 0 7.9 5.04 14.85 12.54 17.3 1.72 0.56 2.85 2.2 2.75 4-0.09 1.81-1.38 3.33-3.15 3.71-13.02 2.81-22.48 14.53-22.48 27.88z"/>
</svg>