<svg version="1.2" xmlns="http://www.w3.org/2000/svg" viewBox="0 0 134 117" width="134" height="117">
	<defs>
		<linearGradient id="g1" x2="1" gradientUnits="userSpaceOnUse" gradientTransform="matrix(34.874,0,0,24.093,62.85,57.041)">
			<stop offset="0" stop-color="#f25838"/>
			<stop offset="1" stop-color="#cd0000"/>
		</linearGradient>
		<linearGradient id="g2" x2="1" gradientUnits="userSpaceOnUse" gradientTransform="matrix(8,0,0,37.452,62.851,27.59)">
			<stop offset="0" stop-color="#f25838"/>
			<stop offset="1" stop-color="#cd0000"/>
		</linearGradient>
	</defs>
	<style>
		.s0 { fill: #515151 } 
		.s1 { fill: url(#g1) } 
		.s2 { fill: url(#g2) } 
	</style>
	<path id="&lt;Compound Path&gt;" fill-rule="evenodd" class="s0" d="m66.85 116.66c-30.67 0-55.62-24.95-55.62-55.62 0-30.67 24.95-55.62 55.62-55.62 30.67 0 55.62 24.95 55.62 55.62 0 30.67-24.95 55.62-55.62 55.62zm0-103.24c-26.26 0-47.62 21.36-47.62 47.62 0 26.26 21.36 47.62 47.62 47.62 26.26 0 47.62-21.36 47.62-47.62 0-26.26-21.36-47.62-47.62-47.62z"/>
	<path id="&lt;Path&gt;" class="s0" d="m9 34.66c-1 0-2-0.37-2.77-1.12-7.63-7.34-7.85-19.52-0.51-27.15 7.35-7.62 19.53-7.85 27.15-0.5 1.59 1.53 1.64 4.06 0.11 5.65-1.54 1.59-4.07 1.64-5.66 0.11-2.16-2.08-5-3.18-7.98-3.13-2.99 0.05-5.78 1.27-7.86 3.42-4.28 4.45-4.15 11.56 0.3 15.84 1.59 1.53 1.63 4.07 0.1 5.66-0.78 0.81-1.83 1.22-2.88 1.22z"/>
	<path id="&lt;Path&gt;" class="s1" d="m93.72 81.13c-0.7 0-1.41-0.18-2.05-0.57l-26.87-16.09c-1.9-1.13-2.52-3.59-1.38-5.48 1.13-1.9 3.59-2.52 5.49-1.38l26.87 16.09c1.89 1.14 2.51 3.59 1.38 5.49-0.75 1.25-2.08 1.94-3.44 1.94z"/>
	<path id="&lt;Path&gt;" class="s0" d="m124.7 34.66c-1.05 0-2.1-0.41-2.88-1.22-1.53-1.59-1.49-4.13 0.1-5.66 2.16-2.07 3.37-4.87 3.43-7.86 0.06-2.99-1.06-5.82-3.13-7.98-2.08-2.15-4.87-3.37-7.86-3.42-2.98-0.04-5.83 1.05-7.98 3.13-1.59 1.53-4.12 1.48-5.66-0.11-1.53-1.59-1.48-4.12 0.11-5.65 7.62-7.35 19.8-7.12 27.15 0.5 7.35 7.63 7.12 19.81-0.51 27.15-0.77 0.75-1.77 1.12-2.77 1.12z"/>
	<path id="&lt;Path&gt;" class="s2" d="m66.85 65.04c-2.21 0-4-1.79-4-4v-29.45c0-2.21 1.79-4 4-4 2.21 0 4 1.79 4 4v29.45c0 2.21-1.79 4-4 4z"/>
</svg>