<?xml version="1.0" encoding="iso-8859-1"?>
<!-- Generator: Adobe Illustrator 23.0.1, SVG Export Plug-In . SVG Version: 6.00 Build 0)  -->
<svg version="1.1" id="Layer_1" xmlns="http://www.w3.org/2000/svg" xmlns:xlink="http://www.w3.org/1999/xlink" x="0px" y="0px"
	 viewBox="0 0 512 512" style="enable-background:new 0 0 512 512;" xml:space="preserve">
<g>
	<g>
		<polygon style="fill:#1C3868;" points="203.832,374.843 203.832,391.77 184.644,391.77 184.644,374.843 174.067,374.843 
			174.067,419.262 184.644,419.262 184.644,401.398 203.832,401.398 203.832,419.262 214.409,419.262 214.409,374.843 
			213.873,374.843 		"/>
		<polygon style="fill:#1C3868;" points="253.16,374.843 242.098,392.435 231.044,374.843 218.57,374.843 236.819,403.874 
			236.819,419.262 247.384,419.262 247.384,403.874 265.649,374.843 264.675,374.843 		"/>
		<g>
			<defs>
				<rect id="SVGID_1_" x="31" y="366.109" width="450" height="61.889"/>
			</defs>
			<clipPath id="SVGID_2_">
				<use xlink:href="#SVGID_1_"  style="overflow:visible;"/>
			</clipPath>
			<path style="clip-path:url(#SVGID_2_);fill:#1C3868;" d="M299.655,374.843v32.56c0,1.24-0.927,2.235-2.243,2.235H280.46v-34.796
				h-10.57v44.419h31.238c2.789,0,5.021-0.826,6.645-2.443c1.625-1.632,2.447-3.863,2.447-6.631v-35.345h-0.535H299.655z"/>
			<path style="clip-path:url(#SVGID_2_);fill:#1C3868;" d="M351.272,374.843h-31.248v44.419h10.559V384.46h16.962
				c1.362,0,2.243,1.071,2.243,2.225v32.578h10.566v-35.338c0-2.782-0.827-5.007-2.448-6.631
				C356.271,375.662,354.051,374.843,351.272,374.843"/>
			<path style="clip-path:url(#SVGID_2_);fill:#1C3868;" d="M401.398,374.838h-31.249v44.423h31.249
				c2.777,0,4.998-0.827,6.623-2.443c1.624-1.629,2.458-3.867,2.458-6.631V383.93c0-2.785-0.834-5.014-2.458-6.648
				C406.397,375.664,404.165,374.838,401.398,374.838 M399.914,386.758v20.589c0,1.193-0.881,2.3-2.257,2.3h-16.948v-25.189h16.873
				C398.975,384.458,399.914,385.429,399.914,386.758"/>
			<path style="clip-path:url(#SVGID_2_);fill:#1C3868;" d="M428.89,374.844c-2.771,0-5.01,0.815-6.623,2.451
				c-1.635,1.624-2.451,3.856-2.451,6.631v35.338h10.548v-13.739h19.205v13.739h10.555v-44.419H428.89z M449.569,384.461v11.446
				h-19.205v-9.193c0-1.093,0.837-2.254,2.257-2.254H449.569z"/>
			<rect x="470.423" y="374.837" style="clip-path:url(#SVGID_2_);fill:#1C3868;" width="10.577" height="44.419"/>
			<path style="clip-path:url(#SVGID_2_);fill:#1C3868;" d="M91.43,427.998c33.373,0,60.427-13.858,60.427-30.957
				c0-17.078-27.054-30.932-60.427-30.932c-33.372,0-60.43,13.854-60.43,30.932C31,414.14,58.058,427.998,91.43,427.998
				 M102.797,412.81c-1.003,2.339-2.735,7.335-6.724,9.315c-1.2,0.593-2.695,0.888-4.025,0.927c-0.316,0.004-0.525,0-0.607,0
				c-11.155,0-21.538-1.545-30.22-4.19c-0.079-0.025-0.273-0.108-0.342-0.129c-0.801-0.27-1.211-0.643-1.211-1.096
				c0-0.399,0.208-0.697,0.503-0.981c0.111-0.122,0.305-0.276,0.546-0.488c2.005-1.671,8.054-6.052,19.435-10.411
				c3.989-1.524,8.978-3.425,14.218-4.525C97.435,400.584,108.813,398.841,102.797,412.81 M133.338,381.619
				c0.205-0.374,0.496-0.686,1.017-0.718c0.295-0.025,0.669,0.043,1.247,0.413c7.105,4.363,11.313,9.814,11.313,15.719
				c0,10.677-13.722,19.845-33.34,23.86c-1.261,0.244-2.102,0.241-2.383-0.079c-0.194-0.194-0.251-0.543,0-0.96
				c0.129-0.219,0.273-0.406,0.518-0.726c10.695-12.596,18.831-31.162,21.135-36.531
				C133.018,382.227,133.194,381.86,133.338,381.619 M80.239,381.224c1.006-2.333,2.746-7.325,6.727-9.312
				c1.211-0.597,2.699-0.884,4.029-0.923c0.302-0.011,0.507,0,0.604,0c11.155,0,21.53,1.545,30.231,4.194
				c0.065,0.025,0.263,0.101,0.327,0.126c0.805,0.273,1.218,0.636,1.218,1.099c0,0.396-0.219,0.697-0.503,0.974
				c-0.115,0.122-0.302,0.28-0.554,0.485c-2.009,1.682-8.047,6.052-19.425,10.411c-3.996,1.528-8.992,3.425-14.218,4.532
				C85.604,393.461,74.223,395.186,80.239,381.224 M69.274,373.192c1.265-0.244,2.092-0.241,2.401,0.079
				c0.172,0.201,0.216,0.535-0.011,0.952c-0.137,0.223-0.273,0.421-0.525,0.723c-10.695,12.599-18.824,31.173-21.135,36.542
				c-0.172,0.363-0.352,0.733-0.492,0.97c-0.219,0.381-0.503,0.697-1.017,0.726c-0.276,0.018-0.661-0.05-1.261-0.406
				c-7.08-4.377-11.299-9.829-11.299-15.737C35.934,386.374,49.652,377.199,69.274,373.192"/>
		</g>
	</g>
	<path style="fill:#1C3868;" d="M256.006,290.104c111.137,0,201.232-46.148,201.232-103.091c0-56.875-90.095-103.01-201.232-103.01
		c-111.135,0-201.244,46.136-201.244,103.01C54.762,243.955,144.872,290.104,256.006,290.104 M293.861,239.528
		c-3.34,7.79-9.108,24.426-22.393,31.02c-3.998,1.975-8.976,2.956-13.404,3.087c-1.052,0.013-1.747,0-2.023,0
		c-37.149,0-71.725-5.146-100.639-13.955c-0.263-0.083-0.91-0.359-1.138-0.43c-2.668-0.898-4.033-2.142-4.033-3.651
		c0-1.327,0.693-2.321,1.676-3.267c0.369-0.407,1.016-0.92,1.818-1.626c6.678-5.565,26.82-20.155,64.723-34.671
		c13.285-5.075,29.898-11.406,47.347-15.07C276.005,198.811,313.895,193.008,293.861,239.528 M395.567,135.655
		c0.683-1.244,1.651-2.286,3.386-2.392c0.981-0.083,2.228,0.144,4.154,1.376c23.66,14.529,37.675,32.684,37.675,52.348
		c0,35.556-45.696,66.089-111.028,79.457c-4.2,0.814-7.002,0.802-7.935-0.263c-0.647-0.647-0.837-1.808,0-3.196
		c0.43-0.731,0.91-1.353,1.724-2.417c35.617-41.949,62.71-103.777,70.382-121.656C394.502,137.678,395.086,136.457,395.567,135.655
		 M218.738,134.34c3.35-7.768,9.143-24.393,22.403-31.01c4.033-1.987,8.989-2.943,13.416-3.075c1.006-0.038,1.689,0,2.013,0
		c37.147,0,71.699,5.146,100.674,13.965c0.215,0.083,0.875,0.336,1.09,0.42c2.68,0.91,4.056,2.119,4.056,3.661
		c0,1.317-0.728,2.321-1.674,3.244c-0.384,0.407-1.006,0.933-1.843,1.616c-6.691,5.601-26.798,20.155-64.688,34.671
		c-13.308,5.087-29.946,11.406-47.347,15.093C236.605,175.09,198.702,180.835,218.738,134.34 M182.223,107.591
		c4.213-0.814,6.966-0.802,7.995,0.263c0.574,0.67,0.718,1.783-0.038,3.171c-0.455,0.743-0.908,1.401-1.747,2.407
		c-35.617,41.959-62.688,103.812-70.385,121.691c-0.574,1.209-1.171,2.443-1.638,3.231c-0.731,1.269-1.676,2.321-3.388,2.417
		c-0.92,0.061-2.2-0.167-4.2-1.353c-23.576-14.577-37.627-32.732-37.627-52.407C71.195,151.489,116.878,120.937,182.223,107.591"/>
</g>
</svg>
