<svg version="1.2" xmlns="http://www.w3.org/2000/svg" viewBox="0 0 124 109" width="124" height="109">
	<defs>
		<linearGradient id="g1" x2="1" gradientUnits="userSpaceOnUse" gradientTransform="matrix(122.648,0,0,8,.829,35.708)">
			<stop offset="0" stop-color="#f25838"/>
			<stop offset="1" stop-color="#cd0000"/>
		</linearGradient>
		<linearGradient id="g2" x2="1" gradientUnits="userSpaceOnUse" gradientTransform="matrix(122.648,0,0,8,.829,36.708)">
			<stop offset="0" stop-color="#f25838"/>
			<stop offset="1" stop-color="#cd0000"/>
		</linearGradient>
	</defs>
	<style>
		.s0 { fill: url(#g1) } 
		.s1 { fill: #515151 } 
		.s2 { fill: url(#g2) } 
	</style>
	<path id="&lt;Path&gt;" class="s0" d="m119.48 43.71h-114.65c-2.21 0-4-1.79-4-4 0-2.21 1.79-4 4-4h114.65c2.21 0 4 1.79 4 4 0 2.21-1.79 4-4 4z"/>
	<path id="&lt;Path&gt;" class="s1" d="m33.2 65.85h-7.49c-1.67 0-3.02-1.35-3.02-3.02v-7.5c0-1.66 1.35-3.02 3.02-3.02h7.49c1.67 0 3.02 1.36 3.02 3.02v7.5c0 1.67-1.35 3.02-3.02 3.02z"/>
	<path id="&lt;Path&gt;" class="s1" d="m65.9 65.85h-7.5c-1.66 0-3.02-1.35-3.02-3.02v-7.5c0-1.66 1.36-3.02 3.02-3.02h7.5c1.67 0 3.02 1.36 3.02 3.02v7.5c0 1.67-1.35 3.02-3.02 3.02z"/>
	<path id="&lt;Path&gt;" class="s1" d="m98.6 65.85h-7.5c-1.67 0-3.02-1.35-3.02-3.02v-7.5c0-1.66 1.35-3.02 3.02-3.02h7.5c1.67 0 3.02 1.36 3.02 3.02v7.5c0 1.67-1.35 3.02-3.02 3.02z"/>
	<path id="&lt;Path&gt;" class="s1" d="m33.2 87.17h-7.49c-1.67 0-3.02-1.35-3.02-3.02v-7.5c0-1.67 1.35-3.02 3.02-3.02h7.49c1.67 0 3.02 1.35 3.02 3.02v7.5c0 1.67-1.35 3.02-3.02 3.02z"/>
	<path id="&lt;Path&gt;" class="s1" d="m65.9 87.17h-7.5c-1.66 0-3.02-1.35-3.02-3.02v-7.5c0-1.67 1.36-3.02 3.02-3.02h7.5c1.67 0 3.02 1.35 3.02 3.02v7.5c0 1.67-1.35 3.02-3.02 3.02z"/>
	<path id="&lt;Path&gt;" class="s1" d="m98.6 87.17h-7.5c-1.67 0-3.02-1.35-3.02-3.02v-7.5c0-1.67 1.35-3.02 3.02-3.02h7.5c1.67 0 3.02 1.35 3.02 3.02v7.5c0 1.67-1.35 3.02-3.02 3.02z"/>
	<path id="&lt;Compound Path&gt;" fill-rule="evenodd" class="s1" d="m123.48 24.56v72.43c0 6.04-4.91 10.95-10.95 10.95h-100.76c-6.03 0-10.94-4.91-10.94-10.95v-72.43c0-6.04 4.91-10.95 10.94-10.95h11.51v-9.74c0-2.21 1.79-4 4-4 2.21 0 4 1.79 4 4v9.74h61.74v-9.74c0-2.21 1.8-4 4-4 2.21 0 4 1.79 4 4v9.74h11.51c6.04 0 10.95 4.91 10.95 10.95zm-8 0c0-1.63-1.32-2.95-2.95-2.95h-11.51v6.75c0 2.21-1.79 4-4 4-2.2 0-4-1.79-4-4v-6.75h-61.74v6.75c0 2.21-1.79 4-4 4-2.21 0-4-1.79-4-4v-6.75h-11.51c-1.62 0-2.94 1.32-2.94 2.95v72.43c0 1.62 1.32 2.95 2.94 2.95h100.76c1.63 0 2.95-1.33 2.95-2.95z"/>
	<path id="&lt;Path&gt; copy" class="s2" d="m119.48 44.71h-114.65c-2.21 0-4-1.79-4-4 0-2.21 1.79-4 4-4h114.65c2.21 0 4 1.79 4 4 0 2.21-1.79 4-4 4z"/>
	<path id="&lt;Path&gt; copy 2" class="s1" d="m33.2 66.85h-7.49c-1.67 0-3.02-1.35-3.02-3.02v-7.5c0-1.66 1.35-3.02 3.02-3.02h7.49c1.67 0 3.02 1.36 3.02 3.02v7.5c0 1.67-1.35 3.02-3.02 3.02z"/>
	<path id="&lt;Path&gt; copy 3" class="s1" d="m65.9 66.85h-7.5c-1.66 0-3.02-1.35-3.02-3.02v-7.5c0-1.66 1.36-3.02 3.02-3.02h7.5c1.67 0 3.02 1.36 3.02 3.02v7.5c0 1.67-1.35 3.02-3.02 3.02z"/>
	<path id="&lt;Path&gt; copy 4" class="s1" d="m98.6 66.85h-7.5c-1.67 0-3.02-1.35-3.02-3.02v-7.5c0-1.66 1.35-3.02 3.02-3.02h7.5c1.67 0 3.02 1.36 3.02 3.02v7.5c0 1.67-1.35 3.02-3.02 3.02z"/>
	<path id="&lt;Path&gt; copy 5" class="s1" d="m33.2 88.17h-7.49c-1.67 0-3.02-1.35-3.02-3.02v-7.5c0-1.67 1.35-3.02 3.02-3.02h7.49c1.67 0 3.02 1.35 3.02 3.02v7.5c0 1.67-1.35 3.02-3.02 3.02z"/>
	<path id="&lt;Path&gt; copy 6" class="s1" d="m65.9 88.17h-7.5c-1.66 0-3.02-1.35-3.02-3.02v-7.5c0-1.67 1.36-3.02 3.02-3.02h7.5c1.67 0 3.02 1.35 3.02 3.02v7.5c0 1.67-1.35 3.02-3.02 3.02z"/>
	<path id="&lt;Path&gt; copy 7" class="s1" d="m98.6 88.17h-7.5c-1.67 0-3.02-1.35-3.02-3.02v-7.5c0-1.67 1.35-3.02 3.02-3.02h7.5c1.67 0 3.02 1.35 3.02 3.02v7.5c0 1.67-1.35 3.02-3.02 3.02z"/>
	<path id="&lt;Compound Path&gt; copy" fill-rule="evenodd" class="s1" d="m123.48 25.56v72.43c0 6.04-4.91 10.95-10.95 10.95h-100.76c-6.03 0-10.94-4.91-10.94-10.95v-72.43c0-6.04 4.91-10.95 10.94-10.95h11.51v-9.74c0-2.21 1.79-4 4-4 2.21 0 4 1.79 4 4v9.74h61.74v-9.74c0-2.21 1.8-4 4-4 2.21 0 4 1.79 4 4v9.74h11.51c6.04 0 10.95 4.91 10.95 10.95zm-8 0c0-1.63-1.32-2.95-2.95-2.95h-11.51v6.75c0 2.21-1.79 4-4 4-2.2 0-4-1.79-4-4v-6.75h-61.74v6.75c0 2.21-1.79 4-4 4-2.21 0-4-1.79-4-4v-6.75h-11.51c-1.62 0-2.94 1.32-2.94 2.95v72.43c0 1.62 1.32 2.95 2.94 2.95h100.76c1.63 0 2.95-1.33 2.95-2.95z"/>
</svg>