<svg version="1.2" xmlns="http://www.w3.org/2000/svg" viewBox="0 0 111 104" width="111" height="104">
	<defs>
		<linearGradient id="g1" x2="1" gradientUnits="userSpaceOnUse" gradientTransform="matrix(30.983,0,0,19.894,39.275,21.088)">
			<stop offset="0" stop-color="#f25838"/>
			<stop offset="1" stop-color="#cd0000"/>
		</linearGradient>
		<linearGradient id="g2" x2="1" gradientUnits="userSpaceOnUse" gradientTransform="matrix(29.296,0,0,22.405,39.196,32.753)">
			<stop offset="0" stop-color="#f25838"/>
			<stop offset="1" stop-color="#cd0000"/>
		</linearGradient>
	</defs>
	<style>
		.s0 { fill: #515151 } 
		.s1 { fill: url(#g1) } 
		.s2 { fill: url(#g2) } 
	</style>
	<path id="&lt;Compound Path&gt;" fill-rule="evenodd" class="s0" d="m100.91 90.95h-91.04c-5.24 0-9.49-4.26-9.49-9.49v-12.42c0-2.21 1.79-4 4-4h102.02c2.21 0 4 1.79 4 4v12.42c0 5.23-4.26 9.49-9.49 9.49zm-92.53-17.91v8.42c0 0.82 0.67 1.49 1.49 1.49h91.04c0.82 0 1.49-0.67 1.49-1.49v-8.42z"/>
	<path id="&lt;Path&gt;" class="s0" d="m106.4 73.04c-2.21 0-4-1.79-4-4v-58.35c0-0.82-0.67-1.49-1.49-1.49h-91.04c-0.82 0-1.49 0.67-1.49 1.49v58.35c0 2.21-1.8 4-4 4-2.21 0-4-1.79-4-4v-58.35c0-5.23 4.25-9.49 9.49-9.49h91.04c5.23 0 9.49 4.26 9.49 9.49v58.35c0 2.21-1.79 4-4 4z"/>
	<path id="&lt;Path&gt;" class="s0" d="m55.39 82.07c-2.25 0-4.08-1.83-4.08-4.08 0-2.25 1.83-4.07 4.08-4.07 2.25 0 4.07 1.82 4.07 4.07 0 2.25-1.82 4.08-4.07 4.08z"/>
	<path id="&lt;Path&gt;" class="s0" d="m78.51 104.47h-46.24c-2.21 0-4-1.79-4-4 0-2.21 1.79-4 4-4h46.24c2.21 0 4 1.79 4 4 0 2.21-1.79 4-4 4z"/>
	<path id="&lt;Path&gt;" class="s0" d="m55.39 103.47c-2.21 0-4-1.79-4-4v-12.52c0-2.21 1.79-4 4-4 2.21 0 4 1.79 4 4v12.52c0 2.21-1.79 4-4 4z"/>
	<path id="&lt;Compound Path&gt;" fill-rule="evenodd" class="s1" d="m66.23 40.98h-22.96c-1.09 0-2.13-0.44-2.89-1.23-0.75-0.79-1.15-1.86-1.1-2.95 0.02-0.45 0.26-4.52 2.5-8.48 2.59-4.6 7.32-7.23 12.99-7.23 7.45 0 12.05 4.04 13.88 7.82 1.9 3.92 1.61 7.97 1.57 8.42-0.18 2.07-1.91 3.65-3.99 3.65zm-17.86-8h13.33q-0.11-0.3-0.25-0.59c-0.77-1.6-2.93-3.3-6.68-3.3-3.69 0-5.36 1.98-6.03 3.16q-0.2 0.36-0.37 0.73z"/>
	<path id="&lt;Path&gt;" class="s2" d="m55.7 55.16c-4.92 0-9.3-1.82-12.32-5.13-2.21-2.41-4.71-6.73-4.09-13.63 0.2-2.2 2.14-3.83 4.34-3.63 2.2 0.2 3.83 2.14 3.63 4.34-0.28 3.16 0.42 5.77 2.02 7.52 1.49 1.63 3.77 2.53 6.42 2.53 4.84 0 7.09-2 7.18-2.09l2.77 2.89 2.84 2.82c-0.44 0.44-4.59 4.38-12.79 4.38z"/>
</svg>