<svg version="1.2" xmlns="http://www.w3.org/2000/svg" viewBox="0 0 107 117" width="107" height="117">
	<defs>
		<linearGradient id="g1" x2="1" gradientUnits="userSpaceOnUse" gradientTransform="matrix(45.252,0,0,36.186,30.877,55.123)">
			<stop offset="0" stop-color="#f25838"/>
			<stop offset="1" stop-color="#cd0000"/>
		</linearGradient>
		<linearGradient id="g2" x2="1" gradientUnits="userSpaceOnUse" gradientTransform="matrix(45.252,0,0,36.186,30.877,54.123)">
			<stop offset="0" stop-color="#f25838"/>
			<stop offset="1" stop-color="#cd0000"/>
		</linearGradient>
	</defs>
	<style>
		.s0 { fill: #515151 } 
		.s1 { fill: url(#g1) } 
		.s2 { fill: url(#g2) } 
	</style>
	<path id="&lt;Compound Path&gt;" fill-rule="evenodd" class="s0" d="m70.96 117.16h-34.92c-19.7 0-35.74-16.03-35.74-35.74v-17.2c0-16.09 10.91-30.12 26.04-34.4l-8.11-23.33c-0.42-1.22-0.23-2.58 0.52-3.63 0.75-1.06 1.96-1.69 3.26-1.69h62.99c1.29 0 2.51 0.63 3.26 1.69 0.75 1.05 0.94 2.41 0.52 3.63l-8.12 23.33c15.14 4.28 26.05 18.31 26.05 34.4v17.2c0 19.71-16.04 35.74-35.75 35.74zm-43.32-107.99l7.75 22.31c0.39 1.13 0.26 2.38-0.36 3.4-0.63 1.02-1.68 1.71-2.86 1.87-13.61 1.91-23.87 13.71-23.87 27.47v17.2c0 15.3 12.45 27.74 27.74 27.74h34.92c15.3 0 27.75-12.44 27.75-27.74v-17.2c0-13.76-10.26-25.56-23.87-27.47-1.18-0.16-2.23-0.85-2.86-1.87-0.62-1.02-0.75-2.27-0.36-3.4l7.75-22.31z"/>
	<path id="&lt;Path&gt;" class="s0" d="m79.96 36.27h-52.92v-8h52.92z"/>
	<path id="&lt;Compound Path&gt;" fill-rule="evenodd" class="s1" d="m76.13 69.3v3.92c0 0.35-0.29 0.63-0.64 0.63h-4.82l-4.49 16.99c-0.08 0.28-0.33 0.47-0.63 0.47h-4.64c-0.28 0-0.53-0.2-0.61-0.48l-4.35-16.98h-4.94l-4.36 16.98c-0.07 0.28-0.32 0.48-0.61 0.48h-4.65c-0.28 0-0.53-0.19-0.6-0.47l-4.46-16.99h-4.82c-0.36 0-0.63-0.28-0.63-0.63v-3.92c0-0.35 0.27-0.65 0.63-0.65h3.45l-3.35-12.72q-0.06-0.31 0.12-0.56c0.12-0.16 0.31-0.25 0.51-0.25h4.32c0.29 0 0.55 0.2 0.62 0.48l3.28 13.05h6.53l3.33-13.05c0.06-0.28 0.32-0.48 0.61-0.48h5.15c0.3 0 0.55 0.2 0.62 0.48l3.27 13.05h6.52l3.34-13.05c0.07-0.28 0.32-0.48 0.62-0.48h4.37q0.32 0.01 0.52 0.25 0.17 0.25 0.1 0.56l-3.39 12.72h3.44c0.35 0 0.64 0.3 0.64 0.65zm-14.85 4.55l1.96 7.66 1.97-7.66zm-7.79-9.5l-1.12 4.3h2.22zm-11.74 9.5l1.96 7.66 1.95-7.66z"/>
	<path id="&lt;Compound Path&gt; copy" fill-rule="evenodd" class="s0" d="m70.96 116.16h-34.92c-19.7 0-35.74-16.03-35.74-35.74v-17.2c0-16.09 10.91-30.12 26.04-34.4l-8.11-23.33c-0.42-1.22-0.23-2.58 0.52-3.63 0.75-1.06 1.96-1.69 3.26-1.69h62.99c1.29 0 2.51 0.63 3.26 1.69 0.75 1.05 0.94 2.41 0.52 3.63l-8.12 23.33c15.14 4.28 26.05 18.31 26.05 34.4v17.2c0 19.71-16.04 35.74-35.75 35.74zm-43.32-107.99l7.75 22.31c0.39 1.13 0.26 2.38-0.36 3.4-0.63 1.02-1.68 1.71-2.86 1.87-13.61 1.91-23.87 13.71-23.87 27.47v17.2c0 15.3 12.45 27.74 27.74 27.74h34.92c15.3 0 27.75-12.44 27.75-27.74v-17.2c0-13.76-10.26-25.56-23.87-27.47-1.18-0.16-2.23-0.85-2.86-1.87-0.62-1.02-0.75-2.27-0.36-3.4l7.75-22.31z"/>
	<path id="&lt;Path&gt; copy" class="s0" d="m79.96 35.27h-52.92v-8h52.92z"/>
	<path id="&lt;Compound Path&gt; copy 2" fill-rule="evenodd" class="s2" d="m76.13 68.3v3.92c0 0.35-0.29 0.63-0.64 0.63h-4.82l-4.49 16.99c-0.08 0.28-0.33 0.47-0.63 0.47h-4.64c-0.28 0-0.53-0.2-0.61-0.48l-4.35-16.98h-4.94l-4.36 16.98c-0.07 0.28-0.32 0.48-0.61 0.48h-4.65c-0.28 0-0.53-0.19-0.6-0.47l-4.46-16.99h-4.82c-0.36 0-0.63-0.28-0.63-0.63v-3.92c0-0.35 0.27-0.65 0.63-0.65h3.45l-3.35-12.72q-0.06-0.31 0.12-0.56c0.12-0.16 0.31-0.25 0.51-0.25h4.32c0.29 0 0.55 0.2 0.62 0.48l3.28 13.05h6.53l3.33-13.05c0.06-0.28 0.32-0.48 0.61-0.48h5.15c0.3 0 0.55 0.2 0.62 0.48l3.27 13.05h6.52l3.34-13.05c0.07-0.28 0.32-0.48 0.62-0.48h4.37q0.32 0.01 0.52 0.25 0.17 0.25 0.1 0.56l-3.39 12.72h3.44c0.35 0 0.64 0.3 0.64 0.65zm-14.85 4.55l1.96 7.66 1.97-7.66zm-7.79-9.5l-1.12 4.3h2.22zm-11.74 9.5l1.96 7.66 1.95-7.66z"/>
</svg>