<svg version="1.2" xmlns="http://www.w3.org/2000/svg" viewBox="0 0 102 75" width="102" height="75">
	<style>
		.s0 { fill: #ffffff } 
		.s1 { fill: #333333 } 
		.s2 { fill: #43aee8 } 
	</style>
	<path id="&lt;Path&gt;" class="s0" d="m97.6 2.26c-31.18-3.83-46.6 5-46.6 5 0 0-15.42-8.83-46.6-5l-2.66 4.93v46.68h2.66v-0.8c0 0 30.83-3.95 46.6 5.53 14.26-8.57 40.82-6.16 45.79-5.62l3.47 0.76v-46.55z"/>
	<path id="&lt;Compound Path&gt;" fill-rule="evenodd" class="s1" d="m51 59.85q-0.34 0-0.64-0.18c-8.49-5.1-21.63-6.17-31.17-6.17-6.28 0-11.45 0.47-13.58 0.69-0.14 0.54-0.63 0.93-1.21 0.93h-2.66c-0.69 0-1.25-0.56-1.25-1.25v-46.68q0-0.32 0.15-0.6l2.66-4.92c0.19-0.36 0.55-0.6 0.95-0.65 5.25-0.64 10.41-0.97 15.33-0.97 18.5 0 28.85 4.52 31.42 5.8 2.57-1.28 12.92-5.8 31.42-5.8 4.92 0 10.08 0.33 15.33 0.97 0.41 0.05 0.76 0.29 0.95 0.65l2.66 4.92q0.15 0.28 0.15 0.6v46.55c0 0.38-0.17 0.74-0.47 0.98-0.29 0.23-0.68 0.32-1.05 0.24l-3.41-0.75c-2.02-0.22-7.28-0.71-13.78-0.71-9.53 0-22.67 1.07-31.16 6.17q-0.3 0.18-0.64 0.18zm-31.81-8.85c9.62 0 22.84 1.08 31.81 6.15 8.97-5.07 22.19-6.15 31.8-6.15 6.7 0 12.11 0.51 14.12 0.73q0.07 0.01 0.14 0.02l1.95 0.44v-44.69l-2.2-4.07c-4.94-0.59-9.77-0.88-14.39-0.88-20.37 0-30.7 5.74-30.8 5.8-0.38 0.22-0.86 0.22-1.24 0-0.1-0.06-10.44-5.8-30.8-5.8-4.62 0-9.45 0.29-14.39 0.88l-2.2 4.07v45.12h0.24c0.17-0.42 0.54-0.73 1.01-0.79 0.07-0.01 6.54-0.83 14.95-0.83z"/>
	<path id="&lt;Path&gt;" class="s2" d="m51 13.04c0 0-16.3-10.35-49.26-5.85v59.55c0 0 32.59-4.63 49.26 6.49z"/>
	<path id="&lt;Compound Path&gt;" fill-rule="evenodd" class="s1" d="m51 74.48q-0.37 0-0.69-0.21c-8.97-5.98-22.86-7.23-32.93-7.23-8.72 0-15.4 0.93-15.47 0.94-0.35 0.05-0.72-0.06-0.99-0.29-0.27-0.24-0.43-0.58-0.43-0.95v-59.55c0-0.63 0.46-1.16 1.08-1.24 5.56-0.76 11.02-1.14 16.22-1.14 22.31 0 33.42 6.89 33.88 7.18 0.36 0.23 0.58 0.63 0.58 1.05v60.19c0 0.46-0.25 0.88-0.66 1.1q-0.28 0.15-0.59 0.15zm-33.62-9.94c9.73 0 22.94 1.15 32.37 6.46v-57.23c-2.52-1.36-13.22-6.46-31.96-6.46-4.76 0-9.73 0.32-14.8 0.97v57.05c2.44-0.28 7.8-0.79 14.39-0.79z"/>
	<path id="&lt;Path&gt;" class="s2" d="m51 13.04c0 0 16.3-10.35 49.26-5.85v59.55c0 0-32.59-4.63-49.26 6.49z"/>
	<path id="&lt;Compound Path&gt;" fill-rule="evenodd" class="s1" d="m51 74.48q-0.31 0-0.59-0.15c-0.41-0.22-0.66-0.64-0.66-1.1v-60.19c0-0.42 0.22-0.82 0.58-1.05 0.46-0.29 11.57-7.18 33.88-7.18 5.2 0 10.66 0.38 16.22 1.14 0.62 0.08 1.08 0.61 1.08 1.24v59.55c0 0.37-0.16 0.71-0.43 0.95-0.27 0.23-0.64 0.34-0.99 0.29-0.07-0.01-6.76-0.94-15.47-0.94-10.07 0-23.96 1.25-32.93 7.23q-0.32 0.21-0.69 0.21zm1.25-60.71v57.23c9.43-5.31 22.64-6.46 32.37-6.46 6.59 0 11.95 0.51 14.39 0.79v-57.05c-5.07-0.65-10.04-0.97-14.8-0.97-18.74 0-29.44 5.1-31.96 6.46z"/>
	<path id="&lt;Path&gt;" class="s0" d="m91.09 21.86c-10.23-0.46-20.69 0.88-30.92 4q0-2.67 0-5.33c10.23-3.12 20.69-4.45 30.92-4q0 2.66 0 5.33z"/>
	<path id="&lt;Path&gt;" class="s1" d="m22.34 34.51h-2.5v-28.45q0-0.46 0.29-0.81l4-4.76 1.91 1.61-3.7 4.41z"/>
</svg>