<svg version="1.2" xmlns="http://www.w3.org/2000/svg" viewBox="0 0 155 156" width="155" height="156">
	<style>
		.s0 { fill: #ffce31 } 
		.s1 { fill: #ed4c5c } 
		.s2 { fill: #c8b100 } 
		.s3 { fill: #ffffff } 
		.s4 { fill: #005bbf } 
		.s5 { fill: #c7b500 } 
	</style>
	<path id="&lt;Path&gt;" class="s0" d="m541.42 506.88c0 15.2 4.38 29.37 11.86 41.23h130.64c7.47-11.86 11.85-26.03 11.85-41.23 0-15.2-4.38-29.38-11.85-41.23h-130.64c-7.48 11.85-11.86 26.03-11.86 41.23z"/>
	<path id="&lt;Path&gt;" class="s1" d="m684.18 465.65c-13.66-21.65-37.88-36.08-65.45-36.08-27.58 0-51.8 14.43-65.45 36.08z"/>
	<path id="&lt;Path&gt;" class="s1" d="m553.28 548.11c13.65 21.64 37.87 36.07 65.45 36.07 27.57 0 51.79-14.43 65.45-36.07z"/>
	<path id="&lt;Path&gt;" class="s2" d="m559.98 498.38h8.24v4.63h-8.24z"/>
	<path id="&lt;Path&gt;" class="s2" d="m559.98 532.39h8.5v4.38h-8.5z"/>
	<path id="&lt;Path&gt;" class="s1" d="m559.2 525.17c-0.77 0.52-1.29 1.03-1.29 1.29q0 0.39 0.78 0.78c0.51 0.25 1.03 0.77 0.77 1.28q0.77-0.77 0.77-1.54c0-0.78-0.51-1.55-1.03-1.81z"/>
	<path id="&lt;Path&gt;" class="s3" d="m561.26 503.01h5.93v29.38h-5.93z"/>
	<path id="&lt;Path&gt;" class="s1" d="m573.37 513.84c-1.28-0.52-3.6-1.03-6.18-1.03-0.77 0-1.8 0-2.83 0.25-3.61 0.52-6.45 2.06-6.19 3.1l-1.29-2.84c-0.25-1.29 2.84-2.83 6.7-3.61 1.29-0.25 2.58-0.25 3.61-0.25 2.58 0 4.9 0.25 6.18 0.77z"/>
	<path id="&lt;Path&gt;" class="s1" d="m561.26 517.7c-1.54 0-2.83-0.51-2.83-1.29 0-0.51 0.51-1.29 1.55-1.8h1.54z"/>
	<path id="&lt;Path&gt;" class="s1" d="m567.19 515.38q1.55 0.39 2.32 0.78c0.26 0.25-0.77 1.28-2.32 2.06z"/>
	<path id="&lt;Path&gt;" class="s1" d="m557.4 523.37c-0.26-0.52 1.54-1.55 3.86-2.32 1.03-0.26 1.81-0.77 3.1-1.29 3.09-1.29 5.66-3.09 5.15-3.6l0.51 3.09c0.26 0.51-1.8 2.06-4.89 3.6-1.03 0.52-2.84 1.29-3.87 1.55-1.8 0.52-3.35 1.55-3.35 1.8z"/>
	<path id="&lt;Path&gt;" class="s2" d="m615.38 498.38h8.24v4.63h-8.24z"/>
	<path id="&lt;Path&gt;" class="s2" d="m615.12 532.39h8.5v4.38h-8.5z"/>
	<path id="&lt;Path&gt;" class="s1" d="m624.4 525.17c0.77 0.52 1.28 1.03 1.28 1.29q0 0.39-0.77 0.78c-0.51 0.51-1.03 1.28-0.77 1.54q-0.78-0.77-0.78-1.54c0-1.04 0.52-1.81 1.04-2.07z"/>
	<path id="&lt;Path&gt;" class="s3" d="m616.41 503.01h5.92v29.38h-5.92z"/>
	<path id="&lt;Path&gt;" class="s1" d="m610.22 513.84c1.29-0.52 3.61-1.03 6.19-1.03 0.77 0 1.8 0 2.83 0.25 3.61 0.52 6.44 2.06 6.19 3.1l1.28-3.1c0.26-1.29-2.83-2.83-6.7-3.6h-3.6c-2.58 0-4.9 0.25-6.19 0.77z"/>
	<path id="&lt;Path&gt;" class="s1" d="m622.33 517.7c1.55 0 2.84-0.51 2.84-1.29 0-0.51-0.52-1.29-1.55-1.8h-1.54z"/>
	<path id="&lt;Path&gt;" class="s1" d="m616.41 515.38q-1.55 0.39-2.32 0.78c-0.26 0.25 0.77 1.28 2.32 2.06z"/>
	<path id="&lt;Path&gt;" class="s1" d="m626.2 523.37c0.26-0.52-1.55-1.55-3.87-2.32-1.03-0.26-1.8-0.77-3.09-1.29-3.09-1.29-5.67-3.09-5.15-3.6l-0.52 3.09c-0.25 0.51 1.81 2.06 4.9 3.6 1.03 0.52 2.83 1.29 3.86 1.55 1.81 0.52 3.35 1.8 3.1 2.06 0 0 0.77-3.09 0.77-3.09z"/>
	<path id="&lt;Path&gt;" class="s1" d="m591.67 481.88c4.9 0 14.95 1.03 18.55 4.64-3.86 9.28-10.05 5.41-18.55 5.41-8.25 0-14.69 3.87-18.55-5.41 3.6-3.61 13.4-4.64 18.55-4.64z"/>
	<path id="&lt;Path&gt;" class="s2" d="m604.3 492.19c-3.1-1.8-7.73-2.06-12.63-2.06-4.9 0-9.53 0.51-12.63 2.06l1.03 4.38c2.84 0.77 6.96 1.29 11.6 1.29 4.64 0 8.5-0.52 11.6-1.29z"/>
	<path id="&lt;Path&gt;" class="s2" d="m608.68 481.11c-1.03-0.77-3.1-1.55-4.9-1.55-0.77 0-1.55 0-2.32 0.26 0 0-1.54-2.06-5.15-2.06-1.29 0-2.32 0.26-3.35 0.77v-0.25c-0.26-0.52-0.77-1.03-1.29-1.03-0.52 0-1.29 0.77-1.29 1.28v0.26c-1.03-0.51-2.06-0.77-3.35-0.77-3.61 0-5.15 2.32-5.15 2.06-0.78-0.26-1.55-0.26-2.32-0.26-11.85 0-5.93 7.99-5.93 7.99l1.29-1.55c-2.83-3.6-0.26-5.66 4.9-5.66 0.77 0 1.28 0 1.8 0.25-1.8 2.58 1.55 4.9 1.55 4.9l0.77-1.29c-1.8-1.29-2.06-5.67 3.09-5.67 1.29 0 2.32 0.26 3.35 1.03 0 0.26-0.26 3.87-0.51 4.38l2.06 1.81 2.06-1.81c-0.26-0.77-0.52-4.12-0.52-4.38 0.78-0.51 2.07-1.03 3.35-1.03 5.41 0 5.41 4.38 3.1 5.67l0.77 1.29c0 0 2.83-2.32 1.54-4.9 0.52 0 1.29-0.25 1.81-0.25 6.18 0 6.44 4.63 4.89 5.66l1.04 1.55c-0.52 0 2.31-3.61-1.29-6.7z"/>
	<path id="&lt;Path&gt;" class="s4" d="m590.12 476.21c0-0.77 0.78-1.54 1.55-1.54 1.03 0 1.55 0.77 1.55 1.54 0 0.78-0.78 1.55-1.55 1.55-0.77 0-1.55-0.77-1.55-1.55z"/>
	<path id="&lt;Path&gt;" class="s2" d="m591.15 471.83v0.78h-0.77v0.77h0.77v2.58h-1.03v0.77h3.1l0.25-0.52-0.25-0.25h-1.03v-2.58h0.77v-0.77h-0.77v-0.78z"/>
	<path id="&lt;Path&gt;" class="s1" d="m591.67 497.34c-4.12 0-7.73-0.51-10.57-1.28 2.84-0.78 6.45-1.29 10.57-1.29 4.12 0 7.73 0.51 10.56 1.29-2.57 0.77-6.44 1.28-10.56 1.28z"/>
	<path id="&lt;Path&gt;" class="s3" d="m591.93 541.92c-4.9 0-9.54-1.29-13.66-3.09-3.09-1.55-4.9-4.38-4.9-7.73v-12.37h37.11v12.37c0 3.35-2.06 6.44-4.9 7.73-4.12 2.06-8.76 3.09-13.65 3.09z"/>
	<path id="&lt;Path&gt;" class="s3" d="m591.67 498.12h18.55v20.61h-18.55z"/>
	<path id="&lt;Path&gt;" class="s1" d="m591.93 531.1c0 4.9-4.13 8.76-9.28 8.76-5.15 0-9.28-3.86-9.28-8.76v-12.37h18.56z"/>
	<path id="&lt;Path&gt;" class="s2" d="m577.24 538.32c0.52 0.25 1.29 0.77 2.32 1.03v-21.13h-2.06z"/>
	<path id="&lt;Path&gt;" class="s2" d="m573.12 530.84c0 2.58 1.03 4.64 2.06 5.67v-18.29h-2.06z"/>
	<path id="&lt;Path&gt;" class="s5" d="m581.36 539.86h2.06v-21.64h-2.06z"/>
	<path id="&lt;Path&gt;" class="s2" d="m585.49 539.35c0.77-0.26 1.8-0.78 2.31-1.03v-20.1h-2.06z"/>
	<path id="&lt;Path&gt;" class="s1" d="m573.12 498.12h18.55v20.61h-18.55z"/>
	<path id="&lt;Path&gt;" class="s2" d="m589.87 536.51c1.03-0.77 1.8-2.57 2.06-4.64v-13.4h-2.06z"/>
	<path id="&lt;Path&gt;" class="s1" d="m610.48 518.73v12.37c0 4.9-4.12 8.76-9.28 8.76-5.15 0-9.27-3.86-9.27-8.76v-12.37z"/>
	<path id="&lt;Path&gt;" class="s1" d="m603.78 501.72c0.77 1.55 0.77 5.42-1.55 4.64 0.52 0.26 0.78 2.06 1.55 3.1 1.29 1.54 2.84 0.25 2.58-1.55-0.52-2.84-0.26-4.64 0.26-7.47 0 0.25 1.28 0.25 1.8-0.26-0.26 0.77-0.52 1.8 0 1.8-0.52 0.78-1.8 2.06-2.06 2.84-0.26 1.8 2.57 5.15-0.52 5.92-2.06 0.52-0.77 2.07 0 2.84 0 0-1.03 3.35-0.51 3.09-2.06 0.77-1.55-1.03-1.55-1.03 1.03-3.09-1.8-3.35-1.55-3.87-2.57-0.25 0.26 2.32-2.06 2.32-0.51 0-1.54 0.52-1.54 0.52-2.84-0.26-1.29-2.84-0.26-2.58 0.77 0.26 1.55 1.55 1.55-0.26 0 0-1.29-2.06 2.06-2.06-1.29 0-2.06-1.03-2.58-2.32-0.51 0.26-1.29 1.55-4.12 1.81 0 0-0.78-2.84 0-2.32 1.03 0.51 1.54 0.51 2.57-0.52-0.51-0.77-3.6-1.8-3.09-3.6 0-0.52 1.55-1.29 1.55-1.29-0.26 1.29 0.51 2.57 2.06 2.57 2.06 0.26 1.29-0.51 1.55-1.03 0.25-0.51 1.8 0.26 1.28-1.03 0-0.26-1.8-0.51-1.28-1.29 1.03-1.28 2.57-0.25 3.86 1.03z"/>
	<path id="&lt;Path&gt;" class="s1" d="m591.93 539.35l-0.52-1.29 0.52-1.55 0.51 1.55z"/>
	<path id="&lt;Path&gt;" class="s2" d="m578.79 502.5v1.29h0.51v1.03h-1.29v2.57h0.78v5.67h-1.55v2.84h10.56v-2.84h-1.28v-5.67h0.51v-2.57h-1.29v-1.03h0.78v-1.29h-2.58v1.29h0.51v1.03h-1.28v-3.1h0.77v-1.28h-2.84v1.28h0.78v3.1h-1.29v-1.03h0.51v-1.29z"/>
	<path id="&lt;Compound Path&gt;" fill-rule="evenodd" class="s2" d="m601.46 537.03h-0.77l-6.19-2.84v-12.88h13.4v12.88zm-5.15-14.69l4.38 4.39v-4.39zm-1.03 10.57l5.15-5.15-5.15-5.16zm5.41 3.35v-7.21l-4.89 4.89zm5.66-2.57l-4.89-4.9v7.22c0 0 4.89-2.32 4.89-2.32zm0.52-11.08l-5.15 5.15 5.15 5.15zm-5.41 4.13l4.38-4.38h-4.38z"/>
	<path id="&lt;Path&gt;" class="s1" d="m585.74 518.47c0-3.86 2.58-6.7 5.93-6.7 3.35 0 5.93 3.1 5.93 6.7 0 3.61-2.58 6.7-5.93 6.7-3.35 0-5.93-2.83-5.93-6.7z"/>
	<path id="&lt;Path&gt;" class="s4" d="m587.55 518.47c0-2.83 1.8-4.89 4.12-4.89 2.32 0 4.12 2.32 4.12 4.89 0 2.84-1.8 4.9-4.12 4.9-2.06 0.26-4.12-2.06-4.12-4.9z"/>
	<path id="&lt;Path&gt;" class="s2" d="m589.87 515.12l-1.03 2.84 0.77 0.26-0.52 1.03h1.55l-0.52-1.03 0.78-0.26z"/>
	<path id="&lt;Path&gt;" class="s2" d="m593.73 515.12l-1.03 2.84 0.77 0.26-0.51 1.03h1.54l-0.25-1.03 0.77-0.26z"/>
	<path id="&lt;Path&gt;" class="s2" d="m591.93 518.47l-1.29 2.84 0.77 0.26-0.26 1.03h1.29l-0.25-1.03 0.77-0.26z"/>
	<path id="&lt;Path&gt;" class="s0" d="m0.42 76.88c0 15.2 4.38 29.37 11.86 41.23h130.64c7.47-11.86 11.85-26.03 11.85-41.23 0-15.2-4.38-29.38-11.85-41.23h-130.64c-7.48 11.85-11.86 26.03-11.86 41.23z"/>
	<path id="&lt;Path&gt;" class="s1" d="m143.18 35.65c-13.66-21.65-37.88-36.08-65.45-36.08-27.58 0-51.8 14.43-65.45 36.08z"/>
	<path id="&lt;Path&gt;" class="s1" d="m12.28 118.11c13.65 21.64 37.87 36.07 65.45 36.07 27.57 0 51.79-14.43 65.45-36.07z"/>
	<path id="&lt;Path&gt;" class="s2" d="m18.98 68.38h8.24v4.63h-8.24z"/>
	<path id="&lt;Path&gt;" class="s2" d="m18.98 102.39h8.5v4.38h-8.5z"/>
	<path id="&lt;Path&gt;" class="s1" d="m18.2 95.17c-0.77 0.52-1.29 1.03-1.29 1.29q0 0.39 0.78 0.78c0.51 0.25 1.03 0.77 0.77 1.28q0.77-0.77 0.77-1.54c0-0.78-0.51-1.55-1.03-1.81z"/>
	<path id="&lt;Path&gt;" class="s3" d="m20.26 73.01h5.93v29.38h-5.93z"/>
	<path id="&lt;Path&gt;" class="s1" d="m32.37 83.84c-1.28-0.52-3.6-1.03-6.18-1.03-0.77 0-1.8 0-2.83 0.25-3.61 0.52-6.45 2.06-6.19 3.1l-1.29-2.84c-0.25-1.29 2.84-2.83 6.7-3.61 1.29-0.25 2.58-0.25 3.61-0.25 2.58 0 4.9 0.25 6.18 0.77z"/>
	<path id="&lt;Path&gt;" class="s1" d="m20.26 87.7c-1.54 0-2.83-0.51-2.83-1.29 0-0.51 0.51-1.29 1.55-1.8h1.54z"/>
	<path id="&lt;Path&gt;" class="s1" d="m26.19 85.38q1.55 0.39 2.32 0.78c0.26 0.25-0.77 1.28-2.32 2.06z"/>
	<path id="&lt;Path&gt;" class="s1" d="m16.4 93.37c-0.26-0.52 1.54-1.55 3.86-2.32 1.03-0.26 1.81-0.77 3.1-1.29 3.09-1.29 5.66-3.09 5.15-3.6l0.51 3.09c0.26 0.51-1.8 2.06-4.89 3.6-1.03 0.52-2.84 1.29-3.87 1.55-1.8 0.52-3.35 1.55-3.35 1.8z"/>
	<path id="&lt;Path&gt;" class="s2" d="m74.38 68.38h8.24v4.63h-8.24z"/>
	<path id="&lt;Path&gt;" class="s2" d="m74.12 102.39h8.5v4.38h-8.5z"/>
	<path id="&lt;Path&gt;" class="s1" d="m83.4 95.17c0.77 0.52 1.28 1.03 1.28 1.29q0 0.39-0.77 0.78c-0.51 0.51-1.03 1.28-0.77 1.54q-0.78-0.77-0.78-1.54c0-1.04 0.52-1.81 1.04-2.07z"/>
	<path id="&lt;Path&gt;" class="s3" d="m75.41 73.01h5.92v29.38h-5.92z"/>
	<path id="&lt;Path&gt;" class="s1" d="m69.22 83.84c1.29-0.52 3.61-1.03 6.19-1.03 0.77 0 1.8 0 2.83 0.25 3.61 0.52 6.44 2.06 6.19 3.1l1.28-3.1c0.26-1.29-2.83-2.83-6.7-3.6h-3.6c-2.58 0-4.9 0.25-6.19 0.77z"/>
	<path id="&lt;Path&gt;" class="s1" d="m81.33 87.7c1.55 0 2.84-0.51 2.84-1.29 0-0.51-0.52-1.29-1.55-1.8h-1.54z"/>
	<path id="&lt;Path&gt;" class="s1" d="m75.41 85.38q-1.55 0.39-2.32 0.78c-0.26 0.25 0.77 1.28 2.32 2.06z"/>
	<path id="&lt;Path&gt;" class="s1" d="m85.2 93.37c0.26-0.52-1.55-1.55-3.87-2.32-1.03-0.26-1.8-0.77-3.09-1.29-3.09-1.29-5.67-3.09-5.15-3.6l-0.52 3.09c-0.25 0.51 1.81 2.06 4.9 3.6 1.03 0.52 2.83 1.29 3.86 1.55 1.81 0.52 3.35 1.8 3.1 2.06 0 0 0.77-3.09 0.77-3.09z"/>
	<path id="&lt;Path&gt;" class="s1" d="m50.67 51.88c4.9 0 14.95 1.03 18.55 4.64-3.86 9.28-10.05 5.41-18.55 5.41-8.25 0-14.69 3.87-18.55-5.41 3.6-3.61 13.4-4.64 18.55-4.64z"/>
	<path id="&lt;Path&gt;" class="s2" d="m63.3 62.19c-3.1-1.8-7.73-2.06-12.63-2.06-4.9 0-9.53 0.51-12.63 2.06l1.03 4.38c2.84 0.77 6.96 1.29 11.6 1.29 4.64 0 8.5-0.52 11.6-1.29z"/>
	<path id="&lt;Path&gt;" class="s2" d="m67.68 51.11c-1.03-0.77-3.1-1.55-4.9-1.55-0.77 0-1.55 0-2.32 0.26 0 0-1.54-2.06-5.15-2.06-1.29 0-2.32 0.26-3.35 0.77v-0.25c-0.26-0.52-0.77-1.03-1.29-1.03-0.52 0-1.29 0.77-1.29 1.28v0.26c-1.03-0.51-2.06-0.77-3.35-0.77-3.61 0-5.15 2.32-5.15 2.06-0.78-0.26-1.55-0.26-2.32-0.26-11.85 0-5.93 7.99-5.93 7.99l1.29-1.55c-2.83-3.6-0.26-5.66 4.9-5.66 0.77 0 1.28 0 1.8 0.25-1.8 2.58 1.55 4.9 1.55 4.9l0.77-1.29c-1.8-1.29-2.06-5.67 3.09-5.67 1.29 0 2.32 0.26 3.35 1.03 0 0.26-0.26 3.87-0.51 4.38l2.06 1.81 2.06-1.81c-0.26-0.77-0.52-4.12-0.52-4.38 0.78-0.51 2.07-1.03 3.35-1.03 5.41 0 5.41 4.38 3.1 5.67l0.77 1.29c0 0 2.83-2.32 1.54-4.9 0.52 0 1.29-0.25 1.81-0.25 6.18 0 6.44 4.63 4.89 5.66l1.04 1.55c-0.52 0 2.31-3.61-1.29-6.7z"/>
	<path id="&lt;Path&gt;" class="s4" d="m49.12 46.21c0-0.77 0.78-1.54 1.55-1.54 1.03 0 1.55 0.77 1.55 1.54 0 0.78-0.78 1.55-1.55 1.55-0.77 0-1.55-0.77-1.55-1.55z"/>
	<path id="&lt;Path&gt;" class="s2" d="m50.15 41.83v0.78h-0.77v0.77h0.77v2.58h-1.03v0.77h3.1l0.25-0.52-0.25-0.25h-1.03v-2.58h0.77v-0.77h-0.77v-0.78z"/>
	<path id="&lt;Path&gt;" class="s1" d="m50.67 67.34c-4.12 0-7.73-0.51-10.57-1.28 2.84-0.78 6.45-1.29 10.57-1.29 4.12 0 7.73 0.51 10.56 1.29-2.57 0.77-6.44 1.28-10.56 1.28z"/>
	<path id="&lt;Path&gt;" class="s3" d="m50.93 111.92c-4.9 0-9.54-1.29-13.66-3.09-3.09-1.55-4.9-4.38-4.9-7.73v-12.37h37.11v12.37c0 3.35-2.06 6.44-4.9 7.73-4.12 2.06-8.76 3.09-13.65 3.09z"/>
	<path id="&lt;Path&gt;" class="s3" d="m50.67 68.12h18.55v20.61h-18.55z"/>
	<path id="&lt;Path&gt;" class="s1" d="m50.93 101.1c0 4.9-4.13 8.76-9.28 8.76-5.15 0-9.28-3.86-9.28-8.76v-12.37h18.56z"/>
	<path id="&lt;Path&gt;" class="s2" d="m36.24 108.32c0.52 0.25 1.29 0.77 2.32 1.03v-21.13h-2.06z"/>
	<path id="&lt;Path&gt;" class="s2" d="m32.12 100.84c0 2.58 1.03 4.64 2.06 5.67v-18.29h-2.06z"/>
	<path id="&lt;Path&gt;" class="s5" d="m40.36 109.86h2.06v-21.64h-2.06z"/>
	<path id="&lt;Path&gt;" class="s2" d="m44.49 109.35c0.77-0.26 1.8-0.78 2.31-1.03v-20.1h-2.06z"/>
	<path id="&lt;Path&gt;" class="s1" d="m32.12 68.12h18.55v20.61h-18.55z"/>
	<path id="&lt;Path&gt;" class="s2" d="m48.87 106.51c1.03-0.77 1.8-2.57 2.06-4.64v-13.4h-2.06z"/>
	<path id="&lt;Path&gt;" class="s1" d="m69.48 88.73v12.37c0 4.9-4.12 8.76-9.28 8.76-5.15 0-9.27-3.86-9.27-8.76v-12.37z"/>
	<path id="&lt;Path&gt;" class="s1" d="m62.78 71.72c0.77 1.55 0.77 5.42-1.55 4.64 0.52 0.26 0.78 2.06 1.55 3.1 1.29 1.54 2.84 0.25 2.58-1.55-0.52-2.84-0.26-4.64 0.26-7.47 0 0.25 1.28 0.25 1.8-0.26-0.26 0.77-0.52 1.8 0 1.8-0.52 0.78-1.8 2.06-2.06 2.84-0.26 1.8 2.57 5.15-0.52 5.92-2.06 0.52-0.77 2.07 0 2.84 0 0-1.03 3.35-0.51 3.09-2.06 0.77-1.55-1.03-1.55-1.03 1.03-3.09-1.8-3.35-1.55-3.87-2.57-0.25 0.26 2.32-2.06 2.32-0.51 0-1.54 0.52-1.54 0.52-2.84-0.26-1.29-2.84-0.26-2.58 0.77 0.26 1.55 1.55 1.55-0.26 0 0-1.29-2.06 2.06-2.06-1.29 0-2.06-1.03-2.58-2.32-0.51 0.26-1.29 1.55-4.12 1.81 0 0-0.78-2.84 0-2.32 1.03 0.51 1.54 0.51 2.57-0.52-0.51-0.77-3.6-1.8-3.09-3.6 0-0.52 1.55-1.29 1.55-1.29-0.26 1.29 0.51 2.57 2.06 2.57 2.06 0.26 1.29-0.51 1.55-1.03 0.25-0.51 1.8 0.26 1.28-1.03 0-0.26-1.8-0.51-1.28-1.29 1.03-1.28 2.57-0.25 3.86 1.03z"/>
	<path id="&lt;Path&gt;" class="s1" d="m50.93 109.35l-0.52-1.29 0.52-1.55 0.51 1.55z"/>
	<path id="&lt;Path&gt;" class="s2" d="m37.79 72.5v1.29h0.51v1.03h-1.29v2.57h0.78v5.67h-1.55v2.84h10.56v-2.84h-1.28v-5.67h0.51v-2.57h-1.29v-1.03h0.78v-1.29h-2.58v1.29h0.51v1.03h-1.28v-3.1h0.77v-1.28h-2.84v1.28h0.78v3.1h-1.29v-1.03h0.51v-1.29z"/>
	<path id="&lt;Compound Path&gt;" fill-rule="evenodd" class="s2" d="m60.46 107.03h-0.77l-6.19-2.84v-12.88h13.4v12.88zm-5.15-14.69l4.38 4.39v-4.39zm-1.03 10.57l5.15-5.15-5.15-5.16zm5.41 3.35v-7.21l-4.89 4.89zm5.66-2.57l-4.89-4.9v7.22c0 0 4.89-2.32 4.89-2.32zm0.52-11.08l-5.15 5.15 5.15 5.15zm-5.41 4.13l4.38-4.38h-4.38z"/>
	<path id="&lt;Path&gt;" class="s1" d="m44.74 88.47c0-3.86 2.58-6.7 5.93-6.7 3.35 0 5.93 3.1 5.93 6.7 0 3.61-2.58 6.7-5.93 6.7-3.35 0-5.93-2.83-5.93-6.7z"/>
	<path id="&lt;Path&gt;" class="s4" d="m46.55 88.47c0-2.83 1.8-4.89 4.12-4.89 2.32 0 4.12 2.32 4.12 4.89 0 2.84-1.8 4.9-4.12 4.9-2.06 0.26-4.12-2.06-4.12-4.9z"/>
	<path id="&lt;Path&gt;" class="s2" d="m48.87 85.12l-1.03 2.84 0.77 0.26-0.52 1.03h1.55l-0.52-1.03 0.78-0.26z"/>
	<path id="&lt;Path&gt;" class="s2" d="m52.73 85.12l-1.03 2.84 0.77 0.26-0.51 1.03h1.54l-0.25-1.03 0.77-0.26z"/>
	<path id="&lt;Path&gt;" class="s2" d="m50.93 88.47l-1.29 2.84 0.77 0.26-0.26 1.03h1.29l-0.25-1.03 0.77-0.26z"/>
</svg>