<svg version="1.2" xmlns="http://www.w3.org/2000/svg" viewBox="0 0 155 156" width="155" height="156">
	<style>
		.s0 { fill: #f5f5f5 } 
		.s1 { fill: #ed4c5c } 
		.s2 { fill: #003478 } 
		.s3 { fill: #428bc1 } 
		.s4 { fill: #3e4347 } 
	</style>
	<path id="&lt;Path&gt;" class="s0" d="m77.27-0.43c42.7 0 77.31 34.61 77.31 77.31 0 42.69-34.61 77.3-77.31 77.3-42.69 0-77.3-34.61-77.3-77.3 0-42.7 34.61-77.31 77.3-77.31z"/>
	<path id="&lt;Path&gt;" class="s1" d="m55.11 81.26c7.22 4.9 17.27 2.83 22.16-4.38 4.9-7.22 14.69-9.28 22.16-4.38 6.96 4.64 9.02 13.66 5.16 20.61 8.5-14.43 4.64-33.24-9.79-42.77-14.69-9.79-34.53-5.93-44.33 8.76-0.25 0.51-0.51 1.03-0.77 1.29-3.61 7.47-1.29 16.23 5.41 20.87z"/>
	<path id="&lt;Path&gt;" class="s2" d="m103.81 94.66c0.26-0.52 0.52-1.03 0.78-1.29-0.26 0.26-0.52 0.77-0.78 1.29z"/>
	<path id="&lt;Path&gt;" class="s3" d="m99.43 72.5c-7.21-4.9-17.26-2.84-22.16 4.38-4.89 7.21-14.68 9.28-22.16 4.38-6.95-4.64-9.02-13.66-5.15-20.62-8.76 14.43-4.64 33.25 9.79 42.78 14.69 9.79 34.53 5.93 44.32-8.76 0.26-0.52 0.52-1.03 0.78-1.29 3.6-7.47 1.28-16.23-5.42-20.87z"/>
	<path id="&lt;Path&gt;" class="s4" d="m14.91 54.46l17.78-26.54-1.8-1.29-1.8-1.03-17.78 26.54 1.8 1.03z"/>
	<path id="&lt;Path&gt;" class="s4" d="m19.81 57.81l1.8 1.03 17.53-26.54-1.55-1.03-1.8-1.29-17.78 26.54z"/>
	<path id="&lt;Path&gt;" class="s4" d="m42.23 34.36l-17.52 26.54 1.8 1.29 1.8 1.03 17.53-26.54-1.81-1.03z"/>
	<path id="&lt;Path&gt;" class="s4" d="m119.79 103.94l1.8 1.28 8.25-12.37-1.8-1.28-1.81-1.03-8.24 12.36z"/>
	<path id="&lt;Path&gt;" class="s4" d="m139.63 99.3l-8.24 12.37 1.8 1.28 1.8 1.03 8.25-12.36-1.8-1.03z"/>
	<path id="&lt;Path&gt;" class="s4" d="m128.29 109.6l8.25-12.36-1.8-1.29-1.81-1.03-8.24 12.36 1.8 1.04z"/>
	<path id="&lt;Path&gt;" class="s4" d="m118.76 105.74l-1.8-1.03-8.25 12.37 1.8 1.03 1.81 1.29 8.24-12.37z"/>
	<path id="&lt;Path&gt;" class="s4" d="m125.2 110.12l-1.54-1.03-8.25 12.37 1.55 1.03 1.8 1.29 8.25-12.37z"/>
	<path id="&lt;Path&gt;" class="s4" d="m130.1 113.47l-8.25 12.37 1.81 1.29 1.8 1.03 8.25-12.37-1.81-1.29z"/>
	<path id="&lt;Path&gt;" class="s4" d="m13.11 100.59l-1.8 1.03 17.78 26.54 1.8-1.03 1.8-1.29-17.78-26.54z"/>
	<path id="&lt;Path&gt;" class="s4" d="m29.34 110.12l-1.8 1.29 8.25 12.37 1.8-1.29 1.55-1.03-8.25-12.37z"/>
	<path id="&lt;Path&gt;" class="s4" d="m26.51 91.57l-1.8 1.28 17.52 26.55 1.8-1.29 1.81-1.03-17.53-26.54z"/>
	<path id="&lt;Path&gt;" class="s4" d="m18.01 97.24l8.24 12.36 1.81-1.28 1.8-1.04-8.25-12.36-1.8 1.03z"/>
	<path id="&lt;Path&gt;" class="s4" d="m131.9 39.26l1.81-1.29-8.25-12.37-1.8 1.03-1.81 1.29 8.25 12.37z"/>
	<path id="&lt;Path&gt;" class="s4" d="m118.76 48.02l1.8-1.29-8.24-12.37-1.81 1.29-1.8 1.03 8.25 12.37z"/>
	<path id="&lt;Path&gt;" class="s4" d="m131.39 42.09l8.24 12.37 1.81-1.29 1.8-1.03-8.25-12.37-1.8 1.03z"/>
	<path id="&lt;Path&gt;" class="s4" d="m134.74 57.81l1.8-1.29-17.78-26.54-1.8 1.29-1.55 1.03 17.52 26.54z"/>
	<path id="&lt;Path&gt;" class="s4" d="m128.04 62.19l1.8-1.29-8.25-12.37-1.8 1.29-1.8 1.03 8.24 12.37z"/>
</svg>