<svg version="1.2" xmlns="http://www.w3.org/2000/svg" viewBox="0 0 104 104" width="104" height="104">
	<style>
		.s0 { fill: #ffffff } 
		.s1 { fill: #595757 } 
		.s2 { fill: #efefef } 
		.s3 { fill: #ff7866 } 
	</style>
	<path id="&lt;Path&gt;" class="s0" d="m92.42 47.32c0-24.82-20.11-44.93-44.93-44.93-24.81 0-44.92 20.11-44.92 44.93 0 24.81 20.11 44.92 44.92 44.92 24.82 0 44.93-20.11 44.93-44.92z"/>
	<path id="&lt;Compound Path&gt;" fill-rule="evenodd" class="s1" d="m47.49 94.49c-26.01 0-47.17-21.16-47.17-47.17 0-26.01 21.16-47.18 47.17-47.18 26.02 0 47.18 21.17 47.18 47.18 0 26.01-21.16 47.17-47.18 47.17zm0-89.85c-23.53 0-42.67 19.15-42.67 42.68 0 23.53 19.14 42.67 42.67 42.67 23.54 0 42.68-19.14 42.68-42.67 0-23.53-19.14-42.68-42.68-42.68z"/>
	<path id="&lt;Path&gt;" class="s2" d="m83.39 47.32c0-19.83-16.07-35.9-35.9-35.9-19.82 0-35.9 16.07-35.9 35.9 0 19.83 16.08 35.9 35.9 35.9 19.83 0 35.9-16.07 35.9-35.9z"/>
	<path id="&lt;Path&gt;" class="s1" d="m19.18 47.32c0-1.51-1.22-2.74-2.74-2.74-1.51 0-2.73 1.23-2.73 2.74 0 1.51 1.22 2.73 2.73 2.73 1.52 0 2.74-1.22 2.74-2.73z"/>
	<path id="&lt;Path&gt;" class="s1" d="m81.28 47.32c0-1.51-1.23-2.74-2.74-2.74-1.51 0-2.73 1.23-2.73 2.74 0 1.51 1.22 2.73 2.73 2.73 1.51 0 2.74-1.22 2.74-2.73z"/>
	<path id="&lt;Path&gt;" class="s1" d="m47.49 19c1.51 0 2.74-1.22 2.74-2.73 0-1.51-1.23-2.74-2.74-2.74-1.51 0-2.73 1.23-2.73 2.74 0 1.51 1.22 2.73 2.73 2.73z"/>
	<path id="&lt;Path&gt;" class="s1" d="m47.49 81.1c1.51 0 2.74-1.22 2.74-2.73 0-1.52-1.23-2.74-2.74-2.74-1.51 0-2.73 1.22-2.73 2.74 0 1.51 1.22 2.73 2.73 2.73z"/>
	<path id="&lt;Path&gt;" class="s0" d="m51.43 43.56c0 2.18-1.77 3.94-3.94 3.94-2.17 0-3.93-1.76-3.93-3.94v-9.76c0-2.17 1.76-3.93 3.93-3.93 2.17 0 3.94 1.76 3.94 3.93z"/>
	<path id="&lt;Compound Path&gt;" fill-rule="evenodd" class="s3" d="m47.49 49.75c-3.4 0-6.18-2.78-6.18-6.19v-9.76c0-3.41 2.78-6.18 6.18-6.18 3.41 0 6.19 2.77 6.19 6.18v9.76c0 3.41-2.78 6.19-6.19 6.19zm0-17.63c-0.92 0-1.68 0.75-1.68 1.68v9.76c0 0.93 0.76 1.69 1.68 1.69 0.93 0 1.69-0.76 1.69-1.69v-9.76c0-0.93-0.76-1.68-1.69-1.68z"/>
	<path id="&lt;Path&gt;" class="s3" d="m27.35 69.69c-0.58 0-1.15-0.22-1.59-0.66-0.88-0.88-0.88-2.3 0-3.18l18.51-18.51c0.88-0.88 2.3-0.88 3.18 0 0.88 0.87 0.88 2.3 0 3.18l-18.51 18.51c-0.44 0.44-1.01 0.66-1.59 0.66z"/>
	<path id="&lt;Path&gt;" class="s0" d="m52.82 47.32c0-2.94-2.38-5.33-5.33-5.33-2.94 0-5.32 2.39-5.32 5.33 0 2.94 2.38 5.33 5.32 5.33 2.95 0 5.33-2.39 5.33-5.33z"/>
	<path id="&lt;Compound Path&gt;" fill-rule="evenodd" class="s1" d="m47.49 54.9c-4.17 0-7.57-3.4-7.57-7.58 0-4.18 3.4-7.58 7.57-7.58 4.18 0 7.58 3.4 7.58 7.58 0 4.18-3.4 7.58-7.58 7.58zm0-10.66c-1.69 0-3.07 1.38-3.07 3.08 0 1.7 1.38 3.08 3.07 3.08 1.7 0 3.08-1.38 3.08-3.08 0-1.7-1.38-3.08-3.08-3.08z"/>
	<path id="&lt;Path&gt;" class="s0" d="m58.61 63.27v38.34h36.99c3.26 0 5.91-2.65 5.91-5.91v-32.43z"/>
	<path id="&lt;Compound Path&gt;" fill-rule="evenodd" class="s1" d="m95.6 103.86h-36.99c-1.25 0-2.25-1.01-2.25-2.25v-38.34c0-1.24 1-2.25 2.25-2.25h42.9c1.24 0 2.25 1.01 2.25 2.25v32.43c0 4.5-3.66 8.16-8.16 8.16zm-34.74-4.5h34.74c2.02 0 3.66-1.64 3.66-3.66v-30.18h-38.4z"/>
	<path id="&lt;Path&gt;" class="s3" d="m101.51 74.17v-10.9h-42.9v10.9"/>
	<path id="&lt;Path&gt;" class="s1" d="m101.51 76.42c-1.25 0-2.25-1-2.25-2.25v-8.65h-38.4v8.65c0 1.25-1.01 2.25-2.25 2.25-1.25 0-2.25-1-2.25-2.25v-10.9c0-1.24 1-2.25 2.25-2.25h42.9c1.24 0 2.25 1.01 2.25 2.25v10.9c0 1.25-1.01 2.25-2.25 2.25z"/>
	<path id="&lt;Path&gt;" class="s1" d="m73.69 64.9c-1.25 0-2.25-1.01-2.25-2.25v-5.88c0-1.25 1-2.25 2.25-2.25 1.24 0 2.25 1 2.25 2.25v5.88c0 1.24-1.01 2.25-2.25 2.25z"/>
	<path id="&lt;Path&gt;" class="s1" d="m86.42 64.9c-1.24 0-2.25-1.01-2.25-2.25v-5.88c0-1.25 1.01-2.25 2.25-2.25 1.25 0 2.25 1 2.25 2.25v5.88c0 1.24-1 2.25-2.25 2.25z"/>
	<path id="&lt;Path&gt;" class="s1" d="m77.94 93.91c-0.58 0-1.15-0.22-1.59-0.66l-5.57-5.57c-0.88-0.88-0.88-2.3 0-3.18 0.88-0.88 2.3-0.88 3.18 0l3.98 3.98 8.21-8.21c0.88-0.88 2.31-0.88 3.18 0 0.88 0.87 0.88 2.3 0 3.18l-9.8 9.8c-0.44 0.44-1.02 0.66-1.59 0.66z"/>
</svg>