<svg version="1.2" xmlns="http://www.w3.org/2000/svg" viewBox="0 0 104 104" width="104" height="104">
	<style>
		.s0 { fill: #ffffff } 
		.s1 { fill: #595757 } 
		.s2 { fill: #efefef } 
		.s3 { fill: #ff7866 } 
	</style>
	<path id="&lt;Path&gt;" class="s0" d="m2.76 37.08v63.57h44.8 19.93 10.33v-10.33-19.93-33.31z"/>
	<path id="&lt;Compound Path&gt;" fill-rule="evenodd" class="s1" d="m77.82 102.9h-75.06c-1.24 0-2.25-1.01-2.25-2.25v-63.57c0-1.24 1.01-2.25 2.25-2.25h75.06c1.24 0 2.25 1.01 2.25 2.25v63.57c0 1.24-1.01 2.25-2.25 2.25zm-72.81-4.5h70.56v-59.07h-70.56z"/>
	<path id="&lt;Path&gt;" class="s2" d="m66.42 67.57c0-14.43-11.7-26.13-26.13-26.13-14.42 0-26.12 11.7-26.12 26.13 0 14.42 11.7 26.12 26.12 26.12 14.43 0 26.13-11.7 26.13-26.12z"/>
	<path id="&lt;Path&gt;" class="s0" d="m10.65 9.48v63.57h64.73c5.71 0 10.33-4.62 10.33-10.33v-53.24z"/>
	<path id="&lt;Compound Path&gt;" fill-rule="evenodd" class="s1" d="m75.38 75.3h-64.73c-1.24 0-2.25-1.01-2.25-2.25v-63.57c0-1.24 1.01-2.25 2.25-2.25h75.06c1.24 0 2.25 1.01 2.25 2.25v53.24c0 6.94-5.64 12.58-12.58 12.58zm-62.48-4.5h62.48c4.46 0 8.08-3.63 8.08-8.08v-50.99h-70.56z"/>
	<path id="&lt;Path&gt;" class="s3" d="m85.71 21.94v-12.46h-75.06v12.46"/>
	<path id="&lt;Path&gt;" class="s1" d="m85.71 24.19c-1.24 0-2.25-1.01-2.25-2.25v-10.21h-70.56v10.21c0 1.24-1 2.25-2.25 2.25-1.24 0-2.25-1.01-2.25-2.25v-12.46c0-1.24 1.01-2.25 2.25-2.25h75.06c1.24 0 2.25 1.01 2.25 2.25v12.46c0 1.24-1.01 2.25-2.25 2.25z"/>
	<path id="&lt;Path&gt;" class="s1" d="m22.46 10.64c-1.24 0-2.25-1.01-2.25-2.25v-5.04c0-1.24 1.01-2.25 2.25-2.25 1.24 0 2.25 1.01 2.25 2.25v5.04c0 1.24-1.01 2.25-2.25 2.25z"/>
	<path id="&lt;Path&gt;" class="s1" d="m48.18 10.64c-1.24 0-2.25-1.01-2.25-2.25v-5.04c0-1.24 1.01-2.25 2.25-2.25 1.24 0 2.25 1.01 2.25 2.25v5.04c0 1.24-1.01 2.25-2.25 2.25z"/>
	<path id="&lt;Path&gt;" class="s1" d="m73.9 10.64c-1.24 0-2.25-1.01-2.25-2.25v-5.04c0-1.24 1.01-2.25 2.25-2.25 1.25 0 2.25 1.01 2.25 2.25v5.04c0 1.24-1 2.25-2.25 2.25z"/>
	<path id="&lt;Compound Path&gt;" fill-rule="evenodd" class="s1" d="m29.9 43.16c-3.33 0-6.03-2.71-6.03-6.03 0-3.33 2.7-6.04 6.03-6.04 3.33 0 6.03 2.71 6.03 6.04 0 3.32-2.7 6.03-6.03 6.03zm0-7.57c-0.85 0-1.53 0.69-1.53 1.54 0 0.84 0.68 1.53 1.53 1.53 0.84 0 1.53-0.69 1.53-1.53 0-0.85-0.69-1.54-1.53-1.54z"/>
	<path id="&lt;Compound Path&gt;" fill-rule="evenodd" class="s1" d="m48.18 43.16c-3.32 0-6.03-2.71-6.03-6.03 0-3.33 2.71-6.04 6.03-6.04 3.33 0 6.03 2.71 6.03 6.04 0 3.32-2.7 6.03-6.03 6.03zm0-7.57c-0.84 0-1.53 0.69-1.53 1.54 0 0.84 0.69 1.53 1.53 1.53 0.85 0 1.53-0.69 1.53-1.53 0-0.85-0.68-1.54-1.53-1.54z"/>
	<path id="&lt;Compound Path&gt;" fill-rule="evenodd" class="s1" d="m66.46 43.16c-3.32 0-6.03-2.71-6.03-6.03 0-3.33 2.71-6.04 6.03-6.04 3.33 0 6.04 2.71 6.04 6.04 0 3.32-2.71 6.03-6.04 6.03zm0-7.57c-0.84 0-1.53 0.69-1.53 1.54 0 0.84 0.69 1.53 1.53 1.53 0.85 0 1.54-0.69 1.54-1.53 0-0.85-0.69-1.54-1.54-1.54z"/>
	<path id="&lt;Compound Path&gt;" fill-rule="evenodd" class="s1" d="m29.9 60.56c-3.33 0-6.03-2.71-6.03-6.04 0-3.32 2.7-6.03 6.03-6.03 3.33 0 6.03 2.71 6.03 6.03 0 3.33-2.7 6.04-6.03 6.04zm0-7.57c-0.85 0-1.53 0.69-1.53 1.53 0 0.85 0.68 1.54 1.53 1.54 0.84 0 1.53-0.69 1.53-1.54 0-0.84-0.69-1.53-1.53-1.53z"/>
	<path id="&lt;Compound Path&gt;" fill-rule="evenodd" class="s1" d="m48.18 60.56c-3.32 0-6.03-2.71-6.03-6.04 0-3.32 2.71-6.03 6.03-6.03 3.33 0 6.03 2.71 6.03 6.03 0 3.33-2.7 6.04-6.03 6.04zm0-7.57c-0.84 0-1.53 0.69-1.53 1.53 0 0.85 0.69 1.54 1.53 1.54 0.85 0 1.53-0.69 1.53-1.54 0-0.84-0.68-1.53-1.53-1.53z"/>
	<path id="&lt;Path&gt;" class="s0" d="m101.98 30.53l-5.04 5.04-11.18-11.17 5.04-5.04z"/>
	<path id="&lt;Compound Path&gt;" fill-rule="evenodd" class="s1" d="m96.94 37.82c-0.6 0-1.17-0.23-1.59-0.66l-11.18-11.17c-0.88-0.88-0.88-2.3 0-3.18l5.04-5.04c0.88-0.88 2.3-0.88 3.18 0l11.18 11.17c0.88 0.88 0.88 2.31 0 3.18l-5.04 5.04c-0.42 0.43-1 0.66-1.59 0.66zm-7.99-13.42l7.99 7.99 1.85-1.86-7.99-7.99z"/>
	<path id="&lt;Path&gt;" class="s0" d="m58.71 50.41l-0.88 13.1 13.1-0.88 23.24-23.25-12.22-12.22z"/>
	<path id="&lt;Compound Path&gt;" fill-rule="evenodd" class="s1" d="m57.83 65.76c-0.59 0-1.17-0.24-1.59-0.66-0.46-0.46-0.7-1.1-0.65-1.74l0.87-13.1c0.04-0.55 0.27-1.06 0.66-1.44l23.24-23.25c0.88-0.88 2.31-0.88 3.19 0l12.22 12.22c0.42 0.42 0.65 1 0.65 1.59 0 0.6-0.23 1.17-0.65 1.59l-23.25 23.25c-0.39 0.39-0.9 0.62-1.44 0.65l-13.1 0.88q-0.07 0.01-0.15 0.01zm3.07-14.36l-0.65 9.69 9.69-0.65 21.05-21.06-9.04-9.03z"/>
	<path id="&lt;Path&gt;" class="s1" d="m71.2 63.35c-0.58 0-1.16-0.22-1.6-0.66l-10.95-10.96c-0.88-0.87-0.88-2.3 0-3.18 0.88-0.88 2.3-0.88 3.18 0l10.96 10.95c0.87 0.88 0.87 2.31 0 3.19-0.44 0.44-1.02 0.66-1.59 0.66z"/>
	<path id="&lt;Path&gt;" class="s1" d="m65.94 57.65c-0.58 0-1.15-0.22-1.59-0.66-0.88-0.88-0.88-2.3 0-3.18l21.25-21.25c0.88-0.88 2.3-0.88 3.18 0 0.88 0.88 0.88 2.3 0 3.18l-21.25 21.25c-0.44 0.44-1.02 0.66-1.59 0.66z"/>
	<path id="&lt;Path&gt;" class="s0" d="m99.35 35.79l-5.48 5.48-13.8-13.8 5.47-5.48z"/>
	<path id="&lt;Compound Path&gt;" fill-rule="evenodd" class="s1" d="m93.87 43.52c-0.58 0-1.15-0.22-1.59-0.66l-13.8-13.8c-0.43-0.42-0.66-1-0.66-1.59 0-0.6 0.24-1.17 0.66-1.59l5.47-5.48c0.88-0.88 2.31-0.88 3.19 0l13.8 13.8c0.42 0.42 0.66 1 0.66 1.59 0 0.6-0.24 1.17-0.66 1.59l-5.48 5.48c-0.44 0.44-1.01 0.66-1.59 0.66zm-10.62-16.05l10.62 10.62 2.29-2.3-10.62-10.62z"/>
	<path id="&lt;Path&gt;" class="s1" d="m57.83 63.51l6.94-0.47-6.47-6.47z"/>
	<path id="&lt;Path&gt;" class="s1" d="m9.28 50.39h-5.69c-1.24 0-2.25-1.01-2.25-2.25 0-1.24 1.01-2.25 2.25-2.25h5.69c1.24 0 2.25 1.01 2.25 2.25 0 1.24-1.01 2.25-2.25 2.25z"/>
</svg>