<svg version="1.2" xmlns="http://www.w3.org/2000/svg" viewBox="0 0 108 96" width="108" height="96">
	<style>
		.s0 { fill: #58c458 } 
		.s1 { fill: #56a656 } 
		.s2 { fill: #ffffff } 
	</style>
	<path id="&lt;Path&gt;" class="s0" d="m51.07 13.12l-6.28-6.32h-31.7l-6.27 6.33v18.94l12.61 12.68h31.64c0 0-0.02-31.66 0-31.63z"/>
	<path id="&lt;Path&gt;" class="s0" d="m51.07 82.66l-6.35 6.32h-31.63l-6.27-6.33v-18.94l12.61-12.68h31.64c0 0-0.02 31.65 0 31.63z"/>
	<path id="&lt;Path&gt;" class="s1" d="m51.07 13.14h-6.31v-6.3h6.31z"/>
	<path id="&lt;Path&gt;" class="s1" d="m57.37 50.99h-6.3v-37.87h6.3z"/>
	<path id="&lt;Path&gt;" class="s1" d="m44.72 51h-25.29v-6.31h25.29z"/>
	<path id="&lt;Path&gt;" class="s1" d="m6.82 25.71h-6.3v-6.31h6.3z"/>
	<path id="&lt;Path&gt;" class="s1" d="m6.82 19.44h-6.3v-6.31h6.3z"/>
	<path id="&lt;Path&gt;" class="s1" d="m6.82 31.98h-6.3v-6.3h6.3z"/>
	<path id="&lt;Path&gt;" class="s1" d="m44.73 6.8h-18.97v-6.31h18.97z"/>
	<path id="&lt;Path&gt;" class="s1" d="m13.13 13.13h-6.31v-6.32h6.31z"/>
	<path id="&lt;Path&gt;" class="s1" d="m13.13 38.37h-6.31v-6.3h6.31z"/>
	<path id="&lt;Path&gt;" class="s1" d="m19.48 44.69h-6.31v-6.3h6.31z"/>
	<path id="&lt;Path&gt;" class="s1" d="m25.77 6.8h-12.68v-6.31h12.68z"/>
	<path id="&lt;Path&gt;" class="s1" d="m51.02 82.66h-6.3v6.3h6.3z"/>
	<path id="&lt;Path&gt;" class="s1" d="m57.37 44.75h-6.3v37.88h6.3z"/>
	<path id="&lt;Path&gt;" class="s1" d="m51.07 44.75h-31.64v6.31h31.64z"/>
	<path id="&lt;Path&gt;" class="s1" d="m6.82 70.03h-6.3v6.31h6.3z"/>
	<path id="&lt;Path&gt;" class="s1" d="m6.82 76.31h-6.3v6.3h6.3z"/>
	<path id="&lt;Path&gt;" class="s1" d="m6.82 63.76h-6.3v6.31h6.3z"/>
	<path id="&lt;Path&gt;" class="s1" d="m44.73 88.94h-18.97v6.31h18.97z"/>
	<path id="&lt;Path&gt;" class="s1" d="m13.13 82.61h-6.31v6.33h6.31z"/>
	<path id="&lt;Path&gt;" class="s1" d="m13.13 57.38h-6.31v6.3h6.31z"/>
	<path id="&lt;Path&gt;" class="s1" d="m19.48 51.05h-6.31v6.3h6.31z"/>
	<path id="&lt;Path&gt;" class="s1" d="m25.77 88.94h-12.68v6.31h12.68z"/>
	<path id="&lt;Path&gt;" class="s2" d="m44.69 38.34h-6.3v-6.31h6.3z"/>
	<path id="&lt;Path&gt;" class="s2" d="m50.99 44.67h-6.3v-6.31h6.3z"/>
	<path id="&lt;Path&gt;" class="s2" d="m44.69 57.38h-6.3v6.31h6.3z"/>
	<path id="&lt;Path&gt;" class="s2" d="m50.99 51.05h-6.3v6.31h6.3z"/>
	<path id="&lt;Path&gt;" class="s0" d="m57.35 13.12l6.28-6.32h31.7l6.27 6.33v18.94l-12.61 12.68h-31.64c0 0 0.02-31.66 0-31.63z"/>
	<path id="&lt;Path&gt;" class="s0" d="m57.35 82.66l6.35 6.32h31.63l6.27-6.33v-18.94l-12.61-12.68h-31.64c0 0 0.02 31.65 0 31.63z"/>
	<path id="&lt;Path&gt;" class="s1" d="m57.35 13.14h6.31v-6.3h-6.31z"/>
	<path id="&lt;Path&gt;" class="s1" d="m51.04 50.99h6.31v-37.87h-6.31z"/>
	<path id="&lt;Path&gt;" class="s1" d="m63.7 51h25.29v-6.31h-25.29z"/>
	<path id="&lt;Path&gt;" class="s1" d="m101.59 25.71h6.31v-6.31h-6.31z"/>
	<path id="&lt;Path&gt;" class="s1" d="m101.59 19.44h6.31v-6.31h-6.31z"/>
	<path id="&lt;Path&gt;" class="s1" d="m101.59 31.98h6.31v-6.3h-6.31z"/>
	<path id="&lt;Path&gt;" class="s1" d="m63.69 6.8h18.97v-6.31h-18.97z"/>
	<path id="&lt;Path&gt;" class="s1" d="m95.29 13.13h6.31v-6.32h-6.31z"/>
	<path id="&lt;Path&gt;" class="s1" d="m95.29 38.37h6.31v-6.3h-6.31z"/>
	<path id="&lt;Path&gt;" class="s1" d="m88.94 44.69h6.31v-6.3h-6.31z"/>
	<path id="&lt;Path&gt;" class="s1" d="m82.64 6.8h12.69v-6.31h-12.69z"/>
	<path id="&lt;Path&gt;" class="s1" d="m57.39 82.66h6.31v6.3h-6.31z"/>
	<path id="&lt;Path&gt;" class="s1" d="m51.04 44.75h6.31v37.88h-6.31z"/>
	<path id="&lt;Path&gt;" class="s1" d="m57.35 44.75h31.64v6.31h-31.64z"/>
	<path id="&lt;Path&gt;" class="s1" d="m101.59 70.03h6.31v6.31h-6.31z"/>
	<path id="&lt;Path&gt;" class="s1" d="m101.59 76.31h6.31v6.3h-6.31z"/>
	<path id="&lt;Path&gt;" class="s1" d="m101.59 63.76h6.31v6.31h-6.31z"/>
	<path id="&lt;Path&gt;" class="s1" d="m63.69 88.94h18.97v6.31h-18.97z"/>
	<path id="&lt;Path&gt;" class="s1" d="m95.29 82.61h6.31v6.33h-6.31z"/>
	<path id="&lt;Path&gt;" class="s1" d="m95.29 57.38h6.31v6.3h-6.31z"/>
	<path id="&lt;Path&gt;" class="s1" d="m88.94 51.05h6.31v6.3h-6.31z"/>
	<path id="&lt;Path&gt;" class="s1" d="m82.64 88.94h12.69v6.31h-12.69z"/>
	<path id="&lt;Path&gt;" class="s2" d="m63.68 38.34h6.31v-6.31h-6.31z"/>
	<path id="&lt;Path&gt;" class="s2" d="m57.38 44.67h6.31v-6.31h-6.31z"/>
	<path id="&lt;Path&gt;" class="s2" d="m63.87 57.38h6.3v6.31h-6.3z"/>
	<path id="&lt;Path&gt;" class="s2" d="m57.57 51.05h6.3v6.31h-6.3z"/>
</svg>