<svg version="1.2" xmlns="http://www.w3.org/2000/svg" viewBox="0 0 146 109" width="146" height="109">
	<style>
		.s0 { fill: #73c9cc } 
		.s1 { fill: #55b0b3 } 
	</style>
	<path id="&lt;Path&gt;" class="s0" d="m25.69 33.27h-6.27l-12.65 12.68v6.3l50.47 50.49h6.31l75.8-75.76v-6.31l-12.63-12.67h-6.31l-56.86 56.91h-6.31z"/>
	<path id="&lt;Path&gt;" class="s1" d="m88.78 39.61h6.3v-6.3h-6.3z"/>
	<path id="&lt;Path&gt;" class="s1" d="m82.48 45.93h6.31v-6.31h-6.31z"/>
	<path id="&lt;Path&gt;" class="s1" d="m76.17 52.28h6.3v-6.3h-6.3z"/>
	<path id="&lt;Path&gt;" class="s1" d="m69.86 58.6h6.31v-6.31h-6.31z"/>
	<path id="&lt;Path&gt;" class="s1" d="m63.55 64.95h6.3v-6.31h-6.3z"/>
	<path id="&lt;Path&gt;" class="s1" d="m57.24 71.22h6.31v-6.31h-6.31z"/>
	<path id="&lt;Path&gt;" class="s1" d="m107.69 58.59h6.31v-6.31h-6.31z"/>
	<path id="&lt;Path&gt;" class="s1" d="m101.39 64.9h6.31v-6.3h-6.31z"/>
	<path id="&lt;Path&gt;" class="s1" d="m95.08 71.26h6.31v-6.31h-6.31z"/>
	<path id="&lt;Path&gt;" class="s1" d="m88.78 77.57h6.3v-6.31h-6.3z"/>
	<path id="&lt;Path&gt;" class="s1" d="m82.46 83.93h6.31v-6.31h-6.31z"/>
	<path id="&lt;Path&gt;" class="s1" d="m76.15 90.19h6.31v-6.3h-6.31z"/>
	<path id="&lt;Path&gt;" class="s1" d="m114.03 52.25h6.31v-6.31h-6.31z"/>
	<path id="&lt;Path&gt;" class="s1" d="m95.09 33.27h6.31v-6.31h-6.31z"/>
	<path id="&lt;Path&gt;" class="s1" d="m120.4 45.95h6.31v-6.31h-6.31z"/>
	<path id="&lt;Path&gt;" class="s1" d="m101.46 26.97h6.31v-6.31h-6.31z"/>
	<path id="&lt;Path&gt;" class="s1" d="m126.72 39.61h6.3v-6.31h-6.3z"/>
	<path id="&lt;Path&gt;" class="s1" d="m107.78 20.63h6.3v-6.31h-6.3z"/>
	<path id="&lt;Path&gt;" class="s1" d="m133.03 33.29h6.31v-6.3h-6.31z"/>
	<path id="&lt;Path&gt;" class="s1" d="m114.09 14.31h6.31v-6.3h-6.31z"/>
	<path id="&lt;Path&gt;" class="s1" d="m126.69 14.33h6.31v-6.31h-6.31z"/>
	<path id="&lt;Path&gt;" class="s1" d="m133.04 20.63h6.3v-6.31h-6.3z"/>
	<path id="&lt;Path&gt;" class="s1" d="m139.35 26.98h6.31v-6.31h-6.31z"/>
	<path id="&lt;Path&gt;" class="s1" d="m120.41 8h6.31v-6.31h-6.31z"/>
	<path id="&lt;Path&gt;" class="s1" d="m32.01 39.61h-6.3v-6.3h6.3z"/>
	<path id="&lt;Path&gt;" class="s1" d="m38.31 45.93h-6.31v-6.31h6.31z"/>
	<path id="&lt;Path&gt;" class="s1" d="m44.62 52.28h-6.3v-6.3h6.3z"/>
	<path id="&lt;Path&gt;" class="s1" d="m50.93 58.6h-6.31v-6.31h6.31z"/>
	<path id="&lt;Path&gt;" class="s1" d="m57.24 64.95h-6.31v-6.31h6.31z"/>
	<path id="&lt;Path&gt;" class="s1" d="m13.1 58.59h-6.31v-6.31h6.31z"/>
	<path id="&lt;Path&gt;" class="s1" d="m19.39 64.9h-6.3v-6.3h6.3z"/>
	<path id="&lt;Path&gt;" class="s1" d="m25.71 71.26h-6.31v-6.31h6.31z"/>
	<path id="&lt;Path&gt;" class="s1" d="m32.01 77.57h-6.3v-6.31h6.3z"/>
	<path id="&lt;Path&gt;" class="s1" d="m38.33 83.93h-6.31v-6.31h6.31z"/>
	<path id="&lt;Path&gt;" class="s1" d="m44.63 90.19h-6.3v-6.3h6.3z"/>
	<path id="&lt;Path&gt;" class="s1" d="m50.92 96.43h-6.31v-6.31h6.31z"/>
	<path id="&lt;Path&gt;" class="s1" d="m57.24 102.74h-6.31v-6.31h6.31z"/>
	<path id="&lt;Path&gt;" class="s1" d="m63.55 109.05h-6.31v-6.31h6.31z"/>
	<path id="&lt;Path&gt;" class="s1" d="m69.85 102.74h-6.3v-6.31h6.3z"/>
	<path id="&lt;Path&gt;" class="s1" d="m76.17 96.43h-6.31v-6.31h6.31z"/>
	<path id="&lt;Path&gt;" class="s1" d="m6.75 52.25h-6.3v-6.31h6.3z"/>
	<path id="&lt;Path&gt;" class="s1" d="m25.69 33.27h-6.3v-6.31h6.3z"/>
	<path id="&lt;Path&gt;" class="s1" d="m19.42 39.66h-6.3v-6.31h6.3z"/>
	<path id="&lt;Path&gt;" class="s1" d="m13.08 45.95h-6.31v-6.3h6.31z"/>
</svg>