<svg version="1.2" xmlns="http://www.w3.org/2000/svg" viewBox="0 0 114 115" width="114" height="115">
	<style>
		.s0 { fill: #5cc2b5 } 
		.s1 { fill: #55b0b3 } 
	</style>
	<path id="&lt;Path&gt;" class="s0" d="m56.83 45.97l-37.89-37.95h-12.62v12.63l31.57 31.64v12.64l-31.57 31.63v12.61h12.62l31.55-31.62h12.65l31.54 31.64h12.63v-12.63l-31.57-31.63v-12.64l31.57-31.64v-12.6h-12.63l-31.54 31.61z"/>
	<path id="&lt;Path&gt;" class="s1" d="m12.66 8.02h-6.31v-6.31h6.31z"/>
	<path id="&lt;Path&gt;" class="s1" d="m12.66 26.99h-6.31v-6.31h6.31z"/>
	<path id="&lt;Path&gt;" class="s1" d="m18.96 33.31h-6.31v-6.31h6.31z"/>
	<path id="&lt;Path&gt;" class="s1" d="m25.27 39.66h-6.31v-6.31h6.31z"/>
	<path id="&lt;Path&gt;" class="s1" d="m25.26 14.37h-6.31v-6.31h6.31z"/>
	<path id="&lt;Path&gt;" class="s1" d="m31.56 20.68h-6.31v-6.31h6.31z"/>
	<path id="&lt;Path&gt;" class="s1" d="m37.87 27.04h-6.31v-6.31h6.31z"/>
	<path id="&lt;Path&gt;" class="s1" d="m31.57 45.97h-6.3v-6.3h6.3z"/>
	<path id="&lt;Path&gt;" class="s1" d="m37.89 52.33h-6.31v-6.31h6.31z"/>
	<path id="&lt;Path&gt;" class="s1" d="m44.17 33.35h-6.3v-6.31h6.3z"/>
	<path id="&lt;Path&gt;" class="s1" d="m50.49 39.7h-6.31v-6.3h6.31z"/>
	<path id="&lt;Path&gt;" class="s1" d="m44.2 58.6h-6.31v-6.31h6.31z"/>
	<path id="&lt;Path&gt;" class="s1" d="m56.8 45.97h-6.31v-6.31h6.31z"/>
	<path id="&lt;Path&gt;" class="s1" d="m6.32 14.35h-6.31v-6.3h6.31z"/>
	<path id="&lt;Path&gt;" class="s1" d="m6.32 20.65h-6.31v-6.31h6.31z"/>
	<path id="&lt;Path&gt;" class="s1" d="m18.94 8.02h-6.3v-6.31h6.3z"/>
	<path id="&lt;Path&gt;" class="s1" d="m100.97 8.02h6.3v-6.31h-6.3z"/>
	<path id="&lt;Path&gt;" class="s1" d="m100.97 26.99h6.3v-6.31h-6.3z"/>
	<path id="&lt;Path&gt;" class="s1" d="m94.67 33.31h6.31v-6.31h-6.31z"/>
	<path id="&lt;Path&gt;" class="s1" d="m88.36 39.66h6.3v-6.31h-6.3z"/>
	<path id="&lt;Path&gt;" class="s1" d="m88.37 14.37h6.3v-6.31h-6.3z"/>
	<path id="&lt;Path&gt;" class="s1" d="m82.07 20.68h6.31v-6.31h-6.31z"/>
	<path id="&lt;Path&gt;" class="s1" d="m75.76 27.04h6.3v-6.31h-6.3z"/>
	<path id="&lt;Path&gt;" class="s1" d="m82.05 45.97h6.31v-6.3h-6.31z"/>
	<path id="&lt;Path&gt;" class="s1" d="m75.74 52.33h6.3v-6.31h-6.3z"/>
	<path id="&lt;Path&gt;" class="s1" d="m69.45 33.35h6.31v-6.31h-6.31z"/>
	<path id="&lt;Path&gt;" class="s1" d="m63.14 39.7h6.3v-6.3h-6.3z"/>
	<path id="&lt;Path&gt;" class="s1" d="m69.43 58.6h6.31v-6.31h-6.31z"/>
	<path id="&lt;Path&gt;" class="s1" d="m56.83 45.97h6.31v-6.31h-6.31z"/>
	<path id="&lt;Path&gt;" class="s1" d="m107.31 14.35h6.31v-6.3h-6.31z"/>
	<path id="&lt;Path&gt;" class="s1" d="m107.31 20.65h6.31v-6.31h-6.31z"/>
	<path id="&lt;Path&gt;" class="s1" d="m94.68 8.02h6.31v-6.31h-6.31z"/>
	<path id="&lt;Path&gt;" class="s1" d="m12.66 109.19h-6.31v6.31h6.31z"/>
	<path id="&lt;Path&gt;" class="s1" d="m12.66 90.22h-6.31v6.31h6.31z"/>
	<path id="&lt;Path&gt;" class="s1" d="m18.96 83.91h-6.31v6.31h6.31z"/>
	<path id="&lt;Path&gt;" class="s1" d="m25.27 77.55h-6.31v6.31h6.31z"/>
	<path id="&lt;Path&gt;" class="s1" d="m25.26 102.85h-6.31v6.3h6.31z"/>
	<path id="&lt;Path&gt;" class="s1" d="m31.56 96.53h-6.31v6.31h6.31z"/>
	<path id="&lt;Path&gt;" class="s1" d="m37.87 90.18h-6.31v6.31h6.31z"/>
	<path id="&lt;Path&gt;" class="s1" d="m31.57 71.24h-6.3v6.31h6.3z"/>
	<path id="&lt;Path&gt;" class="s1" d="m37.89 64.89h-6.31v6.3h6.31z"/>
	<path id="&lt;Path&gt;" class="s1" d="m44.17 83.87h-6.3v6.3h6.3z"/>
	<path id="&lt;Path&gt;" class="s1" d="m50.49 77.51h-6.31v6.31h6.31z"/>
	<path id="&lt;Path&gt;" class="s1" d="m44.2 58.62h-6.31v6.31h6.31z"/>
	<path id="&lt;Path&gt;" class="s1" d="m56.8 71.24h-6.31v6.31h6.31z"/>
	<path id="&lt;Path&gt;" class="s1" d="m6.32 102.86h-6.31v6.31h6.31z"/>
	<path id="&lt;Path&gt;" class="s1" d="m6.32 96.56h-6.31v6.31h6.31z"/>
	<path id="&lt;Path&gt;" class="s1" d="m18.94 109.19h-6.3v6.31h6.3z"/>
	<path id="&lt;Path&gt;" class="s1" d="m100.97 109.19h6.3v6.31h-6.3z"/>
	<path id="&lt;Path&gt;" class="s1" d="m100.97 90.22h6.3v6.31h-6.3z"/>
	<path id="&lt;Path&gt;" class="s1" d="m94.67 83.91h6.31v6.31h-6.31z"/>
	<path id="&lt;Path&gt;" class="s1" d="m88.36 77.55h6.3v6.31h-6.3z"/>
	<path id="&lt;Path&gt;" class="s1" d="m88.37 102.85h6.3v6.3h-6.3z"/>
	<path id="&lt;Path&gt;" class="s1" d="m82.07 96.53h6.31v6.31h-6.31z"/>
	<path id="&lt;Path&gt;" class="s1" d="m75.76 90.18h6.3v6.31h-6.3z"/>
	<path id="&lt;Path&gt;" class="s1" d="m82.05 71.24h6.31v6.31h-6.31z"/>
	<path id="&lt;Path&gt;" class="s1" d="m75.74 64.89h6.3v6.3h-6.3z"/>
	<path id="&lt;Path&gt;" class="s1" d="m69.45 83.87h6.31v6.3h-6.31z"/>
	<path id="&lt;Path&gt;" class="s1" d="m63.14 77.51h6.3v6.31h-6.3z"/>
	<path id="&lt;Path&gt;" class="s1" d="m69.43 58.62h6.31v6.31h-6.31z"/>
	<path id="&lt;Path&gt;" class="s1" d="m56.83 71.24h6.31v6.31h-6.31z"/>
	<path id="&lt;Path&gt;" class="s1" d="m107.31 102.86h6.31v6.31h-6.31z"/>
	<path id="&lt;Path&gt;" class="s1" d="m107.31 96.56h6.31v6.31h-6.31z"/>
	<path id="&lt;Path&gt;" class="s1" d="m94.68 109.19h6.31v6.31h-6.31z"/>
	<path id="&lt;Path&gt; copy" class="s0" d="m57.83 45.97l-37.89-37.95h-12.62v12.63l31.57 31.64v12.64l-31.57 31.63v12.61h12.62l31.55-31.62h12.65l31.54 31.64h12.63v-12.63l-31.57-31.63v-12.64l31.57-31.64v-12.6h-12.63l-31.54 31.61z"/>
	<path id="&lt;Path&gt; copy 2" class="s1" d="m13.66 8.02h-6.31v-6.31h6.31z"/>
	<path id="&lt;Path&gt; copy 3" class="s1" d="m13.66 26.99h-6.31v-6.31h6.31z"/>
	<path id="&lt;Path&gt; copy 4" class="s1" d="m19.96 33.31h-6.31v-6.31h6.31z"/>
	<path id="&lt;Path&gt; copy 5" class="s1" d="m26.27 39.66h-6.31v-6.31h6.31z"/>
	<path id="&lt;Path&gt; copy 6" class="s1" d="m26.26 14.37h-6.31v-6.31h6.31z"/>
	<path id="&lt;Path&gt; copy 7" class="s1" d="m32.56 20.68h-6.31v-6.31h6.31z"/>
	<path id="&lt;Path&gt; copy 8" class="s1" d="m38.87 27.04h-6.31v-6.31h6.31z"/>
	<path id="&lt;Path&gt; copy 9" class="s1" d="m32.57 45.97h-6.3v-6.3h6.3z"/>
	<path id="&lt;Path&gt; copy 10" class="s1" d="m38.89 52.33h-6.31v-6.31h6.31z"/>
	<path id="&lt;Path&gt; copy 11" class="s1" d="m45.17 33.35h-6.3v-6.31h6.3z"/>
	<path id="&lt;Path&gt; copy 12" class="s1" d="m51.49 39.7h-6.31v-6.3h6.31z"/>
	<path id="&lt;Path&gt; copy 13" class="s1" d="m45.2 58.6h-6.31v-6.31h6.31z"/>
	<path id="&lt;Path&gt; copy 14" class="s1" d="m57.8 45.97h-6.31v-6.31h6.31z"/>
	<path id="&lt;Path&gt; copy 15" class="s1" d="m7.32 14.35h-6.31v-6.3h6.31z"/>
	<path id="&lt;Path&gt; copy 16" class="s1" d="m7.32 20.65h-6.31v-6.31h6.31z"/>
	<path id="&lt;Path&gt; copy 17" class="s1" d="m19.94 8.02h-6.3v-6.31h6.3z"/>
	<path id="&lt;Path&gt; copy 18" class="s1" d="m101.97 8.02h6.3v-6.31h-6.3z"/>
	<path id="&lt;Path&gt; copy 19" class="s1" d="m101.97 26.99h6.3v-6.31h-6.3z"/>
	<path id="&lt;Path&gt; copy 20" class="s1" d="m95.67 33.31h6.31v-6.31h-6.31z"/>
	<path id="&lt;Path&gt; copy 21" class="s1" d="m89.36 39.66h6.3v-6.31h-6.3z"/>
	<path id="&lt;Path&gt; copy 22" class="s1" d="m89.37 14.37h6.3v-6.31h-6.3z"/>
	<path id="&lt;Path&gt; copy 23" class="s1" d="m83.07 20.68h6.31v-6.31h-6.31z"/>
	<path id="&lt;Path&gt; copy 24" class="s1" d="m76.76 27.04h6.3v-6.31h-6.3z"/>
	<path id="&lt;Path&gt; copy 25" class="s1" d="m83.05 45.97h6.31v-6.3h-6.31z"/>
	<path id="&lt;Path&gt; copy 26" class="s1" d="m76.74 52.33h6.3v-6.31h-6.3z"/>
	<path id="&lt;Path&gt; copy 27" class="s1" d="m70.45 33.35h6.31v-6.31h-6.31z"/>
	<path id="&lt;Path&gt; copy 28" class="s1" d="m64.14 39.7h6.3v-6.3h-6.3z"/>
	<path id="&lt;Path&gt; copy 29" class="s1" d="m70.43 58.6h6.31v-6.31h-6.31z"/>
	<path id="&lt;Path&gt; copy 30" class="s1" d="m57.83 45.97h6.31v-6.31h-6.31z"/>
	<path id="&lt;Path&gt; copy 31" class="s1" d="m108.31 14.35h6.31v-6.3h-6.31z"/>
	<path id="&lt;Path&gt; copy 32" class="s1" d="m108.31 20.65h6.31v-6.31h-6.31z"/>
	<path id="&lt;Path&gt; copy 33" class="s1" d="m95.68 8.02h6.31v-6.31h-6.31z"/>
	<path id="&lt;Path&gt; copy 34" class="s1" d="m13.66 109.19h-6.31v6.31h6.31z"/>
	<path id="&lt;Path&gt; copy 35" class="s1" d="m13.66 90.22h-6.31v6.31h6.31z"/>
	<path id="&lt;Path&gt; copy 36" class="s1" d="m19.96 83.91h-6.31v6.31h6.31z"/>
	<path id="&lt;Path&gt; copy 37" class="s1" d="m26.27 77.55h-6.31v6.31h6.31z"/>
	<path id="&lt;Path&gt; copy 38" class="s1" d="m26.26 102.85h-6.31v6.3h6.31z"/>
	<path id="&lt;Path&gt; copy 39" class="s1" d="m32.56 96.53h-6.31v6.31h6.31z"/>
	<path id="&lt;Path&gt; copy 40" class="s1" d="m38.87 90.18h-6.31v6.31h6.31z"/>
	<path id="&lt;Path&gt; copy 41" class="s1" d="m32.57 71.24h-6.3v6.31h6.3z"/>
	<path id="&lt;Path&gt; copy 42" class="s1" d="m38.89 64.89h-6.31v6.3h6.31z"/>
	<path id="&lt;Path&gt; copy 43" class="s1" d="m45.17 83.87h-6.3v6.3h6.3z"/>
	<path id="&lt;Path&gt; copy 44" class="s1" d="m51.49 77.51h-6.31v6.31h6.31z"/>
	<path id="&lt;Path&gt; copy 45" class="s1" d="m45.2 58.62h-6.31v6.31h6.31z"/>
	<path id="&lt;Path&gt; copy 46" class="s1" d="m57.8 71.24h-6.31v6.31h6.31z"/>
	<path id="&lt;Path&gt; copy 47" class="s1" d="m7.32 102.86h-6.31v6.31h6.31z"/>
	<path id="&lt;Path&gt; copy 48" class="s1" d="m7.32 96.56h-6.31v6.31h6.31z"/>
	<path id="&lt;Path&gt; copy 49" class="s1" d="m19.94 109.19h-6.3v6.31h6.3z"/>
	<path id="&lt;Path&gt; copy 50" class="s1" d="m101.97 109.19h6.3v6.31h-6.3z"/>
	<path id="&lt;Path&gt; copy 51" class="s1" d="m101.97 90.22h6.3v6.31h-6.3z"/>
	<path id="&lt;Path&gt; copy 52" class="s1" d="m95.67 83.91h6.31v6.31h-6.31z"/>
	<path id="&lt;Path&gt; copy 53" class="s1" d="m89.36 77.55h6.3v6.31h-6.3z"/>
	<path id="&lt;Path&gt; copy 54" class="s1" d="m89.37 102.85h6.3v6.3h-6.3z"/>
	<path id="&lt;Path&gt; copy 55" class="s1" d="m83.07 96.53h6.31v6.31h-6.31z"/>
	<path id="&lt;Path&gt; copy 56" class="s1" d="m76.76 90.18h6.3v6.31h-6.3z"/>
	<path id="&lt;Path&gt; copy 57" class="s1" d="m83.05 71.24h6.31v6.31h-6.31z"/>
	<path id="&lt;Path&gt; copy 58" class="s1" d="m76.74 64.89h6.3v6.3h-6.3z"/>
	<path id="&lt;Path&gt; copy 59" class="s1" d="m70.45 83.87h6.31v6.3h-6.31z"/>
	<path id="&lt;Path&gt; copy 60" class="s1" d="m64.14 77.51h6.3v6.31h-6.3z"/>
	<path id="&lt;Path&gt; copy 61" class="s1" d="m70.43 58.62h6.31v6.31h-6.31z"/>
	<path id="&lt;Path&gt; copy 62" class="s1" d="m57.83 71.24h6.31v6.31h-6.31z"/>
	<path id="&lt;Path&gt; copy 63" class="s1" d="m108.31 102.86h6.31v6.31h-6.31z"/>
	<path id="&lt;Path&gt; copy 64" class="s1" d="m108.31 96.56h6.31v6.31h-6.31z"/>
	<path id="&lt;Path&gt; copy 65" class="s1" d="m95.68 109.19h6.31v6.31h-6.31z"/>
	<path id="&lt;Path&gt; copy 66" class="s0" d="m57.83 44.97l-37.89-37.95h-12.62v12.63l31.57 31.64v12.64l-31.57 31.63v12.61h12.62l31.55-31.62h12.65l31.54 31.64h12.63v-12.63l-31.57-31.63v-12.64l31.57-31.64v-12.6h-12.63l-31.54 31.61z"/>
	<path id="&lt;Path&gt; copy 67" class="s1" d="m13.66 7.02h-6.31v-6.31h6.31z"/>
	<path id="&lt;Path&gt; copy 68" class="s1" d="m13.66 25.99h-6.31v-6.31h6.31z"/>
	<path id="&lt;Path&gt; copy 69" class="s1" d="m19.96 32.31h-6.31v-6.31h6.31z"/>
	<path id="&lt;Path&gt; copy 70" class="s1" d="m26.27 38.66h-6.31v-6.31h6.31z"/>
	<path id="&lt;Path&gt; copy 71" class="s1" d="m26.26 13.37h-6.31v-6.31h6.31z"/>
	<path id="&lt;Path&gt; copy 72" class="s1" d="m32.56 19.68h-6.31v-6.31h6.31z"/>
	<path id="&lt;Path&gt; copy 73" class="s1" d="m38.87 26.04h-6.31v-6.31h6.31z"/>
	<path id="&lt;Path&gt; copy 74" class="s1" d="m32.57 44.97h-6.3v-6.3h6.3z"/>
	<path id="&lt;Path&gt; copy 75" class="s1" d="m38.89 51.33h-6.31v-6.31h6.31z"/>
	<path id="&lt;Path&gt; copy 76" class="s1" d="m45.17 32.35h-6.3v-6.31h6.3z"/>
	<path id="&lt;Path&gt; copy 77" class="s1" d="m51.49 38.7h-6.31v-6.3h6.31z"/>
	<path id="&lt;Path&gt; copy 78" class="s1" d="m45.2 57.6h-6.31v-6.31h6.31z"/>
	<path id="&lt;Path&gt; copy 79" class="s1" d="m57.8 44.97h-6.31v-6.31h6.31z"/>
	<path id="&lt;Path&gt; copy 80" class="s1" d="m7.32 13.35h-6.31v-6.3h6.31z"/>
	<path id="&lt;Path&gt; copy 81" class="s1" d="m7.32 19.65h-6.31v-6.31h6.31z"/>
	<path id="&lt;Path&gt; copy 82" class="s1" d="m19.94 7.02h-6.3v-6.31h6.3z"/>
	<path id="&lt;Path&gt; copy 83" class="s1" d="m101.97 7.02h6.3v-6.31h-6.3z"/>
	<path id="&lt;Path&gt; copy 84" class="s1" d="m101.97 25.99h6.3v-6.31h-6.3z"/>
	<path id="&lt;Path&gt; copy 85" class="s1" d="m95.67 32.31h6.31v-6.31h-6.31z"/>
	<path id="&lt;Path&gt; copy 86" class="s1" d="m89.36 38.66h6.3v-6.31h-6.3z"/>
	<path id="&lt;Path&gt; copy 87" class="s1" d="m89.37 13.37h6.3v-6.31h-6.3z"/>
	<path id="&lt;Path&gt; copy 88" class="s1" d="m83.07 19.68h6.31v-6.31h-6.31z"/>
	<path id="&lt;Path&gt; copy 89" class="s1" d="m76.76 26.04h6.3v-6.31h-6.3z"/>
	<path id="&lt;Path&gt; copy 90" class="s1" d="m83.05 44.97h6.31v-6.3h-6.31z"/>
	<path id="&lt;Path&gt; copy 91" class="s1" d="m76.74 51.33h6.3v-6.31h-6.3z"/>
	<path id="&lt;Path&gt; copy 92" class="s1" d="m70.45 32.35h6.31v-6.31h-6.31z"/>
	<path id="&lt;Path&gt; copy 93" class="s1" d="m64.14 38.7h6.3v-6.3h-6.3z"/>
	<path id="&lt;Path&gt; copy 94" class="s1" d="m70.43 57.6h6.31v-6.31h-6.31z"/>
	<path id="&lt;Path&gt; copy 95" class="s1" d="m57.83 44.97h6.31v-6.31h-6.31z"/>
	<path id="&lt;Path&gt; copy 96" class="s1" d="m108.31 13.35h6.31v-6.3h-6.31z"/>
	<path id="&lt;Path&gt; copy 97" class="s1" d="m108.31 19.65h6.31v-6.31h-6.31z"/>
	<path id="&lt;Path&gt; copy 98" class="s1" d="m95.68 7.02h6.31v-6.31h-6.31z"/>
	<path id="&lt;Path&gt; copy 99" class="s1" d="m13.66 108.19h-6.31v6.31h6.31z"/>
	<path id="&lt;Path&gt; copy 100" class="s1" d="m13.66 89.22h-6.31v6.31h6.31z"/>
	<path id="&lt;Path&gt; copy 101" class="s1" d="m19.96 82.91h-6.31v6.31h6.31z"/>
	<path id="&lt;Path&gt; copy 102" class="s1" d="m26.27 76.55h-6.31v6.31h6.31z"/>
	<path id="&lt;Path&gt; copy 103" class="s1" d="m26.26 101.85h-6.31v6.3h6.31z"/>
	<path id="&lt;Path&gt; copy 104" class="s1" d="m32.56 95.53h-6.31v6.31h6.31z"/>
	<path id="&lt;Path&gt; copy 105" class="s1" d="m38.87 89.18h-6.31v6.31h6.31z"/>
	<path id="&lt;Path&gt; copy 106" class="s1" d="m32.57 70.24h-6.3v6.31h6.3z"/>
	<path id="&lt;Path&gt; copy 107" class="s1" d="m38.89 63.89h-6.31v6.3h6.31z"/>
	<path id="&lt;Path&gt; copy 108" class="s1" d="m45.17 82.87h-6.3v6.3h6.3z"/>
	<path id="&lt;Path&gt; copy 109" class="s1" d="m51.49 76.51h-6.31v6.31h6.31z"/>
	<path id="&lt;Path&gt; copy 110" class="s1" d="m45.2 57.62h-6.31v6.31h6.31z"/>
	<path id="&lt;Path&gt; copy 111" class="s1" d="m57.8 70.24h-6.31v6.31h6.31z"/>
	<path id="&lt;Path&gt; copy 112" class="s1" d="m7.32 101.86h-6.31v6.31h6.31z"/>
	<path id="&lt;Path&gt; copy 113" class="s1" d="m7.32 95.56h-6.31v6.31h6.31z"/>
	<path id="&lt;Path&gt; copy 114" class="s1" d="m19.94 108.19h-6.3v6.31h6.3z"/>
	<path id="&lt;Path&gt; copy 115" class="s1" d="m101.97 108.19h6.3v6.31h-6.3z"/>
	<path id="&lt;Path&gt; copy 116" class="s1" d="m101.97 89.22h6.3v6.31h-6.3z"/>
	<path id="&lt;Path&gt; copy 117" class="s1" d="m95.67 82.91h6.31v6.31h-6.31z"/>
	<path id="&lt;Path&gt; copy 118" class="s1" d="m89.36 76.55h6.3v6.31h-6.3z"/>
	<path id="&lt;Path&gt; copy 119" class="s1" d="m89.37 101.85h6.3v6.3h-6.3z"/>
	<path id="&lt;Path&gt; copy 120" class="s1" d="m83.07 95.53h6.31v6.31h-6.31z"/>
	<path id="&lt;Path&gt; copy 121" class="s1" d="m76.76 89.18h6.3v6.31h-6.3z"/>
	<path id="&lt;Path&gt; copy 122" class="s1" d="m83.05 70.24h6.31v6.31h-6.31z"/>
	<path id="&lt;Path&gt; copy 123" class="s1" d="m76.74 63.89h6.3v6.3h-6.3z"/>
	<path id="&lt;Path&gt; copy 124" class="s1" d="m70.45 82.87h6.31v6.3h-6.31z"/>
	<path id="&lt;Path&gt; copy 125" class="s1" d="m64.14 76.51h6.3v6.31h-6.3z"/>
	<path id="&lt;Path&gt; copy 126" class="s1" d="m70.43 57.62h6.31v6.31h-6.31z"/>
	<path id="&lt;Path&gt; copy 127" class="s1" d="m57.83 70.24h6.31v6.31h-6.31z"/>
	<path id="&lt;Path&gt; copy 128" class="s1" d="m108.31 101.86h6.31v6.31h-6.31z"/>
	<path id="&lt;Path&gt; copy 129" class="s1" d="m108.31 95.56h6.31v6.31h-6.31z"/>
	<path id="&lt;Path&gt; copy 130" class="s1" d="m95.68 108.19h6.31v6.31h-6.31z"/>
	<path id="&lt;Path&gt; copy 131" class="s0" d="m56.83 44.97l-37.89-37.95h-12.62v12.63l31.57 31.64v12.64l-31.57 31.63v12.61h12.62l31.55-31.62h12.65l31.54 31.64h12.63v-12.63l-31.57-31.63v-12.64l31.57-31.64v-12.6h-12.63l-31.54 31.61z"/>
	<path id="&lt;Path&gt; copy 132" class="s1" d="m12.66 7.02h-6.31v-6.31h6.31z"/>
	<path id="&lt;Path&gt; copy 133" class="s1" d="m12.66 25.99h-6.31v-6.31h6.31z"/>
	<path id="&lt;Path&gt; copy 134" class="s1" d="m18.96 32.31h-6.31v-6.31h6.31z"/>
	<path id="&lt;Path&gt; copy 135" class="s1" d="m25.27 38.66h-6.31v-6.31h6.31z"/>
	<path id="&lt;Path&gt; copy 136" class="s1" d="m25.26 13.37h-6.31v-6.31h6.31z"/>
	<path id="&lt;Path&gt; copy 137" class="s1" d="m31.56 19.68h-6.31v-6.31h6.31z"/>
	<path id="&lt;Path&gt; copy 138" class="s1" d="m37.87 26.04h-6.31v-6.31h6.31z"/>
	<path id="&lt;Path&gt; copy 139" class="s1" d="m31.57 44.97h-6.3v-6.3h6.3z"/>
	<path id="&lt;Path&gt; copy 140" class="s1" d="m37.89 51.33h-6.31v-6.31h6.31z"/>
	<path id="&lt;Path&gt; copy 141" class="s1" d="m44.17 32.35h-6.3v-6.31h6.3z"/>
	<path id="&lt;Path&gt; copy 142" class="s1" d="m50.49 38.7h-6.31v-6.3h6.31z"/>
	<path id="&lt;Path&gt; copy 143" class="s1" d="m44.2 57.6h-6.31v-6.31h6.31z"/>
	<path id="&lt;Path&gt; copy 144" class="s1" d="m56.8 44.97h-6.31v-6.31h6.31z"/>
	<path id="&lt;Path&gt; copy 145" class="s1" d="m6.32 13.35h-6.31v-6.3h6.31z"/>
	<path id="&lt;Path&gt; copy 146" class="s1" d="m6.32 19.65h-6.31v-6.31h6.31z"/>
	<path id="&lt;Path&gt; copy 147" class="s1" d="m18.94 7.02h-6.3v-6.31h6.3z"/>
	<path id="&lt;Path&gt; copy 148" class="s1" d="m100.97 7.02h6.3v-6.31h-6.3z"/>
	<path id="&lt;Path&gt; copy 149" class="s1" d="m100.97 25.99h6.3v-6.31h-6.3z"/>
	<path id="&lt;Path&gt; copy 150" class="s1" d="m94.67 32.31h6.31v-6.31h-6.31z"/>
	<path id="&lt;Path&gt; copy 151" class="s1" d="m88.36 38.66h6.3v-6.31h-6.3z"/>
	<path id="&lt;Path&gt; copy 152" class="s1" d="m88.37 13.37h6.3v-6.31h-6.3z"/>
	<path id="&lt;Path&gt; copy 153" class="s1" d="m82.07 19.68h6.31v-6.31h-6.31z"/>
	<path id="&lt;Path&gt; copy 154" class="s1" d="m75.76 26.04h6.3v-6.31h-6.3z"/>
	<path id="&lt;Path&gt; copy 155" class="s1" d="m82.05 44.97h6.31v-6.3h-6.31z"/>
	<path id="&lt;Path&gt; copy 156" class="s1" d="m75.74 51.33h6.3v-6.31h-6.3z"/>
	<path id="&lt;Path&gt; copy 157" class="s1" d="m69.45 32.35h6.31v-6.31h-6.31z"/>
	<path id="&lt;Path&gt; copy 158" class="s1" d="m63.14 38.7h6.3v-6.3h-6.3z"/>
	<path id="&lt;Path&gt; copy 159" class="s1" d="m69.43 57.6h6.31v-6.31h-6.31z"/>
	<path id="&lt;Path&gt; copy 160" class="s1" d="m56.83 44.97h6.31v-6.31h-6.31z"/>
	<path id="&lt;Path&gt; copy 161" class="s1" d="m107.31 13.35h6.31v-6.3h-6.31z"/>
	<path id="&lt;Path&gt; copy 162" class="s1" d="m107.31 19.65h6.31v-6.31h-6.31z"/>
	<path id="&lt;Path&gt; copy 163" class="s1" d="m94.68 7.02h6.31v-6.31h-6.31z"/>
	<path id="&lt;Path&gt; copy 164" class="s1" d="m12.66 108.19h-6.31v6.31h6.31z"/>
	<path id="&lt;Path&gt; copy 165" class="s1" d="m12.66 89.22h-6.31v6.31h6.31z"/>
	<path id="&lt;Path&gt; copy 166" class="s1" d="m18.96 82.91h-6.31v6.31h6.31z"/>
	<path id="&lt;Path&gt; copy 167" class="s1" d="m25.27 76.55h-6.31v6.31h6.31z"/>
	<path id="&lt;Path&gt; copy 168" class="s1" d="m25.26 101.85h-6.31v6.3h6.31z"/>
	<path id="&lt;Path&gt; copy 169" class="s1" d="m31.56 95.53h-6.31v6.31h6.31z"/>
	<path id="&lt;Path&gt; copy 170" class="s1" d="m37.87 89.18h-6.31v6.31h6.31z"/>
	<path id="&lt;Path&gt; copy 171" class="s1" d="m31.57 70.24h-6.3v6.31h6.3z"/>
	<path id="&lt;Path&gt; copy 172" class="s1" d="m37.89 63.89h-6.31v6.3h6.31z"/>
	<path id="&lt;Path&gt; copy 173" class="s1" d="m44.17 82.87h-6.3v6.3h6.3z"/>
	<path id="&lt;Path&gt; copy 174" class="s1" d="m50.49 76.51h-6.31v6.31h6.31z"/>
	<path id="&lt;Path&gt; copy 175" class="s1" d="m44.2 57.62h-6.31v6.31h6.31z"/>
	<path id="&lt;Path&gt; copy 176" class="s1" d="m56.8 70.24h-6.31v6.31h6.31z"/>
	<path id="&lt;Path&gt; copy 177" class="s1" d="m6.32 101.86h-6.31v6.31h6.31z"/>
	<path id="&lt;Path&gt; copy 178" class="s1" d="m6.32 95.56h-6.31v6.31h6.31z"/>
	<path id="&lt;Path&gt; copy 179" class="s1" d="m18.94 108.19h-6.3v6.31h6.3z"/>
	<path id="&lt;Path&gt; copy 180" class="s1" d="m100.97 108.19h6.3v6.31h-6.3z"/>
	<path id="&lt;Path&gt; copy 181" class="s1" d="m100.97 89.22h6.3v6.31h-6.3z"/>
	<path id="&lt;Path&gt; copy 182" class="s1" d="m94.67 82.91h6.31v6.31h-6.31z"/>
	<path id="&lt;Path&gt; copy 183" class="s1" d="m88.36 76.55h6.3v6.31h-6.3z"/>
	<path id="&lt;Path&gt; copy 184" class="s1" d="m88.37 101.85h6.3v6.3h-6.3z"/>
	<path id="&lt;Path&gt; copy 185" class="s1" d="m82.07 95.53h6.31v6.31h-6.31z"/>
	<path id="&lt;Path&gt; copy 186" class="s1" d="m75.76 89.18h6.3v6.31h-6.3z"/>
	<path id="&lt;Path&gt; copy 187" class="s1" d="m82.05 70.24h6.31v6.31h-6.31z"/>
	<path id="&lt;Path&gt; copy 188" class="s1" d="m75.74 63.89h6.3v6.3h-6.3z"/>
	<path id="&lt;Path&gt; copy 189" class="s1" d="m69.45 82.87h6.31v6.3h-6.31z"/>
	<path id="&lt;Path&gt; copy 190" class="s1" d="m63.14 76.51h6.3v6.31h-6.3z"/>
	<path id="&lt;Path&gt; copy 191" class="s1" d="m69.43 57.62h6.31v6.31h-6.31z"/>
	<path id="&lt;Path&gt; copy 192" class="s1" d="m56.83 70.24h6.31v6.31h-6.31z"/>
	<path id="&lt;Path&gt; copy 193" class="s1" d="m107.31 101.86h6.31v6.31h-6.31z"/>
	<path id="&lt;Path&gt; copy 194" class="s1" d="m107.31 95.56h6.31v6.31h-6.31z"/>
	<path id="&lt;Path&gt; copy 195" class="s1" d="m94.68 108.19h6.31v6.31h-6.31z"/>
</svg>